<svg width="1342" height="472" viewBox="0 0 1342 472" fill="none" xmlns="http://www.w3.org/2000/svg">
<path d="M547.828 416.436V420.838H525.136V431.936C525.136 433.135 525.322 434.023 525.694 434.602C526.066 435.139 526.645 435.408 527.43 435.408C528.215 435.408 529.021 435.16 529.848 434.664C530.716 434.168 531.646 433.383 532.638 432.308C533.63 431.233 534.705 429.849 535.862 428.154L539.582 427.596C540.905 429.539 541.917 431.543 542.62 433.61C543.364 435.677 543.736 437.743 543.736 439.81C543.736 442.414 543.157 444.749 542 446.816C540.884 448.883 539.21 450.515 536.978 451.714C534.787 452.913 532.101 453.512 528.918 453.512C526.19 453.512 523.648 453.037 521.292 452.086C518.936 451.135 516.766 449.606 514.782 447.498C512.798 445.349 510.979 442.538 509.326 439.066C507.673 435.553 506.185 431.254 504.862 426.17L509.574 424.93C511.062 430.675 512.695 435.305 514.472 438.818C516.291 442.29 518.357 444.832 520.672 446.444C522.987 448.015 525.653 448.8 528.67 448.8C531.977 448.8 534.519 447.973 536.296 446.32C538.115 444.667 539.024 442.538 539.024 439.934C539.024 438.074 538.755 436.483 538.218 435.16C537.722 433.837 537.061 432.742 536.234 431.874L539.086 430.696C537.846 432.804 536.565 434.54 535.242 435.904C533.961 437.268 532.659 438.301 531.336 439.004C530.055 439.665 528.773 439.996 527.492 439.996C526.541 439.996 525.653 439.872 524.826 439.624C523.999 439.335 523.297 438.921 522.718 438.384C522.057 437.805 521.499 436.999 521.044 435.966C520.589 434.891 520.362 433.114 520.362 430.634V420.838H502.444V416.436H547.828ZM564.315 416.436V420.838H557.805V455H553.031V425.922C552.535 424.517 551.791 423.318 550.799 422.326C549.848 421.334 548.608 420.838 547.079 420.838H546.583V416.436H547.513C548.505 416.436 549.538 416.767 550.613 417.428C551.687 418.048 552.555 419.019 553.217 420.342C553.175 420.135 553.134 419.66 553.093 418.916C553.051 418.172 553.031 417.531 553.031 416.994V412.344H556.379L557.743 416.436H564.315ZM614.325 416.436V420.838H594.175V424.682V425.674V455H589.401C588.203 452.561 586.529 450.267 584.379 448.118C582.23 445.969 579.771 444.171 577.001 442.724C574.273 441.236 571.401 440.306 568.383 439.934L565.965 433.982C569.975 431.667 573.984 429.601 577.993 427.782C582.003 425.963 586.26 424.351 590.765 422.946L589.401 425.55V420.838H563.051V416.436H614.325ZM589.401 426.046L590.703 427.844C588.595 428.423 586.405 429.187 584.131 430.138C581.899 431.089 579.709 432.081 577.559 433.114C575.451 434.147 573.509 435.16 571.731 436.152C574.046 436.607 576.423 437.475 578.861 438.756C581.341 440.037 583.594 441.608 585.619 443.468C587.686 445.287 589.215 447.271 590.207 449.42L589.711 449.544C589.629 448.593 589.546 447.643 589.463 446.692C589.422 445.741 589.401 444.605 589.401 443.282V426.046ZM610.853 437.144C610.853 438.508 610.585 439.81 610.047 441.05C609.51 442.249 608.621 443.241 607.381 444.026C606.141 444.811 604.488 445.204 602.421 445.204C601.76 445.204 601.119 445.183 600.499 445.142C599.921 445.101 599.342 445.018 598.763 444.894L599.135 440.43C599.383 440.471 599.673 440.513 600.003 440.554C600.375 440.554 600.789 440.554 601.243 440.554C603.227 440.554 604.509 440.182 605.087 439.438C605.707 438.653 606.017 437.723 606.017 436.648C606.017 434.457 604.943 432.597 602.793 431.068C600.685 429.497 597.544 428.423 593.369 427.844L593.555 423.194C596.738 423.525 599.631 424.331 602.235 425.612C604.839 426.852 606.927 428.464 608.497 430.448C610.068 432.391 610.853 434.623 610.853 437.144ZM652.471 416.436V420.838H645.961V455H641.187V420.838H634.739V416.436H640.443C639.782 415.651 639.1 414.824 638.397 413.956C637.736 413.088 637.136 412.22 636.599 411.352C638.004 408.913 639.513 406.702 641.125 404.718C642.737 402.693 644.638 401.101 646.829 399.944C649.02 398.745 651.665 398.146 654.765 398.146C656.956 398.146 659.043 398.415 661.027 398.952C663.052 399.489 665.036 400.275 666.979 401.308C668.922 402.3 670.885 403.519 672.869 404.966C674.853 406.371 676.92 407.942 679.069 409.678L676.465 413.026C673.613 410.711 671.03 408.789 668.715 407.26C666.442 405.731 664.251 404.594 662.143 403.85C660.076 403.065 657.865 402.672 655.509 402.672C653.236 402.672 651.252 403.065 649.557 403.85C647.904 404.635 646.457 405.731 645.217 407.136C644.018 408.541 642.923 410.174 641.931 412.034C642.262 412.654 642.716 413.336 643.295 414.08C643.874 414.824 644.535 415.609 645.279 416.436H652.471ZM689.4 416.436V420.838H682.89V455H678.116C676.876 452.52 675.16 450.247 672.97 448.18C670.82 446.072 668.34 444.295 665.53 442.848C662.719 441.401 659.722 440.43 656.54 439.934L654.122 433.982C658.09 431.585 662.182 429.415 666.398 427.472C670.655 425.529 675.036 423.876 679.542 422.512L678.116 425.116V420.838H651.208V416.436H689.4ZM678.116 425.612L679.418 427.348C676.276 428.381 672.97 429.663 669.498 431.192C666.026 432.68 662.822 434.333 659.888 436.152C662.12 436.648 664.496 437.495 667.018 438.694C669.539 439.893 671.874 441.401 674.024 443.22C676.173 445.039 677.826 447.147 678.984 449.544H678.426C678.343 448.593 678.26 447.643 678.178 446.692C678.136 445.741 678.116 444.605 678.116 443.282V425.612ZM714.925 452.334C712.239 452.334 709.717 451.9 707.361 451.032C705.005 450.164 702.794 448.717 700.727 446.692C698.702 444.667 696.842 441.98 695.147 438.632C693.453 435.284 691.923 431.13 690.559 426.17L695.271 424.93C696.759 430.386 698.433 434.788 700.293 438.136C702.195 441.443 704.323 443.861 706.679 445.39C709.077 446.878 711.784 447.622 714.801 447.622C716.992 447.622 718.852 447.229 720.381 446.444C721.952 445.659 723.151 444.584 723.977 443.22C724.804 441.815 725.217 440.223 725.217 438.446C725.217 437.206 725.093 436.09 724.845 435.098C724.597 434.106 724.246 433.217 723.791 432.432C723.378 431.605 722.903 430.903 722.365 430.324L725.341 425.488C726.912 427.761 728.069 429.973 728.813 432.122C729.557 434.271 729.929 436.4 729.929 438.508C729.929 441.112 729.351 443.468 728.193 445.576C727.036 447.643 725.341 449.296 723.109 450.536C720.919 451.735 718.191 452.334 714.925 452.334ZM712.569 437.392C709.965 437.392 707.919 436.751 706.431 435.47C704.943 434.147 704.199 432.349 704.199 430.076C704.199 429.125 704.344 428.195 704.633 427.286C704.923 426.335 705.233 425.529 705.563 424.868L710.523 426.356C710.234 426.769 709.965 427.286 709.717 427.906C709.469 428.526 709.345 429.167 709.345 429.828C709.345 430.944 709.655 431.75 710.275 432.246C710.895 432.742 711.701 432.99 712.693 432.99C713.561 432.99 714.429 432.825 715.297 432.494C716.165 432.163 717.095 431.523 718.087 430.572C719.121 429.58 720.237 428.092 721.435 426.108L725.341 425.488L724.845 428.836C723.729 430.696 722.551 432.267 721.311 433.548C720.113 434.788 718.79 435.739 717.343 436.4C715.938 437.061 714.347 437.392 712.569 437.392ZM734.083 416.436V420.838H688.141V416.436H734.083ZM750.557 416.436V420.838H744.047V455H739.273V425.922C738.777 424.517 738.033 423.318 737.041 422.326C736.09 421.334 734.85 420.838 733.321 420.838H732.825V416.436H733.755C734.747 416.436 735.78 416.767 736.855 417.428C737.929 418.048 738.797 419.019 739.459 420.342C739.417 420.135 739.376 419.66 739.335 418.916C739.293 418.172 739.273 417.531 739.273 416.994V412.344H742.621L743.985 416.436H750.557ZM771.986 416.436V420.838H770.746C769.464 421.127 768.08 421.768 766.592 422.76C765.104 423.711 763.698 424.971 762.376 426.542C761.053 428.071 759.958 429.869 759.09 431.936C758.263 434.003 757.85 436.276 757.85 438.756C757.85 441.732 758.284 444.109 759.152 445.886C760.061 447.622 761.177 448.862 762.5 449.606C763.822 450.35 765.145 450.722 766.468 450.722C767.501 450.722 768.369 450.619 769.072 450.412C769.774 450.205 770.58 449.833 771.49 449.296L773.66 453.078C772.585 453.905 771.407 454.483 770.126 454.814C768.844 455.145 767.563 455.31 766.282 455.31C763.678 455.31 761.363 454.628 759.338 453.264C757.354 451.9 755.783 449.999 754.626 447.56C753.51 445.08 752.952 442.187 752.952 438.88C752.952 435.491 753.592 432.432 754.874 429.704C756.155 426.935 757.87 424.599 760.02 422.698C762.21 420.797 764.628 419.412 767.274 418.544L763.306 420.59C762.562 420.673 761.756 420.735 760.888 420.776C760.02 420.817 759.048 420.838 757.974 420.838H749.294V416.436H771.986ZM801.355 455V428.65L802.657 432.556C801.211 430.489 799.847 428.712 798.565 427.224C797.325 425.695 796.127 424.434 794.969 423.442C793.812 422.45 792.634 421.727 791.435 421.272C790.237 420.776 788.976 420.528 787.653 420.528C785.463 420.528 783.685 421.107 782.321 422.264C780.999 423.38 779.821 424.682 778.787 426.17L777.919 426.666C778.498 426.129 779.387 425.695 780.585 425.364C781.784 424.992 783.169 424.806 784.739 424.806C786.641 424.806 788.17 425.178 789.327 425.922C790.526 426.666 791.394 427.617 791.931 428.774C792.51 429.89 792.799 431.006 792.799 432.122C792.799 434.561 791.973 436.751 790.319 438.694C788.666 440.595 786.103 442.476 782.631 444.336L779.469 439.81C781.743 438.859 783.706 437.805 785.359 436.648C787.013 435.449 787.839 434.023 787.839 432.37C787.839 431.461 787.488 430.696 786.785 430.076C786.083 429.456 785.07 429.146 783.747 429.146C782.673 429.146 781.66 429.27 780.709 429.518C779.8 429.766 778.808 430.159 777.733 430.696L772.711 426.604C773.993 424.455 775.357 422.595 776.803 421.024C778.25 419.412 779.821 418.172 781.515 417.304C783.251 416.436 785.132 416.002 787.157 416.002C789.224 416.002 791.105 416.374 792.799 417.118C794.535 417.821 796.209 418.895 797.821 420.342C799.475 421.789 801.128 423.587 802.781 425.736L801.665 425.054C801.583 424.475 801.5 423.587 801.417 422.388C801.376 421.189 801.355 419.97 801.355 418.73V412.344H804.641L806.067 416.436H812.639V420.838H806.129V455H801.355ZM849.607 416.436V420.838H843.097V455H838.323C837.083 452.52 835.367 450.247 833.177 448.18C831.027 446.072 828.547 444.295 825.737 442.848C822.926 441.401 819.929 440.43 816.747 439.934L814.329 433.982C818.297 431.585 822.389 429.415 826.605 427.472C830.862 425.529 835.243 423.876 839.749 422.512L838.323 425.116V420.838H811.415V416.436H849.607ZM838.323 425.612L839.625 427.348C836.483 428.381 833.177 429.663 829.705 431.192C826.233 432.68 823.029 434.333 820.095 436.152C822.327 436.648 824.703 437.495 827.225 438.694C829.746 439.893 832.081 441.401 834.231 443.22C836.38 445.039 838.033 447.147 839.191 449.544H838.633C838.55 448.593 838.467 447.643 838.385 446.692C838.343 445.741 838.323 444.605 838.323 443.282V425.612ZM823.505 455.372C822.471 455.372 821.583 455.041 820.839 454.38C820.136 453.719 819.785 452.851 819.785 451.776C819.785 450.701 820.136 449.813 820.839 449.11C821.583 448.407 822.471 448.056 823.505 448.056C824.538 448.056 825.406 448.407 826.109 449.11C826.853 449.813 827.225 450.701 827.225 451.776C827.225 452.851 826.853 453.719 826.109 454.38C825.406 455.041 824.538 455.372 823.505 455.372ZM887.756 416.436V420.838H881.246V455H876.472V420.838H870.024V416.436H875.728C875.067 415.651 874.385 414.824 873.682 413.956C873.021 413.088 872.421 412.22 871.884 411.352C873.289 408.913 874.798 406.702 876.41 404.718C878.022 402.693 879.923 401.101 882.114 399.944C884.305 398.745 886.95 398.146 890.05 398.146C892.241 398.146 894.328 398.415 896.312 398.952C898.337 399.489 900.321 400.275 902.264 401.308C904.207 402.3 906.17 403.519 908.154 404.966C910.138 406.371 912.205 407.942 914.354 409.678L911.75 413.026C908.898 410.711 906.315 408.789 904 407.26C901.727 405.731 899.536 404.594 897.428 403.85C895.361 403.065 893.15 402.672 890.794 402.672C888.521 402.672 886.537 403.065 884.842 403.85C883.189 404.635 881.742 405.731 880.502 407.136C879.303 408.541 878.208 410.174 877.216 412.034C877.547 412.654 878.001 413.336 878.58 414.08C879.159 414.824 879.82 415.609 880.564 416.436H887.756ZM931.877 416.436V420.838H909.185V431.936C909.185 433.135 909.371 434.023 909.743 434.602C910.115 435.139 910.693 435.408 911.479 435.408C912.264 435.408 913.07 435.16 913.897 434.664C914.765 434.168 915.695 433.383 916.687 432.308C917.679 431.233 918.753 429.849 919.911 428.154L923.631 427.596C924.953 429.539 925.966 431.543 926.669 433.61C927.413 435.677 927.785 437.743 927.785 439.81C927.785 442.414 927.206 444.749 926.049 446.816C924.933 448.883 923.259 450.515 921.027 451.714C918.836 452.913 916.149 453.512 912.967 453.512C910.239 453.512 907.697 453.037 905.341 452.086C902.985 451.135 900.815 449.606 898.831 447.498C896.847 445.349 895.028 442.538 893.375 439.066C891.721 435.553 890.233 431.254 888.911 426.17L893.623 424.93C895.111 430.675 896.743 435.305 898.521 438.818C900.339 442.29 902.406 444.832 904.721 446.444C907.035 448.015 909.701 448.8 912.719 448.8C916.025 448.8 918.567 447.973 920.345 446.32C922.163 444.667 923.073 442.538 923.073 439.934C923.073 438.074 922.804 436.483 922.267 435.16C921.771 433.837 921.109 432.742 920.283 431.874L923.135 430.696C921.895 432.804 920.613 434.54 919.291 435.904C918.009 437.268 916.707 438.301 915.385 439.004C914.103 439.665 912.822 439.996 911.541 439.996C910.59 439.996 909.701 439.872 908.875 439.624C908.048 439.335 907.345 438.921 906.767 438.384C906.105 437.805 905.547 436.999 905.093 435.966C904.638 434.891 904.411 433.114 904.411 430.634V420.838H886.493V416.436H931.877ZM948.363 416.436V420.838H941.853V455H937.079V420.838H930.631V416.436H936.335C935.674 415.651 934.992 414.803 934.289 413.894C933.628 412.985 933.029 412.096 932.491 411.228C934.145 408.789 935.922 406.578 937.823 404.594C939.766 402.61 942.019 401.039 944.581 399.882C947.185 398.725 950.285 398.146 953.881 398.146C956.568 398.146 959.089 398.415 961.445 398.952C963.843 399.448 966.178 400.192 968.451 401.184C970.725 402.176 973.019 403.354 975.333 404.718C977.648 406.082 980.066 407.632 982.587 409.368L980.107 412.84C977.462 411.104 975.065 409.595 972.915 408.314C970.807 407.033 968.782 405.979 966.839 405.152C964.897 404.325 962.933 403.705 960.949 403.292C959.007 402.879 956.878 402.672 954.563 402.672C951.711 402.672 949.273 403.085 947.247 403.912C945.222 404.739 943.465 405.855 941.977 407.26C940.489 408.665 939.125 410.257 937.885 412.034C938.175 412.654 938.609 413.336 939.187 414.08C939.766 414.824 940.427 415.609 941.171 416.436H948.363ZM972.582 451.094C970.144 451.094 967.808 450.66 965.576 449.792C963.344 448.924 961.236 447.539 959.252 445.638C957.31 443.695 955.512 441.133 953.858 437.95C952.246 434.726 950.8 430.799 949.518 426.17L954.23 424.93C955.636 430.014 957.206 434.147 958.942 437.33C960.678 440.471 962.683 442.765 964.956 444.212C967.23 445.659 969.834 446.382 972.768 446.382C975.827 446.382 978.142 445.721 979.712 444.398C981.283 443.075 982.068 441.071 982.068 438.384C982.068 437.103 981.903 436.007 981.572 435.098C981.242 434.189 980.911 433.424 980.58 432.804H984.3C983.143 434.003 981.924 435.077 980.642 436.028C979.402 436.979 978.059 437.723 976.612 438.26C975.207 438.797 973.657 439.066 971.962 439.066C970.35 439.066 968.924 438.756 967.684 438.136C966.444 437.516 965.473 436.627 964.77 435.47C964.068 434.271 963.716 432.845 963.716 431.192C963.716 429.373 964.357 427.534 965.638 425.674C966.92 423.773 969.09 422.119 972.148 420.714C971.322 420.755 970.371 420.797 969.296 420.838C968.263 420.838 967.23 420.838 966.196 420.838H947.1V416.436H1005.19V420.838H985.788C984.796 420.838 983.908 420.817 983.122 420.776C982.337 420.735 981.593 420.693 980.89 420.652C977.418 422.223 974.794 423.649 973.016 424.93C971.239 426.211 970.04 427.389 969.42 428.464C968.8 429.497 968.49 430.489 968.49 431.44C968.49 432.597 968.821 433.424 969.482 433.92C970.144 434.416 970.888 434.664 971.714 434.664C973.285 434.664 974.69 434.313 975.93 433.61C977.17 432.866 978.576 431.812 980.146 430.448L985.478 432.37C985.85 433.197 986.16 434.23 986.408 435.47C986.656 436.669 986.78 437.929 986.78 439.252C986.78 441.319 986.305 443.261 985.354 445.08C984.445 446.857 982.936 448.304 980.828 449.42C978.762 450.536 976.013 451.094 972.582 451.094ZM997.382 442.29C997.382 444.315 997.548 446.258 997.878 448.118C998.209 449.978 998.767 452.065 999.552 454.38L994.902 455.434C994.158 453.037 993.58 450.701 993.166 448.428C992.753 446.113 992.546 443.716 992.546 441.236C992.546 439.045 992.732 437.082 993.104 435.346C993.518 433.61 993.993 432.143 994.53 430.944C991.389 430.903 988.702 430.51 986.47 429.766C984.28 428.981 982.44 427.885 980.952 426.48C979.464 425.033 978.204 423.318 977.17 421.334L981.882 420.342C982.544 421.541 983.37 422.615 984.362 423.566C985.396 424.475 986.718 425.199 988.33 425.736C989.942 426.273 991.926 426.542 994.282 426.542C994.861 426.542 995.419 426.521 995.956 426.48C996.494 426.439 997.072 426.397 997.692 426.356L1000.11 430.696C999.118 432.556 998.416 434.375 998.002 436.152C997.589 437.929 997.382 439.975 997.382 442.29ZM1040.35 416.436V420.838H1015.24V442.29C1015.24 444.109 1015.34 445.39 1015.55 446.134C1015.75 446.878 1016 447.415 1016.29 447.746C1017.04 448.614 1018.17 449.048 1019.7 449.048C1021.31 449.048 1022.84 448.655 1024.29 447.87C1025.74 447.085 1027 446.113 1028.07 444.956C1029.27 443.675 1030.18 442.311 1030.8 440.864C1031.46 439.417 1031.79 437.95 1031.79 436.462C1031.79 435.139 1031.46 434.147 1030.8 433.486C1030.14 432.783 1029.04 432.432 1027.51 432.432C1027.02 432.432 1026.48 432.473 1025.9 432.556C1025.32 432.639 1024.77 432.742 1024.23 432.866L1023.55 428.464C1024.33 428.257 1025.14 428.092 1025.96 427.968C1026.83 427.844 1027.74 427.782 1028.69 427.782C1030.22 427.782 1031.59 428.071 1032.78 428.65C1033.98 429.229 1034.91 430.138 1035.57 431.378C1036.28 432.618 1036.63 434.23 1036.63 436.214C1036.63 438.653 1036.03 441.029 1034.83 443.344C1033.63 445.617 1032.12 447.539 1030.3 449.11C1028.77 450.433 1027.1 451.507 1025.28 452.334C1023.5 453.119 1021.54 453.512 1019.39 453.512C1017.86 453.512 1016.54 453.285 1015.42 452.83C1014.35 452.375 1013.46 451.797 1012.76 451.094C1012.1 450.309 1011.54 449.358 1011.08 448.242C1010.67 447.126 1010.46 445.431 1010.46 443.158V420.838H1003.95V416.436H1040.35ZM1029.06 416.436C1029.02 414.741 1028.61 413.522 1027.82 412.778C1027.08 412.034 1025.84 411.662 1024.1 411.662H1018.28C1015.59 411.662 1013.5 411.476 1012.01 411.104C1010.57 410.732 1009.33 410.153 1008.29 409.368C1007.18 408.541 1006.33 407.487 1005.75 406.206C1005.21 404.883 1004.95 403.395 1004.95 401.742C1004.95 401.205 1004.97 400.688 1005.01 400.192C1005.09 399.655 1005.17 399.076 1005.26 398.456L1009.84 398.766C1009.76 399.221 1009.7 399.634 1009.66 400.006C1009.62 400.337 1009.6 400.709 1009.6 401.122C1009.6 402.031 1009.68 402.837 1009.84 403.54C1010.05 404.243 1010.36 404.821 1010.77 405.276C1011.35 405.937 1012.18 406.433 1013.25 406.764C1014.37 407.053 1015.94 407.198 1017.97 407.198H1022.8C1024.99 407.198 1026.73 407.363 1028.01 407.694C1029.29 408.025 1030.39 408.624 1031.3 409.492C1032 410.153 1032.54 411.063 1032.91 412.22C1033.28 413.336 1033.49 414.741 1033.53 416.436H1029.06ZM1056.86 416.436V420.838H1050.35V455H1045.58V425.922C1045.08 424.517 1044.34 423.318 1043.35 422.326C1042.4 421.334 1041.16 420.838 1039.63 420.838H1039.13V416.436H1040.06C1041.05 416.436 1042.09 416.767 1043.16 417.428C1044.24 418.048 1045.1 419.019 1045.77 420.342C1045.72 420.135 1045.68 419.66 1045.64 418.916C1045.6 418.172 1045.58 417.531 1045.58 416.994V412.344H1048.93L1050.29 416.436H1056.86ZM1102.16 416.436V420.838H1095.65V455H1090.88V434.23L1091.25 435.842C1090.34 434.519 1089.37 433.465 1088.34 432.68C1087.34 431.895 1086.25 431.502 1085.05 431.502C1084.43 431.502 1083.79 431.626 1083.13 431.874C1082.51 432.081 1081.97 432.494 1081.52 433.114C1081.1 433.734 1080.9 434.685 1080.9 435.966C1080.9 436.421 1080.9 436.834 1080.9 437.206C1080.94 437.537 1080.98 437.867 1081.02 438.198L1076.99 438.508C1076.82 436.813 1076.37 435.387 1075.63 434.23C1074.88 433.031 1073.97 432.122 1072.9 431.502C1071.82 430.882 1070.67 430.572 1069.43 430.572C1068.31 430.572 1067.36 430.799 1066.57 431.254C1065.79 431.667 1065.19 432.246 1064.78 432.99C1064.36 433.693 1064.16 434.499 1064.16 435.408C1064.16 437.061 1064.76 438.467 1065.95 439.624C1067.19 440.781 1068.93 441.753 1071.16 442.538L1069.49 447.126C1067.5 446.506 1065.73 445.659 1064.16 444.584C1062.59 443.509 1061.35 442.187 1060.44 440.616C1059.53 439.045 1059.07 437.227 1059.07 435.16C1059.07 433.3 1059.53 431.709 1060.44 430.386C1061.35 429.022 1062.56 427.968 1064.09 427.224C1065.62 426.48 1067.3 426.108 1069.12 426.108C1071.31 426.108 1073.19 426.521 1074.76 427.348C1076.33 428.133 1077.78 429.415 1079.1 431.192L1078.17 431.254C1078.58 429.89 1079.37 428.857 1080.52 428.154C1081.72 427.41 1082.96 427.038 1084.24 427.038C1085.73 427.038 1087.01 427.327 1088.09 427.906C1089.16 428.485 1090.34 429.311 1091.62 430.386L1091.06 431.316C1091.02 430.448 1090.98 429.58 1090.94 428.712C1090.9 427.844 1090.88 426.955 1090.88 426.046V420.838H1055.6V416.436H1102.16ZM1145.32 416.436V420.838H1144.08C1142.8 421.127 1141.41 421.768 1139.92 422.76C1138.44 423.711 1137.03 424.971 1135.71 426.542C1134.38 428.071 1133.29 429.869 1132.42 431.936C1131.59 434.003 1131.18 436.276 1131.18 438.756C1131.18 441.732 1131.62 444.109 1132.48 445.886C1133.39 447.622 1134.51 448.862 1135.83 449.606C1137.15 450.35 1138.48 450.722 1139.8 450.722C1140.83 450.722 1141.7 450.619 1142.4 450.412C1143.11 450.205 1143.91 449.833 1144.82 449.296L1146.99 453.078C1145.92 453.905 1144.74 454.483 1143.46 454.814C1142.18 455.145 1140.87 455.31 1139.55 455.31C1136.95 455.31 1134.65 454.628 1132.67 453.264C1130.69 451.9 1129.11 449.999 1127.96 447.56C1126.84 445.08 1126.28 442.187 1126.28 438.88C1126.28 435.697 1126.78 432.866 1127.77 430.386C1128.8 427.865 1130.13 425.674 1131.74 423.814C1133.39 421.954 1135.17 420.425 1137.07 419.226C1138.97 417.986 1140.81 417.056 1142.59 416.436H1145.32ZM1190.62 416.436V420.838H1184.11V455H1179.34V434.23L1179.71 435.842C1178.8 434.519 1177.83 433.465 1176.8 432.68C1175.8 431.895 1174.71 431.502 1173.51 431.502C1172.89 431.502 1172.25 431.626 1171.59 431.874C1170.97 432.081 1170.43 432.494 1169.98 433.114C1169.56 433.734 1169.36 434.685 1169.36 435.966C1169.36 436.421 1169.36 436.834 1169.36 437.206C1169.4 437.537 1169.44 437.867 1169.48 438.198L1165.45 438.508C1165.28 436.813 1164.83 435.387 1164.09 434.23C1163.34 433.031 1162.43 432.122 1161.36 431.502C1160.28 430.882 1159.13 430.572 1157.89 430.572C1156.77 430.572 1155.82 430.799 1155.03 431.254C1154.25 431.667 1153.65 432.246 1153.24 432.99C1152.82 433.693 1152.62 434.499 1152.62 435.408C1152.62 437.061 1153.21 438.467 1154.41 439.624C1155.65 440.781 1157.39 441.753 1159.62 442.538L1157.95 447.126C1155.96 446.506 1154.19 445.659 1152.62 444.584C1151.04 443.509 1149.8 442.187 1148.9 440.616C1147.99 439.045 1147.53 437.227 1147.53 435.16C1147.53 433.3 1147.99 431.709 1148.9 430.386C1149.8 429.022 1151.02 427.968 1152.55 427.224C1154.08 426.48 1155.76 426.108 1157.58 426.108C1159.77 426.108 1161.65 426.521 1163.22 427.348C1164.79 428.133 1166.23 429.415 1167.56 431.192L1166.63 431.254C1167.04 429.89 1167.83 428.857 1168.98 428.154C1170.18 427.41 1171.42 427.038 1172.7 427.038C1174.19 427.038 1175.47 427.327 1176.55 427.906C1177.62 428.485 1178.8 429.311 1180.08 430.386L1179.52 431.316C1179.48 430.448 1179.44 429.58 1179.4 428.712C1179.36 427.844 1179.34 426.955 1179.34 426.046V420.838H1144.06V416.436H1190.62ZM1228.1 416.436V420.838H1221.59V455H1216.81V439.934L1217.8 443.406C1216.44 441.505 1214.95 439.789 1213.34 438.26C1211.73 436.731 1210.08 435.511 1208.38 434.602C1206.69 433.693 1205.03 433.238 1203.42 433.238C1201.89 433.238 1200.59 433.651 1199.51 434.478C1198.48 435.263 1197.96 436.441 1197.96 438.012C1197.96 439.252 1198.4 440.327 1199.27 441.236C1200.13 442.104 1201.48 442.889 1203.3 443.592L1200.94 447.994C1198.42 446.961 1196.44 445.576 1194.99 443.84C1193.58 442.063 1192.88 440.058 1192.88 437.826C1192.88 435.801 1193.36 434.127 1194.31 432.804C1195.3 431.44 1196.54 430.427 1198.03 429.766C1199.56 429.105 1201.11 428.774 1202.68 428.774C1204.83 428.774 1206.79 429.146 1208.57 429.89C1210.34 430.634 1212 431.647 1213.53 432.928C1215.1 434.209 1216.59 435.697 1217.99 437.392L1217.12 437.64C1217 436.689 1216.92 435.759 1216.87 434.85C1216.83 433.899 1216.81 432.949 1216.81 431.998V420.838H1189.41V416.436H1228.1ZM1249.52 416.436V420.838H1248.28C1247 421.127 1245.61 421.768 1244.12 422.76C1242.64 423.711 1241.23 424.971 1239.91 426.542C1238.59 428.071 1237.49 429.869 1236.62 431.936C1235.8 434.003 1235.38 436.276 1235.38 438.756C1235.38 441.732 1235.82 444.109 1236.68 445.886C1237.59 447.622 1238.71 448.862 1240.03 449.606C1241.36 450.35 1242.68 450.722 1244 450.722C1245.03 450.722 1245.9 450.619 1246.6 450.412C1247.31 450.205 1248.11 449.833 1249.02 449.296L1251.19 453.078C1250.12 453.905 1248.94 454.483 1247.66 454.814C1246.38 455.145 1245.1 455.31 1243.81 455.31C1241.21 455.31 1238.9 454.628 1236.87 453.264C1234.89 451.9 1233.32 449.999 1232.16 447.56C1231.04 445.08 1230.48 442.187 1230.48 438.88C1230.48 435.491 1231.13 432.432 1232.41 429.704C1233.69 426.935 1235.4 424.599 1237.55 422.698C1239.74 420.797 1242.16 419.412 1244.81 418.544L1240.84 420.59C1240.09 420.673 1239.29 420.735 1238.42 420.776C1237.55 420.817 1236.58 420.838 1235.51 420.838H1226.83V416.436H1249.52ZM1286.89 416.436V420.838H1258.74V439.314L1257.87 438.074C1259.52 436.214 1261.4 434.478 1263.51 432.866C1265.62 431.254 1267.91 429.787 1270.39 428.464C1272.87 427.1 1275.52 425.901 1278.33 424.868L1282.36 428.836C1281.58 430.283 1280.93 431.688 1280.44 433.052C1279.98 434.416 1279.63 435.842 1279.38 437.33C1279.18 438.818 1279.07 440.471 1279.07 442.29C1279.07 444.315 1279.24 446.258 1279.57 448.118C1279.9 449.978 1280.46 452.065 1281.24 454.38L1276.59 455.434C1275.85 453.037 1275.27 450.701 1274.86 448.428C1274.45 446.113 1274.24 443.716 1274.24 441.236C1274.24 439.541 1274.36 437.95 1274.61 436.462C1274.86 434.974 1275.19 433.651 1275.6 432.494C1276.06 431.295 1276.51 430.324 1276.97 429.58L1277.71 429.89C1275.35 430.841 1273.06 431.998 1270.83 433.362C1268.6 434.726 1266.41 436.297 1264.26 438.074C1262.11 439.851 1259.9 441.877 1257.62 444.15L1253.96 441.67V420.838H1248.26V416.436H1286.89ZM1324.31 416.436V420.838H1317.8V455H1313.02V439.934L1314.01 443.406C1312.65 441.505 1311.16 439.789 1309.55 438.26C1307.94 436.731 1306.28 435.511 1304.59 434.602C1302.9 433.693 1301.24 433.238 1299.63 433.238C1298.1 433.238 1296.8 433.651 1295.72 434.478C1294.69 435.263 1294.17 436.441 1294.17 438.012C1294.17 439.252 1294.61 440.327 1295.48 441.236C1296.34 442.104 1297.69 442.889 1299.51 443.592L1297.15 447.994C1294.63 446.961 1292.64 445.576 1291.2 443.84C1289.79 442.063 1289.09 440.058 1289.09 437.826C1289.09 435.801 1289.57 434.127 1290.52 432.804C1291.51 431.44 1292.75 430.427 1294.24 429.766C1295.77 429.105 1297.32 428.774 1298.89 428.774C1301.04 428.774 1303 429.146 1304.78 429.89C1306.55 430.634 1308.21 431.647 1309.74 432.928C1311.31 434.209 1312.79 435.697 1314.2 437.392L1313.33 437.64C1313.21 436.689 1313.13 435.759 1313.08 434.85C1313.04 433.899 1313.02 432.949 1313.02 431.998V420.838H1285.62V416.436H1324.31Z" fill="#F6921E"/>
<path d="M783.268 141H512.125C506.911 141 503 143.791 503 147.512V162.395C503 166.116 506.911 168.907 512.125 168.907H714.179V248.907C708.964 243.326 702.446 237.744 694.625 232.163C671.161 214.488 645.089 206.116 619.018 206.116C598.161 206.116 579.911 213.558 565.571 227.512C553.839 238.674 547.321 252.628 547.321 264.721C547.321 277.744 549.929 293.558 564.268 308.442C581.214 326.116 607.286 331.698 630.75 331.698C662.036 331.698 688.107 315.884 688.107 296.349C688.107 284.256 680.286 274.953 664.643 269.372L650.304 263.791V279.605C649 284.256 637.268 290.767 625.536 290.767C615.107 290.767 604.679 287.977 599.464 283.326C595.554 279.605 592.946 274.953 594.25 270.302C594.25 264.721 596.857 260.07 603.375 254.488C609.893 248.907 616.411 246.116 626.839 246.116C654.214 246.116 676.375 255.419 694.625 274.023C708.964 289.837 716.786 305.651 716.786 322.395V362.395L757.197 380.07C758.5 381 759.804 381 761.107 381C766.321 381 770.232 378.209 770.232 374.488V168.907H785.875C791.089 168.907 795 166.116 795 162.395V147.512C791.089 143.791 787.179 141 783.268 141Z" fill="#EC1C24"/>
<path d="M1324.57 140.723H981.663C976.447 140.723 972.536 143.515 972.536 147.238V174.231C939.94 149.1 909.952 137 882.572 137C856.495 137 835.634 141.654 817.38 150.962C799.127 161.2 790 173.3 790 187.262C790 230.077 857.799 230.077 873.445 223.562C876.053 222.631 879.964 220.769 885.179 220.769C898.218 220.769 903.433 228.215 903.433 234.731C903.433 244.969 883.876 253.346 860.407 253.346C847.368 253.346 838.242 250.554 833.026 244.969L822.596 233.8L814.773 246.831C813.469 249.623 810.861 253.346 810.861 258C810.861 268.238 817.38 277.546 830.419 284.992C843.457 292.438 857.799 296.162 873.445 296.162C899.521 296.162 920.383 289.646 934.725 276.615C946.459 266.377 951.675 253.346 951.675 239.385C951.675 231.008 947.763 223.562 938.636 214.254C928.206 203.085 915.167 197.5 899.521 197.5C894.306 197.5 887.787 198.431 879.964 200.292C877.356 199.362 873.445 200.292 872.141 200.292C869.533 200.292 865.622 199.362 863.014 196.569C860.407 194.708 857.799 191.915 857.799 187.262C857.799 177.023 872.141 165.854 895.61 165.854H896.914C912.56 165.854 928.206 171.438 943.852 182.608C955.586 190.985 966.017 199.362 972.536 208.669V361.315L1012.95 378.069C1014.26 379 1015.56 379 1016.87 379C1022.08 379 1025.99 376.208 1025.99 372.485V167.715H1087.27V299.885L1135.51 313.846H1138.12C1142.03 313.846 1145.94 311.054 1147.25 308.262V307.331C1155.07 268.238 1179.84 241.246 1220.26 224.492V231.938C1220.26 237.523 1220.26 251.485 1221.57 259.862C1221.57 264.515 1221.57 267.308 1222.87 270.1C1222.87 284.992 1225.48 309.192 1233.3 325.946C1246.34 358.523 1269.81 365.969 1286.76 366.9H1288.06C1298.49 366.9 1305.01 365.038 1310.23 361.315C1312.83 359.454 1316.75 354.8 1316.75 349.215C1316.75 342.7 1315.44 338.046 1312.83 335.254L1308.92 330.6L1301.1 331.531C1291.97 333.392 1289.37 333.392 1289.37 332.462H1288.06C1285.45 332.462 1285.45 332.462 1284.15 331.531C1281.54 330.6 1276.33 326.877 1272.42 316.638C1269.81 309.192 1268.5 298.023 1268.5 292.438C1268.5 249.623 1281.54 217.046 1299.8 209.6H1301.1C1303.71 208.669 1306.32 206.808 1306.32 204.015C1306.32 203.085 1306.32 202.154 1305.01 201.223V200.292C1295.89 187.262 1276.33 177.954 1248.95 172.369H1243.73C1222.87 175.162 1196.79 185.4 1164.2 204.946C1156.38 209.6 1148.55 215.185 1140.73 219.838V166.785H1325.87C1331.09 166.785 1335 163.992 1335 160.269V145.377C1333.7 143.515 1329.78 140.723 1324.57 140.723Z" fill="#EC1C24"/>
<path d="M415.297 263.992C415.297 269.96 415.297 275.075 414.444 281.042C412.739 305.764 405.919 328.782 396.542 350.094C392.279 358.619 388.017 367.144 382.902 374.816C346.245 432.785 281.456 472 207.289 472C175.747 472 145.91 465.18 118.63 452.393C48.726 419.146 0.134033 347.536 0.134033 263.992C0.134033 183.006 47.021 112.249 115.22 78.1495C110.105 84.9695 104.99 92.6419 100.728 100.314C100.728 101.167 99.8754 101.167 99.8754 102.019C97.3179 104.577 94.7604 106.282 92.203 108.839C88.793 111.397 86.2355 114.807 82.8256 118.217C81.9731 119.069 81.1206 119.922 81.1206 120.774C80.2681 121.627 79.4156 122.479 79.4156 123.332L76.0057 126.741C73.4482 129.299 71.7432 131.856 70.0382 134.414C61.5133 145.496 54.6934 158.284 48.726 171.071C47.8735 172.776 47.8735 173.628 47.021 175.333C46.1685 177.038 46.1685 178.743 45.316 179.596C42.7585 181.301 42.7585 182.153 42.7585 183.006L40.2011 190.678C39.3486 192.383 39.3486 194.088 38.4961 195.793C38.4961 196.646 37.6436 197.498 37.6436 198.351C37.6436 200.056 36.7911 201.761 36.7911 203.466C35.9386 207.728 34.2336 212.843 34.2336 217.958C34.2336 219.663 34.2336 220.515 33.3811 222.22V243.533C33.3811 299.797 58.9558 350.094 99.8754 383.341C131.418 408.916 171.485 424.261 214.962 424.261C254.176 424.261 290.833 411.473 320.67 390.161C342.835 374.816 360.737 354.356 373.525 330.487C375.23 327.077 376.935 324.519 378.64 321.109C388.87 298.944 394.837 275.075 395.689 249.5V243.533C395.689 237.565 395.689 231.598 394.837 225.63L395.689 226.483C398.247 229.04 400.804 231.598 404.214 233.303C406.772 229.04 409.329 224.778 412.739 221.368C414.444 229.04 415.297 237.565 416.149 245.238C414.444 252.058 415.297 258.025 415.297 263.992Z" fill="#EC1C24"/>
<path d="M394.837 243.533V249.5C394.837 286.157 379.492 316.847 377.787 321.109C376.082 324.519 374.377 327.077 372.672 330.487C359.885 354.356 341.13 374.816 319.818 390.161C289.981 411.473 253.324 424.26 214.109 424.26C170.632 424.26 130.565 408.916 99.023 383.341C58.1035 350.094 32.5288 299.797 32.5288 243.533V222.22C32.5288 220.515 32.5288 219.663 33.3813 217.958C34.2338 212.843 35.9388 207.728 36.7913 202.613C36.7913 200.908 37.6437 199.203 37.6437 197.498C37.6437 196.646 38.4962 195.793 38.4962 194.941C39.3487 193.236 39.3487 191.531 40.2012 189.826C41.0537 187.268 41.9062 185.563 42.7587 183.006C42.7587 182.153 43.6112 181.301 43.6112 180.448C44.4637 178.743 44.4637 177.038 45.3162 176.186C46.1687 174.481 46.1686 173.628 47.0211 171.923C52.9886 158.284 59.8085 146.349 68.3334 135.266C70.0384 132.709 72.5958 130.151 74.3008 127.594C75.1533 126.741 76.0058 125.036 77.7108 124.184C78.5633 123.331 78.5633 122.479 79.4158 121.626C80.2683 120.774 81.1207 119.922 81.1207 119.069C83.6782 115.659 87.0882 113.102 90.4981 109.692C93.0556 107.134 95.6131 104.577 98.1705 102.872C98.1705 103.724 97.3181 104.577 97.3181 104.577C97.3181 105.429 96.4656 106.282 96.4656 107.134C86.2357 128.446 79.4158 153.169 76.8583 180.448C76.0058 187.268 76.0058 194.941 76.0058 202.613C76.0058 297.239 131.418 373.964 200.469 373.964H208.142C218.372 373.964 227.749 372.259 237.126 369.701C284.013 356.914 318.113 314.289 318.113 263.992V260.582C317.261 230.745 304.473 203.466 284.013 184.711C298.506 184.711 312.146 187.268 324.933 190.678C350.508 197.498 373.525 209.433 393.132 224.778L393.985 225.63C393.985 231.598 394.837 237.565 394.837 243.533Z" fill="#F6921E"/>
<path d="M394.837 243.533V249.5C394.837 288.715 377.787 321.109 377.787 321.962C376.082 325.372 374.377 327.929 372.672 331.339C359.885 355.209 341.13 375.669 319.818 391.866C289.128 414.031 251.619 425.965 213.257 425.965C171.485 425.965 130.565 411.473 98.1705 385.046C55.546 350.094 31.6763 298.944 31.6763 244.385C31.6763 189.826 56.3985 137.824 99.023 102.872L100.728 101.167C100.728 102.019 99.8755 102.019 99.8755 102.872C99.8755 103.724 99.023 104.577 99.023 104.577C57.251 138.676 34.2337 189.826 34.2337 243.533C34.2337 298.092 58.1035 348.389 100.728 383.341C131.418 409.768 171.485 424.261 213.257 424.261C251.619 424.261 287.423 412.326 318.965 390.161C340.278 374.816 359.033 353.504 371.82 330.487C373.525 327.077 375.23 324.519 376.935 321.109C376.935 321.109 394.837 287.862 393.985 249.5V243.533C393.985 237.565 393.985 231.598 393.132 226.483V225.63L393.985 226.483L394.837 227.335V243.533Z" fill="#F6921E"/>
<path d="M345.392 131.004C345.392 131.004 197.059 102.872 128.007 231.598C128.007 231.598 139.942 142.939 245.651 102.019L224.339 62.8046C224.339 62.8046 266.963 24.4426 341.13 34.6725L345.392 131.004Z" fill="#EC1C24"/>
<path d="M162.107 199.203C162.107 199.203 220.929 121.626 356.475 142.086L354.77 96.9041C354.77 96.9041 411.034 95.1991 457.069 134.414L400.804 219.663C400.804 219.663 362.442 174.481 282.308 173.628C249.061 172.776 208.994 177.038 162.107 199.203Z" fill="#F6921E"/>
<path d="M193.649 229.04C193.649 229.04 180.862 231.598 181.714 225.63C181.714 223.073 183.419 222.22 184.272 223.073C184.272 222.22 181.714 218.81 187.682 217.105C189.387 214.548 191.092 211.99 191.944 210.285C192.797 208.58 193.649 206.023 198.764 207.728C203.879 208.58 208.994 213.695 209.847 215.4C212.404 215.4 215.814 216.253 214.962 216.253L213.257 217.958C213.257 217.958 214.962 218.81 209.847 218.81C209.847 219.663 210.699 220.515 211.552 220.515C212.404 221.368 211.552 221.368 211.552 222.22C211.552 222.22 212.404 224.778 209.847 223.925C207.289 223.073 207.289 222.22 206.437 222.22C205.584 222.22 203.879 222.22 203.879 223.073C203.879 223.925 206.437 225.63 203.879 225.63C203.027 226.483 204.732 227.335 203.879 227.335C203.027 228.188 197.059 232.45 194.502 233.303C191.944 233.303 191.092 232.45 191.092 231.598C191.092 230.745 192.797 229.893 194.502 229.893C193.649 229.893 194.502 229.04 193.649 229.04Z" fill="#EC1C24"/>
<path d="M192.797 242.68C191.944 242.68 187.682 240.123 190.239 239.27C191.944 237.565 200.469 232.45 202.174 231.598C203.879 230.745 206.437 233.303 203.879 235.008C201.322 237.565 192.797 242.68 192.797 242.68Z" fill="#EC1C24"/>
<path d="M205.584 236.712C205.584 235.007 207.289 229.893 207.289 229.04C207.289 228.188 211.552 227.335 210.699 232.45C208.994 236.712 205.584 238.417 205.584 236.712Z" fill="#EC1C24"/>
<path d="M211.552 226.483C211.552 226.483 235.422 225.63 237.127 226.483C238.831 227.335 247.356 240.123 244.799 251.205C243.094 262.287 239.684 264.845 224.339 266.55C224.339 263.14 223.487 253.762 221.782 251.205C220.077 248.647 214.962 242.68 213.257 242.68C213.257 245.237 212.404 252.91 212.404 252.91C212.404 252.91 204.732 253.762 203.879 252.057V240.122C203.879 240.122 210.699 234.155 211.552 232.45C212.404 233.303 213.257 236.713 220.929 235.86C220.929 236.713 211.552 237.565 211.552 226.483Z" fill="#EC1C24"/>
<path d="M202.174 237.565C202.174 237.565 194.502 243.532 192.797 245.237C191.944 246.942 191.092 253.762 200.469 253.762C202.174 249.5 202.174 237.565 202.174 237.565Z" fill="#EC1C24"/>
<path d="M184.272 246.942C181.715 246.942 180.01 246.09 180.01 244.385C180.01 242.68 183.419 240.123 185.977 240.975C187.682 241.827 191.944 242.68 191.944 250.352C193.649 252.057 197.912 255.467 203.879 255.467C209.847 255.467 213.257 255.467 213.257 257.172V268.255C213.257 268.255 206.437 268.255 189.387 256.32C187.682 254.615 186.829 252.91 186.829 250.352C186.829 247.795 185.124 246.942 184.272 246.942Z" fill="#EC1C24"/>
<path d="M179.157 247.795C176.599 247.795 168.074 254.615 174.042 257.172L177.452 253.762C177.452 253.762 175.747 258.025 179.157 258.877C182.567 259.73 180.862 257.172 182.567 257.172C183.419 258.877 183.419 259.73 185.124 259.73C186.829 259.73 186.829 254.615 185.124 252.057C184.272 249.5 182.567 247.795 179.157 247.795Z" fill="#EC1C24"/>
<path d="M214.961 248.648V270.812C214.961 270.812 221.781 268.255 222.634 266.55C222.634 263.14 220.929 248.648 214.961 248.648Z" fill="#EC1C24"/>
<path d="M197.059 263.14C197.059 263.14 205.584 269.107 210.699 270.812C209.847 271.665 206.437 276.78 204.732 275.927C203.879 275.927 197.912 267.402 197.059 263.14Z" fill="#EC1C24"/>
<path d="M155.287 271.665H167.222V275.927H156.14L155.287 271.665Z" fill="#EC1C24"/>
<path d="M282.308 269.107H233.716L241.389 275.075H282.308V269.107Z" fill="#EC1C24"/>
<path d="M224.339 269.107C225.192 268.255 231.159 272.517 229.454 273.37C227.749 274.222 212.404 280.19 211.552 280.19C209.847 279.337 210.699 275.927 212.404 275.075C213.257 274.222 221.782 271.665 224.339 269.107Z" fill="#EC1C24"/>
<path d="M207.289 279.337C205.584 278.485 196.207 287.862 200.469 288.714C204.732 289.567 214.962 291.272 217.519 292.977C220.077 292.124 221.782 289.567 221.782 288.714C223.486 288.714 226.044 291.272 228.601 290.419C231.159 289.567 243.094 281.042 243.094 279.337C240.536 277.632 235.421 274.222 232.864 274.222C231.159 273.37 215.814 282.747 207.289 279.337Z" fill="#EC1C24"/>
<path d="M202.174 291.272C203.027 291.272 215.814 295.534 218.372 295.534C221.782 294.682 221.782 292.124 223.487 292.124C225.192 292.124 226.044 293.829 228.602 292.124C231.159 290.419 237.127 285.305 237.979 284.452C237.979 286.157 237.979 291.272 226.897 296.387C215.814 301.502 189.387 309.174 188.535 312.584C189.387 312.584 192.797 311.732 195.354 310.879C197.059 311.732 199.617 315.142 198.764 321.109C197.912 327.077 193.65 336.454 193.65 339.011V355.209C193.65 356.061 196.207 363.734 192.797 362.881C189.387 362.029 187.682 362.029 185.977 362.881C184.272 362.881 181.715 365.439 180.01 364.586C177.452 364.586 174.042 362.881 174.042 362.029C174.042 361.176 176.6 361.176 179.157 360.324C181.715 359.471 182.567 356.914 186.83 355.209C186.83 352.651 185.125 331.339 185.125 327.077C185.125 322.814 183.42 313.437 185.977 310.027C187.682 304.912 197.912 290.419 202.174 291.272Z" fill="#EC1C24"/>
<path d="M218.372 303.207C218.372 304.912 226.044 323.667 229.454 323.667C232.864 323.667 264.406 316.847 270.373 319.404C272.078 321.962 275.488 326.224 275.488 328.781C275.488 328.781 276.341 334.749 275.488 335.601C276.341 335.601 278.898 334.749 279.751 333.044C280.603 331.339 279.751 322.814 279.751 321.109C279.751 319.404 284.013 311.732 278.898 312.584C273.783 312.584 259.291 312.584 254.176 311.732C249.914 310.879 238.831 308.322 236.274 310.027C233.716 311.732 230.306 315.994 230.306 316.847C229.454 316.847 228.601 315.994 230.306 312.584C231.159 309.174 235.421 299.797 234.569 294.682C232.011 295.534 218.372 303.207 218.372 303.207Z" fill="#EC1C24"/>
<path d="M200.469 273.37C200.469 274.222 201.321 275.927 202.174 276.78L177.452 275.075C177.452 275.075 174.894 273.37 175.747 272.517L200.469 273.37Z" fill="#EC1C24"/>
<path d="M173.189 271.665H197.911C197.911 271.665 196.206 269.107 195.354 267.402H172.337C172.337 267.402 169.779 267.402 169.779 272.517C169.779 273.37 171.484 275.075 173.189 271.665Z" fill="#EC1C24"/>
<path d="M149.32 275.927H154.435C154.435 275.927 156.14 275.075 154.435 273.37C152.73 271.665 149.32 269.96 151.877 266.55C149.32 266.55 145.91 265.697 146.762 273.37H144.205C144.205 273.37 143.352 269.107 137.385 269.107C131.417 269.107 116.925 275.075 116.925 275.075C116.925 275.075 133.122 279.337 137.385 279.337C141.647 279.337 144.205 275.075 144.205 275.075H145.91C145.91 275.075 146.762 278.485 147.615 279.337V284.452C147.615 284.452 145.057 285.304 145.91 287.862C145.91 290.419 147.615 290.419 148.467 290.419C149.32 290.419 149.32 289.567 151.877 289.567C152.73 288.714 151.877 285.304 150.172 284.452V281.042C150.172 281.042 151.877 279.337 151.877 278.485C151.025 276.78 149.32 277.632 149.32 275.927Z" fill="#EC1C24"/>
<path d="M179.157 299.797C180.862 298.944 181.715 296.387 181.715 296.387V281.894C181.715 278.484 175.747 275.927 174.895 275.927C174.042 276.779 172.337 277.632 171.485 277.632C169.78 277.632 168.927 277.632 167.222 275.927C162.107 275.927 159.55 281.894 159.55 282.747C159.55 283.599 158.697 294.682 159.55 296.387C159.55 298.092 161.255 299.797 162.107 300.649C161.255 304.059 156.14 323.666 162.96 326.224V329.634H180.01V326.224C185.124 321.961 180.862 304.912 179.157 299.797ZM159.55 281.894C159.55 281.042 162.107 276.779 165.517 276.779C167.222 278.484 168.927 278.484 170.632 278.484C172.337 278.484 174.042 276.779 174.895 276.779C176.6 277.632 180.01 279.337 180.01 281.894V296.387C180.01 297.239 179.157 298.092 178.305 298.944H174.895V292.124H163.812V298.092H161.255C160.402 297.239 159.55 296.387 159.55 294.682V281.894ZM171.485 321.961H168.075C167.222 321.961 166.37 321.109 166.37 320.256C166.37 319.404 167.222 318.551 168.075 318.551H171.485C172.337 318.551 173.19 319.404 173.19 320.256C173.19 321.109 172.337 321.961 171.485 321.961ZM178.305 323.666L169.78 314.289L162.107 323.666C156.992 321.961 160.402 306.617 162.107 299.797H178.305C180.01 306.617 182.567 321.109 178.305 323.666Z" fill="#EC1C24"/>
<path d="M175.747 306.617C177.452 304.059 174.895 302.354 174.895 302.354H164.665C161.255 302.354 162.107 306.617 162.107 306.617L168.075 311.732C169.78 311.732 174.042 309.174 175.747 306.617Z" fill="#EC1C24"/>
<path d="M171.485 312.584L177.452 319.404C177.452 319.404 176.6 310.879 176.6 308.322C175.747 309.174 171.485 312.584 171.485 312.584Z" fill="#EC1C24"/>
<path d="M162.959 308.322C162.959 310.879 162.107 319.404 162.107 319.404L168.074 312.584C168.074 312.584 164.664 309.174 162.959 308.322Z" fill="#EC1C24"/>
<path d="M174.894 290.419H175.747V289.567C175.747 288.714 174.894 288.714 174.894 288.714H165.517C164.665 288.714 164.665 289.567 164.665 289.567V290.419H165.517H174.894Z" fill="#EC1C24"/>
<path d="M161.255 329.634H160.402V330.487C160.402 331.339 161.255 331.339 161.255 331.339H178.304C179.157 331.339 179.157 330.487 179.157 330.487V329.634H178.304H161.255Z" fill="#EC1C24"/>
<path d="M104.138 269.107C104.138 269.107 36.7912 121.626 193.649 27L231.159 96.0517C231.159 96.0517 205.584 104.577 178.305 128.446C148.467 154.021 116.925 196.646 104.138 269.107Z" fill="#F6921E"/>
<mask id="path-34-outside-1_14_91" maskUnits="userSpaceOnUse" x="499" y="29" width="269" height="76" fill="black">
<rect fill="white" x="499" y="29" width="269" height="76"/>
<path d="M582.2 62.408V90.824L567.032 101H517.304L508.664 91.112H556.376L559.928 86.984V72.296H506.84V44.456L515.96 33.8H580.376L571.928 43.688H533.048L528.728 48.584V62.408H582.2ZM613.231 101L589.903 82.472V33.8H666.127V101H613.231ZM609.967 43.688V78.152L621.391 91.112H646.062V43.688H609.967ZM703.915 91.112H759.019L750.379 101H683.371V33.8H758.923L750.379 43.688H703.915V91.112Z"/>
</mask>
<path d="M582.2 62.408V90.824L567.032 101H517.304L508.664 91.112H556.376L559.928 86.984V72.296H506.84V44.456L515.96 33.8H580.376L571.928 43.688H533.048L528.728 48.584V62.408H582.2ZM613.231 101L589.903 82.472V33.8H666.127V101H613.231ZM609.967 43.688V78.152L621.391 91.112H646.062V43.688H609.967ZM703.915 91.112H759.019L750.379 101H683.371V33.8H758.923L750.379 43.688H703.915V91.112Z" fill="#EC1C24"/>
<path d="M582.2 62.408H586.2V58.408H582.2V62.408ZM582.2 90.824L584.428 94.1457L586.2 92.9572V90.824H582.2ZM567.032 101V105H568.249L569.26 104.322L567.032 101ZM517.304 101L514.292 103.632L515.487 105H517.304V101ZM508.664 91.112V87.112H499.857L505.652 93.7439L508.664 91.112ZM556.376 91.112V95.112H558.211L559.408 93.721L556.376 91.112ZM559.928 86.984L562.96 89.593L563.928 88.468V86.984H559.928ZM559.928 72.296H563.928V68.296H559.928V72.296ZM506.84 72.296H502.84V76.296H506.84V72.296ZM506.84 44.456L503.801 41.8551L502.84 42.978V44.456H506.84ZM515.96 33.8V29.8H514.118L512.921 31.1991L515.96 33.8ZM580.376 33.8L583.417 36.3983L589.055 29.8H580.376V33.8ZM571.928 43.688V47.688H573.772L574.969 46.2863L571.928 43.688ZM533.048 43.688V39.688H531.243L530.049 41.0415L533.048 43.688ZM528.728 48.584L525.729 45.9375L524.728 47.0716V48.584H528.728ZM528.728 62.408H524.728V66.408H528.728V62.408ZM582.2 62.408H578.2V90.824H582.2H586.2V62.408H582.2ZM582.2 90.824L579.972 87.5023L564.804 97.6783L567.032 101L569.26 104.322L584.428 94.1457L582.2 90.824ZM567.032 101V97H517.304V101V105H567.032V101ZM517.304 101L520.316 98.3681L511.676 88.4801L508.664 91.112L505.652 93.7439L514.292 103.632L517.304 101ZM508.664 91.112V95.112H556.376V91.112V87.112H508.664V91.112ZM556.376 91.112L559.408 93.721L562.96 89.593L559.928 86.984L556.896 84.375L553.344 88.503L556.376 91.112ZM559.928 86.984H563.928V72.296H559.928H555.928V86.984H559.928ZM559.928 72.296V68.296H506.84V72.296V76.296H559.928V72.296ZM506.84 72.296H510.84V44.456H506.84H502.84V72.296H506.84ZM506.84 44.456L509.879 47.0569L518.999 36.4009L515.96 33.8L512.921 31.1991L503.801 41.8551L506.84 44.456ZM515.96 33.8V37.8H580.376V33.8V29.8H515.96V33.8ZM580.376 33.8L577.335 31.2017L568.887 41.0897L571.928 43.688L574.969 46.2863L583.417 36.3983L580.376 33.8ZM571.928 43.688V39.688H533.048V43.688V47.688H571.928V43.688ZM533.048 43.688L530.049 41.0415L525.729 45.9375L528.728 48.584L531.727 51.2305L536.047 46.3345L533.048 43.688ZM528.728 48.584H524.728V62.408H528.728H532.728V48.584H528.728ZM528.728 62.408V66.408H582.2V62.408V58.408H528.728V62.408ZM613.231 101L610.743 104.132L611.835 105H613.231V101ZM589.903 82.472H585.903V84.4032L587.415 85.6043L589.903 82.472ZM589.903 33.8V29.8H585.903V33.8H589.903ZM666.127 33.8H670.127V29.8H666.127V33.8ZM666.127 101V105H670.127V101H666.127ZM609.967 43.688V39.688H605.967V43.688H609.967ZM609.967 78.152H605.967V79.6633L606.966 80.797L609.967 78.152ZM621.391 91.112L618.39 93.757L619.584 95.112H621.391V91.112ZM646.062 91.112V95.112H650.062V91.112H646.062ZM646.062 43.688H650.062V39.688H646.062V43.688ZM613.231 101L615.718 97.8677L592.39 79.3397L589.903 82.472L587.415 85.6043L610.743 104.132L613.231 101ZM589.903 82.472H593.903V33.8H589.903H585.903V82.472H589.903ZM589.903 33.8V37.8H666.127V33.8V29.8H589.903V33.8ZM666.127 33.8H662.127V101H666.127H670.127V33.8H666.127ZM666.127 101V97H613.231V101V105H666.127V101ZM609.967 43.688H605.967V78.152H609.967H613.967V43.688H609.967ZM609.967 78.152L606.966 80.797L618.39 93.757L621.391 91.112L624.391 88.467L612.967 75.507L609.967 78.152ZM621.391 91.112V95.112H646.062V91.112V87.112H621.391V91.112ZM646.062 91.112H650.062V43.688H646.062H642.062V91.112H646.062ZM646.062 43.688V39.688H609.967V43.688V47.688H646.062V43.688ZM703.915 91.112H699.915V95.112H703.915V91.112ZM759.019 91.112L762.031 93.7439L767.826 87.112H759.019V91.112ZM750.379 101V105H752.196L753.391 103.632L750.379 101ZM683.371 101H679.371V105H683.371V101ZM683.371 33.8V29.8H679.371V33.8H683.371ZM758.923 33.8L761.95 36.4152L767.666 29.8H758.923V33.8ZM750.379 43.688V47.688H752.209L753.406 46.3032L750.379 43.688ZM703.915 43.688V39.688H699.915V43.688H703.915ZM703.915 91.112V95.112H759.019V91.112V87.112H703.915V91.112ZM759.019 91.112L756.007 88.4801L747.367 98.3681L750.379 101L753.391 103.632L762.031 93.7439L759.019 91.112ZM750.379 101V97H683.371V101V105H750.379V101ZM683.371 101H687.371V33.8H683.371H679.371V101H683.371ZM683.371 33.8V37.8H758.923V33.8V29.8H683.371V33.8ZM758.923 33.8L755.897 31.1848L747.353 41.0728L750.379 43.688L753.406 46.3032L761.95 36.4152L758.923 33.8ZM750.379 43.688V39.688H703.915V43.688V47.688H750.379V43.688ZM703.915 43.688H699.915V91.112H703.915H707.915V43.688H703.915Z" fill="#F6921E" mask="url(#path-34-outside-1_14_91)"/>
<mask id="path-36-outside-2_14_91" maskUnits="userSpaceOnUse" x="812" y="29" width="530" height="76" fill="black">
<rect fill="white" x="812" y="29" width="530" height="76"/>
<path d="M891.24 77.192H837V101H816.84V33.8H891.24V77.192ZM871.08 43.688H836.808V67.304H871.08V43.688ZM922.293 101L898.965 82.472V33.8H975.189V101H922.293ZM919.029 43.688V78.152L930.453 91.112H955.125V43.688H919.029ZM1047.37 69.608L1074.82 101H1051.11L1014.92 59.72H1048.9V43.688H1011.85V101H991.496V33.8H1068.68V69.608H1047.37ZM1166.82 33.8L1158.27 43.688H1137.25V101H1115.26V43.688H1091.07L1082.53 33.8H1166.82ZM1177.62 33.8H1252.4V101H1230.32V72.392H1199.12V101H1177.62V33.8ZM1229.84 43.688H1198.93V62.408H1229.84V43.688ZM1286.9 91.112H1332.22L1323.58 101H1266.84V33.8H1286.9V91.112Z"/>
</mask>
<path d="M891.24 77.192H837V101H816.84V33.8H891.24V77.192ZM871.08 43.688H836.808V67.304H871.08V43.688ZM922.293 101L898.965 82.472V33.8H975.189V101H922.293ZM919.029 43.688V78.152L930.453 91.112H955.125V43.688H919.029ZM1047.37 69.608L1074.82 101H1051.11L1014.92 59.72H1048.9V43.688H1011.85V101H991.496V33.8H1068.68V69.608H1047.37ZM1166.82 33.8L1158.27 43.688H1137.25V101H1115.26V43.688H1091.07L1082.53 33.8H1166.82ZM1177.62 33.8H1252.4V101H1230.32V72.392H1199.12V101H1177.62V33.8ZM1229.84 43.688H1198.93V62.408H1229.84V43.688ZM1286.9 91.112H1332.22L1323.58 101H1266.84V33.8H1286.9V91.112Z" fill="#F6921E"/>
<path d="M891.24 77.192V81.192H895.24V77.192H891.24ZM837 77.192V73.192H833V77.192H837ZM837 101V105H841V101H837ZM816.84 101H812.84V105H816.84V101ZM816.84 33.8V29.8H812.84V33.8H816.84ZM891.24 33.8H895.24V29.8H891.24V33.8ZM871.08 43.688H875.08V39.688H871.08V43.688ZM836.808 43.688V39.688H832.808V43.688H836.808ZM836.808 67.304H832.808V71.304H836.808V67.304ZM871.08 67.304V71.304H875.08V67.304H871.08ZM891.24 77.192V73.192H837V77.192V81.192H891.24V77.192ZM837 77.192H833V101H837H841V77.192H837ZM837 101V97H816.84V101V105H837V101ZM816.84 101H820.84V33.8H816.84H812.84V101H816.84ZM816.84 33.8V37.8H891.24V33.8V29.8H816.84V33.8ZM891.24 33.8H887.24V77.192H891.24H895.24V33.8H891.24ZM871.08 43.688V39.688H836.808V43.688V47.688H871.08V43.688ZM836.808 43.688H832.808V67.304H836.808H840.808V43.688H836.808ZM836.808 67.304V71.304H871.08V67.304V63.304H836.808V67.304ZM871.08 67.304H875.08V43.688H871.08H867.08V67.304H871.08ZM922.293 101L919.805 104.132L920.898 105H922.293V101ZM898.965 82.472H894.965V84.4032L896.477 85.6043L898.965 82.472ZM898.965 33.8V29.8H894.965V33.8H898.965ZM975.189 33.8H979.189V29.8H975.189V33.8ZM975.189 101V105H979.189V101H975.189ZM919.029 43.688V39.688H915.029V43.688H919.029ZM919.029 78.152H915.029V79.6633L916.028 80.797L919.029 78.152ZM930.453 91.112L927.452 93.757L928.647 95.112H930.453V91.112ZM955.125 91.112V95.112H959.125V91.112H955.125ZM955.125 43.688H959.125V39.688H955.125V43.688ZM922.293 101L924.781 97.8677L901.453 79.3397L898.965 82.472L896.477 85.6043L919.805 104.132L922.293 101ZM898.965 82.472H902.965V33.8H898.965H894.965V82.472H898.965ZM898.965 33.8V37.8H975.189V33.8V29.8H898.965V33.8ZM975.189 33.8H971.189V101H975.189H979.189V33.8H975.189ZM975.189 101V97H922.293V101V105H975.189V101ZM919.029 43.688H915.029V78.152H919.029H923.029V43.688H919.029ZM919.029 78.152L916.028 80.797L927.452 93.757L930.453 91.112L933.454 88.467L922.03 75.507L919.029 78.152ZM930.453 91.112V95.112H955.125V91.112V87.112H930.453V91.112ZM955.125 91.112H959.125V43.688H955.125H951.125V91.112H955.125ZM955.125 43.688V39.688H919.029V43.688V47.688H955.125V43.688ZM1047.37 69.608V65.608H1038.56L1044.36 72.2414L1047.37 69.608ZM1074.82 101V105H1083.64L1077.84 98.3666L1074.82 101ZM1051.11 101L1048.1 103.637L1049.3 105H1051.11V101ZM1014.92 59.72V55.72H1006.09L1011.91 62.357L1014.92 59.72ZM1048.9 59.72V63.72H1052.9V59.72H1048.9ZM1048.9 43.688H1052.9V39.688H1048.9V43.688ZM1011.85 43.688V39.688H1007.85V43.688H1011.85ZM1011.85 101V105H1015.85V101H1011.85ZM991.496 101H987.496V105H991.496V101ZM991.496 33.8V29.8H987.496V33.8H991.496ZM1068.68 33.8H1072.68V29.8H1068.68V33.8ZM1068.68 69.608V73.608H1072.68V69.608H1068.68ZM1047.37 69.608L1044.36 72.2414L1071.81 103.633L1074.82 101L1077.84 98.3666L1050.38 66.9746L1047.37 69.608ZM1074.82 101V97H1051.11V101V105H1074.82V101ZM1051.11 101L1054.12 98.363L1017.93 57.083L1014.92 59.72L1011.91 62.357L1048.1 103.637L1051.11 101ZM1014.92 59.72V63.72H1048.9V59.72V55.72H1014.92V59.72ZM1048.9 59.72H1052.9V43.688H1048.9H1044.9V59.72H1048.9ZM1048.9 43.688V39.688H1011.85V43.688V47.688H1048.9V43.688ZM1011.85 43.688H1007.85V101H1011.85H1015.85V43.688H1011.85ZM1011.85 101V97H991.496V101V105H1011.85V101ZM991.496 101H995.496V33.8H991.496H987.496V101H991.496ZM991.496 33.8V37.8H1068.68V33.8V29.8H991.496V33.8ZM1068.68 33.8H1064.68V69.608H1068.68H1072.68V33.8H1068.68ZM1068.68 69.608V65.608H1047.37V69.608V73.608H1068.68V69.608ZM1166.82 33.8L1169.84 36.4152L1175.56 29.8H1166.82V33.8ZM1158.27 43.688V47.688H1160.1L1161.3 46.3032L1158.27 43.688ZM1137.25 43.688V39.688H1133.25V43.688H1137.25ZM1137.25 101V105H1141.25V101H1137.25ZM1115.26 101H1111.26V105H1115.26V101ZM1115.26 43.688H1119.26V39.688H1115.26V43.688ZM1091.07 43.688L1088.04 46.3032L1089.24 47.688H1091.07V43.688ZM1082.53 33.8V29.8H1073.78L1079.5 36.4152L1082.53 33.8ZM1166.82 33.8L1163.79 31.1848L1155.24 41.0728L1158.27 43.688L1161.3 46.3032L1169.84 36.4152L1166.82 33.8ZM1158.27 43.688V39.688H1137.25V43.688V47.688H1158.27V43.688ZM1137.25 43.688H1133.25V101H1137.25H1141.25V43.688H1137.25ZM1137.25 101V97H1115.26V101V105H1137.25V101ZM1115.26 101H1119.26V43.688H1115.26H1111.26V101H1115.26ZM1115.26 43.688V39.688H1091.07V43.688V47.688H1115.26V43.688ZM1091.07 43.688L1094.1 41.0728L1085.55 31.1848L1082.53 33.8L1079.5 36.4152L1088.04 46.3032L1091.07 43.688ZM1082.53 33.8V37.8H1166.82V33.8V29.8H1082.53V33.8ZM1177.62 33.8V29.8H1173.62V33.8H1177.62ZM1252.4 33.8H1256.4V29.8H1252.4V33.8ZM1252.4 101V105H1256.4V101H1252.4ZM1230.32 101H1226.32V105H1230.32V101ZM1230.32 72.392H1234.32V68.392H1230.32V72.392ZM1199.12 72.392V68.392H1195.12V72.392H1199.12ZM1199.12 101V105H1203.12V101H1199.12ZM1177.62 101H1173.62V105H1177.62V101ZM1229.84 43.688H1233.84V39.688H1229.84V43.688ZM1198.93 43.688V39.688H1194.93V43.688H1198.93ZM1198.93 62.408H1194.93V66.408H1198.93V62.408ZM1229.84 62.408V66.408H1233.84V62.408H1229.84ZM1177.62 33.8V37.8H1252.4V33.8V29.8H1177.62V33.8ZM1252.4 33.8H1248.4V101H1252.4H1256.4V33.8H1252.4ZM1252.4 101V97H1230.32V101V105H1252.4V101ZM1230.32 101H1234.32V72.392H1230.32H1226.32V101H1230.32ZM1230.32 72.392V68.392H1199.12V72.392V76.392H1230.32V72.392ZM1199.12 72.392H1195.12V101H1199.12H1203.12V72.392H1199.12ZM1199.12 101V97H1177.62V101V105H1199.12V101ZM1177.62 101H1181.62V33.8H1177.62H1173.62V101H1177.62ZM1229.84 43.688V39.688H1198.93V43.688V47.688H1229.84V43.688ZM1198.93 43.688H1194.93V62.408H1198.93H1202.93V43.688H1198.93ZM1198.93 62.408V66.408H1229.84V62.408V58.408H1198.93V62.408ZM1229.84 62.408H1233.84V43.688H1229.84H1225.84V62.408H1229.84ZM1286.9 91.112H1282.9V95.112H1286.9V91.112ZM1332.22 91.112L1335.23 93.7439L1341.02 87.112H1332.22V91.112ZM1323.58 101V105H1325.39L1326.59 103.632L1323.58 101ZM1266.84 101H1262.84V105H1266.84V101ZM1266.84 33.8V29.8H1262.84V33.8H1266.84ZM1286.9 33.8H1290.9V29.8H1286.9V33.8ZM1286.9 91.112V95.112H1332.22V91.112V87.112H1286.9V91.112ZM1332.22 91.112L1329.2 88.4801L1320.56 98.3681L1323.58 101L1326.59 103.632L1335.23 93.7439L1332.22 91.112ZM1323.58 101V97H1266.84V101V105H1323.58V101ZM1266.84 101H1270.84V33.8H1266.84H1262.84V101H1266.84ZM1266.84 33.8V37.8H1286.9V33.8V29.8H1266.84V33.8ZM1286.9 33.8H1282.9V91.112H1286.9H1290.9V33.8H1286.9Z" fill="#EC1C24" mask="url(#path-36-outside-2_14_91)"/>
</svg>
