<svg width="1592" height="440" viewBox="0 0 1592 440" fill="none" xmlns="http://www.w3.org/2000/svg">
<path d="M410.498 234.33C410.498 240.23 410.498 245.287 409.655 251.188C407.969 275.632 401.226 298.391 391.954 319.464C387.739 327.893 383.525 336.322 378.467 343.908C342.222 401.226 278.161 440 204.828 440C173.64 440 144.138 433.257 117.165 420.613C48.046 387.739 0 316.935 0 234.33C0 154.253 46.3601 84.2913 113.793 50.5748C108.736 57.3181 103.678 64.9043 99.4636 72.4905C99.4636 73.3334 98.6207 73.3334 98.6207 74.1764C96.0919 76.7051 93.5632 78.3909 91.0345 80.9197C87.6628 83.4484 85.1341 86.82 81.7624 90.1917C80.9195 91.0346 80.0766 91.8775 80.0766 92.7204C79.2337 93.5633 78.3908 94.4062 78.3908 95.2491L75.0191 98.6208C72.4904 101.15 70.8046 103.678 69.1188 106.207C60.6896 117.165 53.9463 129.809 48.046 142.452C47.2031 144.138 47.2031 144.981 46.3601 146.667C45.5172 148.353 45.5172 150.038 44.6743 150.881C42.1456 152.567 42.1456 153.41 42.1456 154.253L39.6168 161.839C38.7739 163.525 38.7739 165.211 37.931 166.897C37.931 167.74 37.0881 168.582 37.0881 169.425C37.0881 171.111 36.2452 172.797 36.2452 174.483C35.4023 178.697 33.7165 183.755 33.7165 188.812C33.7165 190.498 33.7165 191.341 32.8736 193.027V214.1C32.8736 269.732 58.1609 319.464 98.6207 352.337C129.808 377.625 169.425 392.797 212.414 392.797C251.188 392.797 287.433 380.153 316.935 359.081C338.85 343.908 356.552 323.678 369.195 300.077C370.881 296.705 372.567 294.176 374.253 290.805C384.368 268.889 390.268 245.287 391.111 220V214.1C391.111 208.199 391.111 202.299 390.268 196.399L391.111 197.241C393.64 199.77 396.169 202.299 399.54 203.985C402.069 199.77 404.598 195.556 407.969 192.184C409.655 199.77 410.498 208.199 411.341 215.786C409.655 222.529 410.498 228.429 410.498 234.33Z" fill="#EC1C24"/>
<path d="M390.268 214.1V220C390.268 256.245 375.096 286.59 373.41 290.805C371.724 294.176 370.038 296.705 368.352 300.077C355.709 323.678 337.165 343.908 316.092 359.08C286.59 380.153 250.345 392.797 211.571 392.797C168.582 392.797 128.966 377.624 97.7778 352.337C57.318 319.464 32.0307 269.732 32.0307 214.1V193.027C32.0307 191.341 32.0307 190.498 32.8736 188.812C33.7165 183.755 35.4023 178.697 36.2453 173.64C36.2453 171.954 37.0882 170.268 37.0882 168.582C37.0882 167.739 37.9311 166.897 37.9311 166.054C38.774 164.368 38.774 162.682 39.6169 160.996C40.4598 158.467 41.3027 156.782 42.1456 154.253C42.1456 153.41 42.9885 152.567 42.9885 151.724C43.8315 150.038 43.8315 148.352 44.6744 147.51C45.5173 145.824 45.5173 144.981 46.3602 143.295C52.2606 129.808 59.0039 118.008 67.433 107.05C69.1188 104.521 71.6475 101.992 73.3334 99.4636C74.1763 98.6207 75.0192 96.9349 76.705 96.092C77.5479 95.249 77.5479 94.4061 78.3908 93.5632C79.2338 92.7203 80.0767 91.8774 80.0767 91.0345C82.6054 87.6628 85.977 85.1341 89.3487 81.7625C91.8774 79.2337 94.4062 76.705 96.9349 75.0192C96.9349 75.8621 96.092 76.705 96.092 76.705C96.092 77.5479 95.2491 78.3908 95.2491 79.2337C85.1341 100.307 78.3908 124.751 75.8621 151.724C75.0192 158.467 75.0192 166.054 75.0192 173.64C75.0192 267.203 129.808 343.065 198.084 343.065H205.67C215.785 343.065 225.057 341.379 234.329 338.851C280.69 326.207 314.406 284.061 314.406 234.329V230.958C313.563 201.456 300.92 174.483 280.69 155.939C295.019 155.939 308.506 158.467 321.149 161.839C346.437 168.582 369.195 180.383 388.582 195.556L389.425 196.398C389.425 202.299 390.268 208.199 390.268 214.1Z" fill="#F6921E"/>
<path d="M390.268 214.1V220C390.268 258.774 373.41 290.805 373.41 291.648C371.724 295.019 370.038 297.548 368.352 300.92C355.709 324.521 337.165 344.751 316.092 360.766C285.747 382.682 248.659 394.483 210.728 394.483C169.425 394.483 128.965 380.153 96.9348 354.023C54.7892 319.464 31.1877 268.889 31.1877 214.943C31.1877 160.996 55.6321 109.579 97.7777 75.0192L99.4635 73.3334C99.4635 74.1763 98.6206 74.1763 98.6206 75.0192C98.6206 75.8621 97.7777 76.705 97.7777 76.705C56.475 110.421 33.7164 160.996 33.7164 214.1C33.7164 268.046 57.3179 317.778 99.4635 352.337C129.808 378.467 169.425 392.797 210.728 392.797C248.659 392.797 284.061 380.996 315.249 359.08C336.322 343.908 354.866 322.835 367.509 300.077C369.195 296.705 370.881 294.176 372.567 290.805C372.567 290.805 390.268 257.931 389.425 220V214.1C389.425 208.199 389.425 202.299 388.582 197.241V196.398L389.425 197.241L390.268 198.084V214.1Z" fill="#F6921E"/>
<path d="M341.379 102.835C341.379 102.835 194.712 75.0191 126.437 202.299C126.437 202.299 138.237 114.636 242.758 74.1762L221.686 35.4023C221.686 35.4023 263.831 -2.52874 337.165 7.58621L341.379 102.835Z" fill="#EC1C24"/>
<path d="M160.153 170.268C160.153 170.268 218.314 93.5631 352.337 113.793L350.651 69.1187C350.651 69.1187 406.283 67.4329 451.8 106.207L396.168 190.498C396.168 190.498 358.237 145.824 279.004 144.981C246.13 144.138 206.513 148.352 160.153 170.268Z" fill="#F6921E"/>
<path d="M191.341 199.77C191.341 199.77 178.697 202.299 179.54 196.398C179.54 193.87 181.226 193.027 182.069 193.87C182.069 193.027 179.54 189.655 185.44 187.969C187.126 185.44 188.812 182.912 189.655 181.226C190.498 179.54 191.341 177.011 196.398 178.697C201.456 179.54 206.513 184.598 207.356 186.283C209.885 186.283 213.257 187.126 212.414 187.126L210.728 188.812C210.728 188.812 212.414 189.655 207.356 189.655C207.356 190.498 208.199 191.341 209.042 191.341C209.885 192.184 209.042 192.184 209.042 193.027C209.042 193.027 209.885 195.555 207.356 194.713C204.827 193.87 204.827 193.027 203.985 193.027C203.142 193.027 201.456 193.027 201.456 193.87C201.456 194.713 203.985 196.398 201.456 196.398C200.613 197.241 202.299 198.084 201.456 198.084C200.613 198.927 194.712 203.142 192.184 203.985C189.655 203.985 188.812 203.142 188.812 202.299C188.812 201.456 190.498 200.613 192.184 200.613C191.341 200.613 192.184 199.77 191.341 199.77Z" fill="#EC1C24"/>
<path d="M190.498 213.257C189.655 213.257 185.441 210.728 187.969 209.885C189.655 208.199 198.084 203.142 199.77 202.299C201.456 201.456 203.985 203.985 201.456 205.671C198.927 208.199 190.498 213.257 190.498 213.257Z" fill="#EC1C24"/>
<path d="M203.142 207.356C203.142 205.67 204.828 200.613 204.828 199.77C204.828 198.927 209.042 198.084 208.199 203.142C206.513 207.356 203.142 209.042 203.142 207.356Z" fill="#EC1C24"/>
<path d="M209.042 197.241C209.042 197.241 232.643 196.398 234.329 197.241C236.015 198.084 244.444 210.728 241.915 221.686C240.23 232.644 236.858 235.172 221.686 236.858C221.686 233.487 220.843 224.215 219.157 221.686C217.471 219.157 212.414 213.257 210.728 213.257C210.728 215.785 209.885 223.372 209.885 223.372C209.885 223.372 202.299 224.215 201.456 222.529V210.728C201.456 210.728 208.199 204.828 209.042 203.142C209.885 203.985 210.728 207.356 218.314 206.513C218.314 207.356 209.042 208.199 209.042 197.241Z" fill="#EC1C24"/>
<path d="M199.77 208.199C199.77 208.199 192.184 214.1 190.498 215.785C189.655 217.471 188.812 224.215 198.084 224.215C199.77 220 199.77 208.199 199.77 208.199Z" fill="#EC1C24"/>
<path d="M182.069 217.471C179.54 217.471 177.854 216.628 177.854 214.943C177.854 213.257 181.226 210.728 183.755 211.571C185.44 212.414 189.655 213.257 189.655 220.843C191.341 222.529 195.555 225.9 201.456 225.9C207.356 225.9 210.728 225.9 210.728 227.586V238.544C210.728 238.544 203.984 238.544 187.126 226.743C185.44 225.057 184.597 223.372 184.597 220.843C184.597 218.314 182.912 217.471 182.069 217.471Z" fill="#EC1C24"/>
<path d="M177.011 218.314C174.482 218.314 166.053 225.057 171.954 227.586L175.325 224.214C175.325 224.214 173.64 228.429 177.011 229.272C180.383 230.115 178.697 227.586 180.383 227.586C181.226 229.272 181.226 230.115 182.912 230.115C184.597 230.115 184.597 225.057 182.912 222.529C182.069 220 180.383 218.314 177.011 218.314Z" fill="#EC1C24"/>
<path d="M212.414 219.157V241.073C212.414 241.073 219.157 238.544 220 236.858C220 233.487 218.314 219.157 212.414 219.157Z" fill="#EC1C24"/>
<path d="M194.713 233.487C194.713 233.487 203.142 239.387 208.199 241.073C207.356 241.916 203.985 246.973 202.299 246.13C201.456 246.13 195.555 237.701 194.713 233.487Z" fill="#EC1C24"/>
<path d="M153.41 241.916H165.211V246.13H154.253L153.41 241.916Z" fill="#EC1C24"/>
<path d="M279.004 239.387H230.958L238.544 245.287H279.004V239.387Z" fill="#EC1C24"/>
<path d="M221.686 239.387C222.529 238.544 228.429 242.759 226.743 243.602C225.057 244.445 209.885 250.345 209.042 250.345C207.356 249.502 208.199 246.13 209.885 245.287C210.728 244.445 219.157 241.916 221.686 239.387Z" fill="#EC1C24"/>
<path d="M204.827 249.502C203.142 248.659 193.87 257.931 198.084 258.774C202.299 259.617 212.414 261.303 214.942 262.988C217.471 262.145 219.157 259.617 219.157 258.774C220.843 258.774 223.372 261.303 225.9 260.46C228.429 259.617 240.23 251.188 240.23 249.502C237.701 247.816 232.644 244.444 230.115 244.444C228.429 243.601 213.257 252.873 204.827 249.502Z" fill="#EC1C24"/>
<path d="M199.77 261.303C200.613 261.303 213.257 265.517 215.785 265.517C219.157 264.674 219.157 262.146 220.843 262.146C222.529 262.146 223.372 263.831 225.9 262.146C228.429 260.46 234.329 255.402 235.172 254.559C235.172 256.245 235.172 261.303 224.215 266.36C213.257 271.418 187.126 279.004 186.283 282.375C187.126 282.375 190.498 281.533 193.027 280.69C194.713 281.533 197.241 284.904 196.398 290.805C195.556 296.705 191.341 305.977 191.341 308.506V324.521C191.341 325.364 193.87 332.95 190.498 332.107C187.126 331.264 185.441 331.264 183.755 332.107C182.069 332.107 179.54 334.636 177.854 333.793C175.326 333.793 171.954 332.107 171.954 331.264C171.954 330.421 174.483 330.421 177.011 329.578C179.54 328.736 180.383 326.207 184.598 324.521C184.598 321.992 182.912 300.919 182.912 296.705C182.912 292.49 181.226 283.218 183.755 279.847C185.441 274.789 195.556 260.46 199.77 261.303Z" fill="#EC1C24"/>
<path d="M215.785 273.103C215.785 274.789 223.372 293.333 226.743 293.333C230.115 293.333 261.303 286.59 267.203 289.119C268.889 291.648 272.26 295.862 272.26 298.391C272.26 298.391 273.103 304.291 272.26 305.134C273.103 305.134 275.632 304.291 276.475 302.605C277.318 300.92 276.475 292.49 276.475 290.805C276.475 289.119 280.69 281.533 275.632 282.375C270.575 282.375 256.245 282.375 251.188 281.533C246.973 280.69 236.015 278.161 233.487 279.847C230.958 281.533 227.586 285.747 227.586 286.59C226.743 286.59 225.9 285.747 227.586 282.375C228.429 279.004 232.644 269.732 231.801 264.674C229.272 265.517 215.785 273.103 215.785 273.103Z" fill="#EC1C24"/>
<path d="M198.084 243.602C198.084 244.444 198.927 246.13 199.77 246.973L175.325 245.287C175.325 245.287 172.797 243.602 173.64 242.759L198.084 243.602Z" fill="#EC1C24"/>
<path d="M171.111 241.916H195.555C195.555 241.916 193.87 239.387 193.027 237.701H170.268C170.268 237.701 167.739 237.701 167.739 242.759C167.739 243.602 169.425 245.287 171.111 241.916Z" fill="#EC1C24"/>
<path d="M147.509 246.13H152.567C152.567 246.13 154.253 245.287 152.567 243.601C150.881 241.916 147.509 240.23 150.038 236.858C147.509 236.858 144.138 236.015 144.981 243.601H142.452C142.452 243.601 141.609 239.387 135.709 239.387C129.808 239.387 115.479 245.287 115.479 245.287C115.479 245.287 131.494 249.502 135.709 249.502C139.923 249.502 142.452 245.287 142.452 245.287H144.138C144.138 245.287 144.981 248.659 145.824 249.502V254.559C145.824 254.559 143.295 255.402 144.138 257.931C144.138 260.46 145.824 260.46 146.666 260.46C147.509 260.46 147.509 259.617 150.038 259.617C150.881 258.774 150.038 255.402 148.352 254.559V251.188C148.352 251.188 150.038 249.502 150.038 248.659C149.195 246.973 147.509 247.816 147.509 246.13Z" fill="#EC1C24"/>
<path d="M177.011 269.732C178.697 268.889 179.54 266.36 179.54 266.36V252.03C179.54 248.659 173.64 246.13 172.797 246.13C171.954 246.973 170.268 247.816 169.425 247.816C167.739 247.816 166.896 247.816 165.211 246.13C160.153 246.13 157.624 252.031 157.624 252.873C157.624 253.716 156.781 264.674 157.624 266.36C157.624 268.046 159.31 269.732 160.153 270.575C159.31 273.946 154.253 293.333 160.996 295.862V299.234H177.854V295.862C182.912 291.647 178.697 274.789 177.011 269.732ZM157.624 252.03C157.624 251.188 160.153 246.973 163.525 246.973C165.211 248.659 166.896 248.659 168.582 248.659C170.268 248.659 171.954 246.973 172.797 246.973C174.483 247.816 177.854 249.502 177.854 252.03V266.36C177.854 267.203 177.011 268.046 176.168 268.889H172.797V262.145H161.839V268.046H159.31C158.467 267.203 157.624 266.36 157.624 264.674V252.03ZM169.425 291.647H166.053C165.211 291.647 164.368 290.804 164.368 289.962C164.368 289.119 165.211 288.276 166.053 288.276H169.425C170.268 288.276 171.111 289.119 171.111 289.962C171.111 290.804 170.268 291.647 169.425 291.647ZM176.168 293.333L167.739 284.061L160.153 293.333C155.096 291.647 158.467 276.475 160.153 269.732H176.168C177.854 276.475 180.383 290.804 176.168 293.333Z" fill="#EC1C24"/>
<path d="M173.64 276.475C175.326 273.946 172.797 272.26 172.797 272.26H162.682C159.31 272.26 160.153 276.475 160.153 276.475L166.054 281.533C167.74 281.533 171.954 279.004 173.64 276.475Z" fill="#EC1C24"/>
<path d="M169.425 282.375L175.326 289.119C175.326 289.119 174.483 280.69 174.483 278.161C173.64 279.004 169.425 282.375 169.425 282.375Z" fill="#EC1C24"/>
<path d="M160.996 278.161C160.996 280.69 160.153 289.119 160.153 289.119L166.053 282.375C166.053 282.375 162.682 279.004 160.996 278.161Z" fill="#EC1C24"/>
<path d="M172.797 260.46H173.64V259.617C173.64 258.774 172.797 258.774 172.797 258.774H163.525C162.682 258.774 162.682 259.617 162.682 259.617V260.46H163.525H172.797Z" fill="#EC1C24"/>
<path d="M159.31 299.234H158.467V300.077C158.467 300.919 159.31 300.919 159.31 300.919H176.168C177.011 300.919 177.011 300.077 177.011 300.077V299.234H176.168H159.31Z" fill="#EC1C24"/>
<path d="M102.835 239.387C102.835 239.387 36.2452 93.5632 191.341 0L228.429 68.2759C228.429 68.2759 203.142 76.705 176.169 100.306C146.667 125.594 115.479 167.739 102.835 239.387Z" fill="#F6921E"/>
<path d="M564.849 361.63H520.493C519.64 361.63 519 362.123 519 362.78V365.408C519 366.064 519.64 366.557 520.493 366.557H553.547V380.68C552.694 379.695 551.627 378.71 550.348 377.724C546.509 374.604 542.244 373.126 537.979 373.126C534.567 373.126 531.582 374.44 529.236 376.903C527.317 378.874 526.25 381.337 526.25 383.472C526.25 385.771 526.677 388.563 529.023 391.191C531.795 394.311 536.06 395.296 539.899 395.296C545.017 395.296 549.282 392.504 549.282 389.056C549.282 386.921 548.002 385.279 545.443 384.293L543.097 383.308V386.1C542.884 386.921 540.965 388.07 539.046 388.07C537.34 388.07 535.634 387.578 534.781 386.757C534.141 386.1 533.714 385.279 533.928 384.457C533.928 383.472 534.354 382.651 535.42 381.666C536.487 380.68 537.553 380.188 539.259 380.188C543.737 380.188 547.362 381.83 550.348 385.114C552.694 387.906 553.973 390.698 553.973 393.654V400.715L560.584 403.836C560.797 404 561.01 404 561.224 404C562.077 404 562.716 403.507 562.716 402.85V366.557H565.275C566.128 366.557 566.768 366.064 566.768 365.408V362.78C566.128 362.123 565.489 361.63 564.849 361.63Z" fill="#EC1C24"/>
<path d="M653.4 361.658H597.304C596.451 361.658 595.811 362.151 595.811 362.809V367.577C590.479 363.137 585.573 361 581.094 361C576.828 361 573.415 361.822 570.429 363.466C567.443 365.275 565.95 367.412 565.95 369.878C565.95 377.441 577.041 377.441 579.601 376.291C580.027 376.126 580.667 375.797 581.52 375.797C583.653 375.797 584.506 377.113 584.506 378.264C584.506 380.072 581.307 381.552 577.468 381.552C575.335 381.552 573.842 381.059 572.989 380.072L571.282 378.099L570.003 380.401C569.789 380.894 569.363 381.552 569.363 382.374C569.363 384.183 570.429 385.827 572.562 387.142C574.695 388.457 577.041 389.115 579.601 389.115C583.867 389.115 587.279 387.964 589.625 385.662C591.545 383.854 592.398 381.552 592.398 379.086C592.398 377.606 591.758 376.291 590.265 374.646C588.559 372.673 586.426 371.687 583.867 371.687C583.013 371.687 581.947 371.851 580.667 372.18C580.241 372.016 579.601 372.18 579.387 372.18C578.961 372.18 578.321 372.016 577.894 371.523C577.468 371.194 577.041 370.7 577.041 369.878C577.041 368.07 579.387 366.097 583.227 366.097H583.44C586 366.097 588.559 367.083 591.119 369.056C593.038 370.536 594.744 372.016 595.811 373.66V400.624L602.423 403.583C602.636 403.748 602.85 403.748 603.063 403.748C603.916 403.748 604.556 403.255 604.556 402.597V366.426H614.581V389.773L622.472 392.239H622.899C623.539 392.239 624.179 391.746 624.392 391.252V391.088C625.672 384.183 629.724 379.414 636.336 376.455V377.77C636.336 378.757 636.336 381.223 636.55 382.703C636.55 383.525 636.55 384.018 636.763 384.511C636.763 387.142 637.19 391.417 638.469 394.376C640.602 400.131 644.442 401.446 647.214 401.611H647.428C649.134 401.611 650.2 401.282 651.054 400.624C651.48 400.295 652.12 399.473 652.12 398.487C652.12 397.336 651.907 396.514 651.48 396.02L650.84 395.198L649.561 395.363C648.067 395.692 647.641 395.692 647.641 395.527H647.428C647.001 395.527 647.001 395.527 646.788 395.363C646.361 395.198 645.508 394.541 644.868 392.732C644.442 391.417 644.228 389.444 644.228 388.457C644.228 380.894 646.361 375.14 649.347 373.824H649.561C649.987 373.66 650.414 373.331 650.414 372.838C650.414 372.673 650.414 372.509 650.2 372.345V372.18C648.707 369.878 645.508 368.234 641.029 367.248H640.176C636.763 367.741 632.497 369.55 627.165 373.002C625.885 373.824 624.605 374.811 623.326 375.633V366.261H653.613C654.466 366.261 655.106 365.768 655.106 365.11V362.48C654.893 362.151 654.253 361.658 653.4 361.658Z" fill="#EC1C24"/>
<path d="M749.1 368.9V372.45H730.8V381.4C730.8 382.367 730.95 383.083 731.25 383.55C731.55 383.983 732.017 384.2 732.65 384.2C733.283 384.2 733.933 384 734.6 383.6C735.3 383.2 736.05 382.567 736.85 381.7C737.65 380.833 738.517 379.717 739.45 378.35L742.45 377.9C743.517 379.467 744.333 381.083 744.9 382.75C745.5 384.417 745.8 386.083 745.8 387.75C745.8 389.85 745.333 391.733 744.4 393.4C743.5 395.067 742.15 396.383 740.35 397.35C738.583 398.317 736.417 398.8 733.85 398.8C731.65 398.8 729.6 398.417 727.7 397.65C725.8 396.883 724.05 395.65 722.45 393.95C720.85 392.217 719.383 389.95 718.05 387.15C716.717 384.317 715.517 380.85 714.45 376.75L718.25 375.75C719.45 380.383 720.767 384.117 722.2 386.95C723.667 389.75 725.333 391.8 727.2 393.1C729.067 394.367 731.217 395 733.65 395C736.317 395 738.367 394.333 739.8 393C741.267 391.667 742 389.95 742 387.85C742 386.35 741.783 385.067 741.35 384C740.95 382.933 740.417 382.05 739.75 381.35L742.05 380.4C741.05 382.1 740.017 383.5 738.95 384.6C737.917 385.7 736.867 386.533 735.8 387.1C734.767 387.633 733.733 387.9 732.7 387.9C731.933 387.9 731.217 387.8 730.55 387.6C729.883 387.367 729.317 387.033 728.85 386.6C728.317 386.133 727.867 385.483 727.5 384.65C727.133 383.783 726.95 382.35 726.95 380.35V372.45H712.5V368.9H749.1ZM762.396 368.9V372.45H757.146V400H753.296V376.55C752.896 375.417 752.296 374.45 751.496 373.65C750.729 372.85 749.729 372.45 748.496 372.45H748.096V368.9H748.846C749.646 368.9 750.479 369.167 751.346 369.7C752.212 370.2 752.912 370.983 753.446 372.05C753.412 371.883 753.379 371.5 753.346 370.9C753.312 370.3 753.296 369.783 753.296 369.35V365.6H755.996L757.096 368.9H762.396ZM802.727 368.9V372.45H786.477V375.55V376.35V400H782.627C781.66 398.033 780.31 396.183 778.577 394.45C776.844 392.717 774.86 391.267 772.627 390.1C770.427 388.9 768.11 388.15 765.677 387.85L763.727 383.05C766.96 381.183 770.194 379.517 773.427 378.05C776.66 376.583 780.094 375.283 783.727 374.15L782.627 376.25V372.45H761.377V368.9H802.727ZM782.627 376.65L783.677 378.1C781.977 378.567 780.21 379.183 778.377 379.95C776.577 380.717 774.81 381.517 773.077 382.35C771.377 383.183 769.81 384 768.377 384.8C770.244 385.167 772.16 385.867 774.127 386.9C776.127 387.933 777.944 389.2 779.577 390.7C781.244 392.167 782.477 393.767 783.277 395.5L782.877 395.6C782.81 394.833 782.744 394.067 782.677 393.3C782.644 392.533 782.627 391.617 782.627 390.55V376.65ZM799.927 385.6C799.927 386.7 799.71 387.75 799.277 388.75C798.844 389.717 798.127 390.517 797.127 391.15C796.127 391.783 794.794 392.1 793.127 392.1C792.594 392.1 792.077 392.083 791.577 392.05C791.11 392.017 790.644 391.95 790.177 391.85L790.477 388.25C790.677 388.283 790.91 388.317 791.177 388.35C791.477 388.35 791.81 388.35 792.177 388.35C793.777 388.35 794.81 388.05 795.277 387.45C795.777 386.817 796.027 386.067 796.027 385.2C796.027 383.433 795.16 381.933 793.427 380.7C791.727 379.433 789.194 378.567 785.827 378.1L785.977 374.35C788.544 374.617 790.877 375.267 792.977 376.3C795.077 377.3 796.76 378.6 798.027 380.2C799.294 381.767 799.927 383.567 799.927 385.6ZM833.489 368.9V372.45H828.239V400H824.389V372.45H819.189V368.9H823.789C823.256 368.267 822.706 367.6 822.139 366.9C821.606 366.2 821.123 365.5 820.689 364.8C821.823 362.833 823.039 361.05 824.339 359.45C825.639 357.817 827.173 356.533 828.939 355.6C830.706 354.633 832.839 354.15 835.339 354.15C837.106 354.15 838.789 354.367 840.389 354.8C842.023 355.233 843.623 355.867 845.189 356.7C846.756 357.5 848.339 358.483 849.939 359.65C851.539 360.783 853.206 362.05 854.939 363.45L852.839 366.15C850.539 364.283 848.456 362.733 846.589 361.5C844.756 360.267 842.989 359.35 841.289 358.75C839.623 358.117 837.839 357.8 835.939 357.8C834.106 357.8 832.506 358.117 831.139 358.75C829.806 359.383 828.639 360.267 827.639 361.4C826.673 362.533 825.789 363.85 824.989 365.35C825.256 365.85 825.623 366.4 826.089 367C826.556 367.6 827.089 368.233 827.689 368.9H833.489ZM863.271 368.9V372.45H858.021V400H854.171C853.171 398 851.787 396.167 850.021 394.5C848.287 392.8 846.287 391.367 844.021 390.2C841.754 389.033 839.337 388.25 836.771 387.85L834.821 383.05C838.021 381.117 841.321 379.367 844.721 377.8C848.154 376.233 851.687 374.9 855.321 373.8L854.171 375.9V372.45H832.471V368.9H863.271ZM854.171 376.3L855.221 377.7C852.687 378.533 850.021 379.567 847.221 380.8C844.421 382 841.837 383.333 839.471 384.8C841.271 385.2 843.187 385.883 845.221 386.85C847.254 387.817 849.137 389.033 850.871 390.5C852.604 391.967 853.937 393.667 854.871 395.6H854.421C854.354 394.833 854.287 394.067 854.221 393.3C854.187 392.533 854.171 391.617 854.171 390.55V376.3ZM883.856 397.85C881.689 397.85 879.656 397.5 877.756 396.8C875.856 396.1 874.073 394.933 872.406 393.3C870.773 391.667 869.273 389.5 867.906 386.8C866.539 384.1 865.306 380.75 864.206 376.75L868.006 375.75C869.206 380.15 870.556 383.7 872.056 386.4C873.589 389.067 875.306 391.017 877.206 392.25C879.139 393.45 881.323 394.05 883.756 394.05C885.523 394.05 887.023 393.733 888.256 393.1C889.523 392.467 890.489 391.6 891.156 390.5C891.823 389.367 892.156 388.083 892.156 386.65C892.156 385.65 892.056 384.75 891.856 383.95C891.656 383.15 891.373 382.433 891.006 381.8C890.673 381.133 890.289 380.567 889.856 380.1L892.256 376.2C893.523 378.033 894.456 379.817 895.056 381.55C895.656 383.283 895.956 385 895.956 386.7C895.956 388.8 895.489 390.7 894.556 392.4C893.623 394.067 892.256 395.4 890.456 396.4C888.689 397.367 886.489 397.85 883.856 397.85ZM881.956 385.8C879.856 385.8 878.206 385.283 877.006 384.25C875.806 383.183 875.206 381.733 875.206 379.9C875.206 379.133 875.323 378.383 875.556 377.65C875.789 376.883 876.039 376.233 876.306 375.7L880.306 376.9C880.073 377.233 879.856 377.65 879.656 378.15C879.456 378.65 879.356 379.167 879.356 379.7C879.356 380.6 879.606 381.25 880.106 381.65C880.606 382.05 881.256 382.25 882.056 382.25C882.756 382.25 883.456 382.117 884.156 381.85C884.856 381.583 885.606 381.067 886.406 380.3C887.239 379.5 888.139 378.3 889.106 376.7L892.256 376.2L891.856 378.9C890.956 380.4 890.006 381.667 889.006 382.7C888.039 383.7 886.973 384.467 885.806 385C884.673 385.533 883.389 385.8 881.956 385.8ZM899.306 368.9V372.45H862.256V368.9H899.306ZM912.591 368.9V372.45H907.341V400H903.491V376.55C903.091 375.417 902.491 374.45 901.691 373.65C900.924 372.85 899.924 372.45 898.691 372.45H898.291V368.9H899.041C899.841 368.9 900.674 369.167 901.541 369.7C902.408 370.2 903.108 370.983 903.641 372.05C903.608 371.883 903.574 371.5 903.541 370.9C903.508 370.3 903.491 369.783 903.491 369.35V365.6H906.191L907.291 368.9H912.591ZM929.872 368.9V372.45H928.872C927.839 372.683 926.722 373.2 925.522 374C924.322 374.767 923.189 375.783 922.122 377.05C921.056 378.283 920.172 379.733 919.472 381.4C918.806 383.067 918.472 384.9 918.472 386.9C918.472 389.3 918.822 391.217 919.522 392.65C920.256 394.05 921.156 395.05 922.222 395.65C923.289 396.25 924.356 396.55 925.422 396.55C926.256 396.55 926.956 396.467 927.522 396.3C928.089 396.133 928.739 395.833 929.472 395.4L931.222 398.45C930.356 399.117 929.406 399.583 928.372 399.85C927.339 400.117 926.306 400.25 925.272 400.25C923.172 400.25 921.306 399.7 919.672 398.6C918.072 397.5 916.806 395.967 915.872 394C914.972 392 914.522 389.667 914.522 387C914.522 384.267 915.039 381.8 916.072 379.6C917.106 377.367 918.489 375.483 920.222 373.95C921.989 372.417 923.939 371.3 926.072 370.6L922.872 372.25C922.272 372.317 921.622 372.367 920.922 372.4C920.222 372.433 919.439 372.45 918.572 372.45H911.572V368.9H929.872ZM953.557 400V378.75L954.607 381.9C953.441 380.233 952.341 378.8 951.307 377.6C950.307 376.367 949.341 375.35 948.407 374.55C947.474 373.75 946.524 373.167 945.557 372.8C944.591 372.4 943.574 372.2 942.507 372.2C940.741 372.2 939.307 372.667 938.207 373.6C937.141 374.5 936.191 375.55 935.357 376.75L934.657 377.15C935.124 376.717 935.841 376.367 936.807 376.1C937.774 375.8 938.891 375.65 940.157 375.65C941.691 375.65 942.924 375.95 943.857 376.55C944.824 377.15 945.524 377.917 945.957 378.85C946.424 379.75 946.657 380.65 946.657 381.55C946.657 383.517 945.991 385.283 944.657 386.85C943.324 388.383 941.257 389.9 938.457 391.4L935.907 387.75C937.741 386.983 939.324 386.133 940.657 385.2C941.991 384.233 942.657 383.083 942.657 381.75C942.657 381.017 942.374 380.4 941.807 379.9C941.241 379.4 940.424 379.15 939.357 379.15C938.491 379.15 937.674 379.25 936.907 379.45C936.174 379.65 935.374 379.967 934.507 380.4L930.457 377.1C931.491 375.367 932.591 373.867 933.757 372.6C934.924 371.3 936.191 370.3 937.557 369.6C938.957 368.9 940.474 368.55 942.107 368.55C943.774 368.55 945.291 368.85 946.657 369.45C948.057 370.017 949.407 370.883 950.707 372.05C952.041 373.217 953.374 374.667 954.707 376.4L953.807 375.85C953.741 375.383 953.674 374.667 953.607 373.7C953.574 372.733 953.557 371.75 953.557 370.75V365.6H956.207L957.357 368.9H962.657V372.45H957.407V400H953.557ZM992.47 368.9V372.45H987.22V400H983.37C982.37 398 980.987 396.167 979.22 394.5C977.487 392.8 975.487 391.367 973.22 390.2C970.953 389.033 968.537 388.25 965.97 387.85L964.02 383.05C967.22 381.117 970.52 379.367 973.92 377.8C977.353 376.233 980.887 374.9 984.52 373.8L983.37 375.9V372.45H961.67V368.9H992.47ZM983.37 376.3L984.42 377.7C981.887 378.533 979.22 379.567 976.42 380.8C973.62 382 971.037 383.333 968.67 384.8C970.47 385.2 972.387 385.883 974.42 386.85C976.453 387.817 978.337 389.033 980.07 390.5C981.803 391.967 983.137 393.667 984.07 395.6H983.62C983.553 394.833 983.487 394.067 983.42 393.3C983.387 392.533 983.37 391.617 983.37 390.55V376.3ZM971.42 400.3C970.587 400.3 969.87 400.033 969.27 399.5C968.703 398.967 968.42 398.267 968.42 397.4C968.42 396.533 968.703 395.817 969.27 395.25C969.87 394.683 970.587 394.4 971.42 394.4C972.253 394.4 972.953 394.683 973.52 395.25C974.12 395.817 974.42 396.533 974.42 397.4C974.42 398.267 974.12 398.967 973.52 399.5C972.953 400.033 972.253 400.3 971.42 400.3ZM1023.24 368.9V372.45H1017.99V400H1014.14V372.45H1008.94V368.9H1013.54C1013 368.267 1012.45 367.6 1011.89 366.9C1011.35 366.2 1010.87 365.5 1010.44 364.8C1011.57 362.833 1012.79 361.05 1014.09 359.45C1015.39 357.817 1016.92 356.533 1018.69 355.6C1020.45 354.633 1022.59 354.15 1025.09 354.15C1026.85 354.15 1028.54 354.367 1030.14 354.8C1031.77 355.233 1033.37 355.867 1034.94 356.7C1036.5 357.5 1038.09 358.483 1039.69 359.65C1041.29 360.783 1042.95 362.05 1044.69 363.45L1042.59 366.15C1040.29 364.283 1038.2 362.733 1036.34 361.5C1034.5 360.267 1032.74 359.35 1031.04 358.75C1029.37 358.117 1027.59 357.8 1025.69 357.8C1023.85 357.8 1022.25 358.117 1020.89 358.75C1019.55 359.383 1018.39 360.267 1017.39 361.4C1016.42 362.533 1015.54 363.85 1014.74 365.35C1015 365.85 1015.37 366.4 1015.84 367C1016.3 367.6 1016.84 368.233 1017.44 368.9H1023.24ZM1058.82 368.9V372.45H1040.52V381.4C1040.52 382.367 1040.67 383.083 1040.97 383.55C1041.27 383.983 1041.73 384.2 1042.37 384.2C1043 384.2 1043.65 384 1044.32 383.6C1045.02 383.2 1045.77 382.567 1046.57 381.7C1047.37 380.833 1048.23 379.717 1049.17 378.35L1052.17 377.9C1053.23 379.467 1054.05 381.083 1054.62 382.75C1055.22 384.417 1055.52 386.083 1055.52 387.75C1055.52 389.85 1055.05 391.733 1054.12 393.4C1053.22 395.067 1051.87 396.383 1050.07 397.35C1048.3 398.317 1046.13 398.8 1043.57 398.8C1041.37 398.8 1039.32 398.417 1037.42 397.65C1035.52 396.883 1033.77 395.65 1032.17 393.95C1030.57 392.217 1029.1 389.95 1027.77 387.15C1026.43 384.317 1025.23 380.85 1024.17 376.75L1027.97 375.75C1029.17 380.383 1030.48 384.117 1031.92 386.95C1033.38 389.75 1035.05 391.8 1036.92 393.1C1038.78 394.367 1040.93 395 1043.37 395C1046.03 395 1048.08 394.333 1049.52 393C1050.98 391.667 1051.72 389.95 1051.72 387.85C1051.72 386.35 1051.5 385.067 1051.07 384C1050.67 382.933 1050.13 382.05 1049.47 381.35L1051.77 380.4C1050.77 382.1 1049.73 383.5 1048.67 384.6C1047.63 385.7 1046.58 386.533 1045.52 387.1C1044.48 387.633 1043.45 387.9 1042.42 387.9C1041.65 387.9 1040.93 387.8 1040.27 387.6C1039.6 387.367 1039.03 387.033 1038.57 386.6C1038.03 386.133 1037.58 385.483 1037.22 384.65C1036.85 383.783 1036.67 382.35 1036.67 380.35V372.45H1022.22V368.9H1058.82ZM1072.11 368.9V372.45H1066.86V400H1063.01V372.45H1057.81V368.9H1062.41C1061.88 368.267 1061.33 367.583 1060.76 366.85C1060.23 366.117 1059.75 365.4 1059.31 364.7C1060.65 362.733 1062.08 360.95 1063.61 359.35C1065.18 357.75 1067 356.483 1069.06 355.55C1071.16 354.617 1073.66 354.15 1076.56 354.15C1078.73 354.15 1080.76 354.367 1082.66 354.8C1084.6 355.2 1086.48 355.8 1088.31 356.6C1090.15 357.4 1092 358.35 1093.86 359.45C1095.73 360.55 1097.68 361.8 1099.71 363.2L1097.71 366C1095.58 364.6 1093.65 363.383 1091.91 362.35C1090.21 361.317 1088.58 360.467 1087.01 359.8C1085.45 359.133 1083.86 358.633 1082.26 358.3C1080.7 357.967 1078.98 357.8 1077.11 357.8C1074.81 357.8 1072.85 358.133 1071.21 358.8C1069.58 359.467 1068.16 360.367 1066.96 361.5C1065.76 362.633 1064.66 363.917 1063.66 365.35C1063.9 365.85 1064.25 366.4 1064.71 367C1065.18 367.6 1065.71 368.233 1066.31 368.9H1072.11ZM1091.64 396.85C1089.68 396.85 1087.79 396.5 1085.99 395.8C1084.19 395.1 1082.49 393.983 1080.89 392.45C1079.33 390.883 1077.88 388.817 1076.54 386.25C1075.24 383.65 1074.08 380.483 1073.04 376.75L1076.84 375.75C1077.98 379.85 1079.24 383.183 1080.64 385.75C1082.04 388.283 1083.66 390.133 1085.49 391.3C1087.33 392.467 1089.43 393.05 1091.79 393.05C1094.26 393.05 1096.13 392.517 1097.39 391.45C1098.66 390.383 1099.29 388.767 1099.29 386.6C1099.29 385.567 1099.16 384.683 1098.89 383.95C1098.63 383.217 1098.36 382.6 1098.09 382.1H1101.09C1100.16 383.067 1099.18 383.933 1098.14 384.7C1097.14 385.467 1096.06 386.067 1094.89 386.5C1093.76 386.933 1092.51 387.15 1091.14 387.15C1089.84 387.15 1088.69 386.9 1087.69 386.4C1086.69 385.9 1085.91 385.183 1085.34 384.25C1084.78 383.283 1084.49 382.133 1084.49 380.8C1084.49 379.333 1085.01 377.85 1086.04 376.35C1087.08 374.817 1088.83 373.483 1091.29 372.35C1090.63 372.383 1089.86 372.417 1088.99 372.45C1088.16 372.45 1087.33 372.45 1086.49 372.45H1071.09V368.9H1117.94V372.45H1102.29C1101.49 372.45 1100.78 372.433 1100.14 372.4C1099.51 372.367 1098.91 372.333 1098.34 372.3C1095.54 373.567 1093.43 374.717 1091.99 375.75C1090.56 376.783 1089.59 377.733 1089.09 378.6C1088.59 379.433 1088.34 380.233 1088.34 381C1088.34 381.933 1088.61 382.6 1089.14 383C1089.68 383.4 1090.28 383.6 1090.94 383.6C1092.21 383.6 1093.34 383.317 1094.34 382.75C1095.34 382.15 1096.48 381.3 1097.74 380.2L1102.04 381.75C1102.34 382.417 1102.59 383.25 1102.79 384.25C1102.99 385.217 1103.09 386.233 1103.09 387.3C1103.09 388.967 1102.71 390.533 1101.94 392C1101.21 393.433 1099.99 394.6 1098.29 395.5C1096.63 396.4 1094.41 396.85 1091.64 396.85ZM1111.64 389.75C1111.64 391.383 1111.78 392.95 1112.04 394.45C1112.31 395.95 1112.76 397.633 1113.39 399.5L1109.64 400.35C1109.04 398.417 1108.58 396.533 1108.24 394.7C1107.91 392.833 1107.74 390.9 1107.74 388.9C1107.74 387.133 1107.89 385.55 1108.19 384.15C1108.53 382.75 1108.91 381.567 1109.34 380.6C1106.81 380.567 1104.64 380.25 1102.84 379.65C1101.08 379.017 1099.59 378.133 1098.39 377C1097.19 375.833 1096.18 374.45 1095.34 372.85L1099.14 372.05C1099.68 373.017 1100.34 373.883 1101.14 374.65C1101.98 375.383 1103.04 375.967 1104.34 376.4C1105.64 376.833 1107.24 377.05 1109.14 377.05C1109.61 377.05 1110.06 377.033 1110.49 377C1110.93 376.967 1111.39 376.933 1111.89 376.9L1113.84 380.4C1113.04 381.9 1112.48 383.367 1112.14 384.8C1111.81 386.233 1111.64 387.883 1111.64 389.75ZM1146.29 368.9V372.45H1126.04V389.75C1126.04 391.217 1126.13 392.25 1126.29 392.85C1126.46 393.45 1126.66 393.883 1126.89 394.15C1127.49 394.85 1128.41 395.2 1129.64 395.2C1130.94 395.2 1132.18 394.883 1133.34 394.25C1134.51 393.617 1135.53 392.833 1136.39 391.9C1137.36 390.867 1138.09 389.767 1138.59 388.6C1139.13 387.433 1139.39 386.25 1139.39 385.05C1139.39 383.983 1139.13 383.183 1138.59 382.65C1138.06 382.083 1137.18 381.8 1135.94 381.8C1135.54 381.8 1135.11 381.833 1134.64 381.9C1134.18 381.967 1133.73 382.05 1133.29 382.15L1132.74 378.6C1133.38 378.433 1134.03 378.3 1134.69 378.2C1135.39 378.1 1136.13 378.05 1136.89 378.05C1138.13 378.05 1139.23 378.283 1140.19 378.75C1141.16 379.217 1141.91 379.95 1142.44 380.95C1143.01 381.95 1143.29 383.25 1143.29 384.85C1143.29 386.817 1142.81 388.733 1141.84 390.6C1140.88 392.433 1139.66 393.983 1138.19 395.25C1136.96 396.317 1135.61 397.183 1134.14 397.85C1132.71 398.483 1131.13 398.8 1129.39 398.8C1128.16 398.8 1127.09 398.617 1126.19 398.25C1125.33 397.883 1124.61 397.417 1124.04 396.85C1123.51 396.217 1123.06 395.45 1122.69 394.55C1122.36 393.65 1122.19 392.283 1122.19 390.45V372.45H1116.94V368.9H1146.29ZM1137.19 368.9C1137.16 367.533 1136.83 366.55 1136.19 365.95C1135.59 365.35 1134.59 365.05 1133.19 365.05H1128.49C1126.33 365.05 1124.64 364.9 1123.44 364.6C1122.28 364.3 1121.28 363.833 1120.44 363.2C1119.54 362.533 1118.86 361.683 1118.39 360.65C1117.96 359.583 1117.74 358.383 1117.74 357.05C1117.74 356.617 1117.76 356.2 1117.79 355.8C1117.86 355.367 1117.93 354.9 1117.99 354.4L1121.69 354.65C1121.63 355.017 1121.58 355.35 1121.54 355.65C1121.51 355.917 1121.49 356.217 1121.49 356.55C1121.49 357.283 1121.56 357.933 1121.69 358.5C1121.86 359.067 1122.11 359.533 1122.44 359.9C1122.91 360.433 1123.58 360.833 1124.44 361.1C1125.34 361.333 1126.61 361.45 1128.24 361.45H1132.14C1133.91 361.45 1135.31 361.583 1136.34 361.85C1137.38 362.117 1138.26 362.6 1138.99 363.3C1139.56 363.833 1139.99 364.567 1140.29 365.5C1140.59 366.4 1140.76 367.533 1140.79 368.9H1137.19ZM1159.61 368.9V372.45H1154.36V400H1150.51V376.55C1150.11 375.417 1149.51 374.45 1148.71 373.65C1147.95 372.85 1146.95 372.45 1145.71 372.45H1145.31V368.9H1146.06C1146.86 368.9 1147.7 369.167 1148.56 369.7C1149.43 370.2 1150.13 370.983 1150.66 372.05C1150.63 371.883 1150.6 371.5 1150.56 370.9C1150.53 370.3 1150.51 369.783 1150.51 369.35V365.6H1153.21L1154.31 368.9H1159.61ZM1196.14 368.9V372.45H1190.89V400H1187.04V383.25L1187.34 384.55C1186.61 383.483 1185.83 382.633 1184.99 382C1184.19 381.367 1183.31 381.05 1182.34 381.05C1181.84 381.05 1181.33 381.15 1180.79 381.35C1180.29 381.517 1179.86 381.85 1179.49 382.35C1179.16 382.85 1178.99 383.617 1178.99 384.65C1178.99 385.017 1178.99 385.35 1178.99 385.65C1179.03 385.917 1179.06 386.183 1179.09 386.45L1175.84 386.7C1175.71 385.333 1175.34 384.183 1174.74 383.25C1174.14 382.283 1173.41 381.55 1172.54 381.05C1171.68 380.55 1170.74 380.3 1169.74 380.3C1168.84 380.3 1168.08 380.483 1167.44 380.85C1166.81 381.183 1166.33 381.65 1165.99 382.25C1165.66 382.817 1165.49 383.467 1165.49 384.2C1165.49 385.533 1165.98 386.667 1166.94 387.6C1167.94 388.533 1169.34 389.317 1171.14 389.95L1169.79 393.65C1168.19 393.15 1166.76 392.467 1165.49 391.6C1164.23 390.733 1163.23 389.667 1162.49 388.4C1161.76 387.133 1161.39 385.667 1161.39 384C1161.39 382.5 1161.76 381.217 1162.49 380.15C1163.23 379.05 1164.21 378.2 1165.44 377.6C1166.68 377 1168.03 376.7 1169.49 376.7C1171.26 376.7 1172.78 377.033 1174.04 377.7C1175.31 378.333 1176.48 379.367 1177.54 380.8L1176.79 380.85C1177.13 379.75 1177.76 378.917 1178.69 378.35C1179.66 377.75 1180.66 377.45 1181.69 377.45C1182.89 377.45 1183.93 377.683 1184.79 378.15C1185.66 378.617 1186.61 379.283 1187.64 380.15L1187.19 380.9C1187.16 380.2 1187.13 379.5 1187.09 378.8C1187.06 378.1 1187.04 377.383 1187.04 376.65V372.45H1158.59V368.9H1196.14ZM1230.95 368.9V372.45H1229.95C1228.91 372.683 1227.8 373.2 1226.6 374C1225.4 374.767 1224.26 375.783 1223.2 377.05C1222.13 378.283 1221.25 379.733 1220.55 381.4C1219.88 383.067 1219.55 384.9 1219.55 386.9C1219.55 389.3 1219.9 391.217 1220.6 392.65C1221.33 394.05 1222.23 395.05 1223.3 395.65C1224.36 396.25 1225.43 396.55 1226.5 396.55C1227.33 396.55 1228.03 396.467 1228.6 396.3C1229.16 396.133 1229.81 395.833 1230.55 395.4L1232.3 398.45C1231.43 399.117 1230.48 399.583 1229.45 399.85C1228.41 400.117 1227.36 400.25 1226.3 400.25C1224.2 400.25 1222.35 399.7 1220.75 398.6C1219.15 397.5 1217.88 395.967 1216.95 394C1216.05 392 1215.6 389.667 1215.6 387C1215.6 384.433 1216 382.15 1216.8 380.15C1217.63 378.117 1218.7 376.35 1220 374.85C1221.33 373.35 1222.76 372.117 1224.3 371.15C1225.83 370.15 1227.31 369.4 1228.75 368.9H1230.95ZM1267.48 368.9V372.45H1262.23V400H1258.38V383.25L1258.68 384.55C1257.95 383.483 1257.16 382.633 1256.33 382C1255.53 381.367 1254.65 381.05 1253.68 381.05C1253.18 381.05 1252.66 381.15 1252.13 381.35C1251.63 381.517 1251.2 381.85 1250.83 382.35C1250.5 382.85 1250.33 383.617 1250.33 384.65C1250.33 385.017 1250.33 385.35 1250.33 385.65C1250.36 385.917 1250.4 386.183 1250.43 386.45L1247.18 386.7C1247.05 385.333 1246.68 384.183 1246.08 383.25C1245.48 382.283 1244.75 381.55 1243.88 381.05C1243.01 380.55 1242.08 380.3 1241.08 380.3C1240.18 380.3 1239.41 380.483 1238.78 380.85C1238.15 381.183 1237.66 381.65 1237.33 382.25C1237 382.817 1236.83 383.467 1236.83 384.2C1236.83 385.533 1237.31 386.667 1238.28 387.6C1239.28 388.533 1240.68 389.317 1242.48 389.95L1241.13 393.65C1239.53 393.15 1238.1 392.467 1236.83 391.6C1235.56 390.733 1234.56 389.667 1233.83 388.4C1233.1 387.133 1232.73 385.667 1232.73 384C1232.73 382.5 1233.1 381.217 1233.83 380.15C1234.56 379.05 1235.55 378.2 1236.78 377.6C1238.01 377 1239.36 376.7 1240.83 376.7C1242.6 376.7 1244.11 377.033 1245.38 377.7C1246.65 378.333 1247.81 379.367 1248.88 380.8L1248.13 380.85C1248.46 379.75 1249.1 378.917 1250.03 378.35C1251 377.75 1252 377.45 1253.03 377.45C1254.23 377.45 1255.26 377.683 1256.13 378.15C1257 378.617 1257.95 379.283 1258.98 380.15L1258.53 380.9C1258.5 380.2 1258.46 379.5 1258.43 378.8C1258.4 378.1 1258.38 377.383 1258.38 376.65V372.45H1229.93V368.9H1267.48ZM1297.7 368.9V372.45H1292.45V400H1288.6V387.85L1289.4 390.65C1288.3 389.117 1287.1 387.733 1285.8 386.5C1284.5 385.267 1283.17 384.283 1281.8 383.55C1280.44 382.817 1279.1 382.45 1277.8 382.45C1276.57 382.45 1275.52 382.783 1274.65 383.45C1273.82 384.083 1273.4 385.033 1273.4 386.3C1273.4 387.3 1273.75 388.167 1274.45 388.9C1275.15 389.6 1276.24 390.233 1277.7 390.8L1275.8 394.35C1273.77 393.517 1272.17 392.4 1271 391C1269.87 389.567 1269.3 387.95 1269.3 386.15C1269.3 384.517 1269.69 383.167 1270.45 382.1C1271.25 381 1272.25 380.183 1273.45 379.65C1274.69 379.117 1275.94 378.85 1277.2 378.85C1278.94 378.85 1280.52 379.15 1281.95 379.75C1283.39 380.35 1284.72 381.167 1285.95 382.2C1287.22 383.233 1288.42 384.433 1289.55 385.8L1288.85 386C1288.75 385.233 1288.69 384.483 1288.65 383.75C1288.62 382.983 1288.6 382.217 1288.6 381.45V372.45H1266.5V368.9H1297.7ZM1314.98 368.9V372.45H1313.98C1312.95 372.683 1311.83 373.2 1310.63 374C1309.43 374.767 1308.3 375.783 1307.23 377.05C1306.16 378.283 1305.28 379.733 1304.58 381.4C1303.91 383.067 1303.58 384.9 1303.58 386.9C1303.58 389.3 1303.93 391.217 1304.63 392.65C1305.36 394.05 1306.26 395.05 1307.33 395.65C1308.4 396.25 1309.46 396.55 1310.53 396.55C1311.36 396.55 1312.06 396.467 1312.63 396.3C1313.2 396.133 1313.85 395.833 1314.58 395.4L1316.33 398.45C1315.46 399.117 1314.51 399.583 1313.48 399.85C1312.45 400.117 1311.41 400.25 1310.38 400.25C1308.28 400.25 1306.41 399.7 1304.78 398.6C1303.18 397.5 1301.91 395.967 1300.98 394C1300.08 392 1299.63 389.667 1299.63 387C1299.63 384.267 1300.15 381.8 1301.18 379.6C1302.21 377.367 1303.6 375.483 1305.33 373.95C1307.1 372.417 1309.05 371.3 1311.18 370.6L1307.98 372.25C1307.38 372.317 1306.73 372.367 1306.03 372.4C1305.33 372.433 1304.55 372.45 1303.68 372.45H1296.68V368.9H1314.98ZM1345.11 368.9V372.45H1322.41V387.35L1321.71 386.35C1323.05 384.85 1324.56 383.45 1326.26 382.15C1327.96 380.85 1329.81 379.667 1331.81 378.6C1333.81 377.5 1335.95 376.533 1338.21 375.7L1341.46 378.9C1340.83 380.067 1340.31 381.2 1339.91 382.3C1339.55 383.4 1339.26 384.55 1339.06 385.75C1338.9 386.95 1338.81 388.283 1338.81 389.75C1338.81 391.383 1338.95 392.95 1339.21 394.45C1339.48 395.95 1339.93 397.633 1340.56 399.5L1336.81 400.35C1336.21 398.417 1335.75 396.533 1335.41 394.7C1335.08 392.833 1334.91 390.9 1334.91 388.9C1334.91 387.533 1335.01 386.25 1335.21 385.05C1335.41 383.85 1335.68 382.783 1336.01 381.85C1336.38 380.883 1336.75 380.1 1337.11 379.5L1337.71 379.75C1335.81 380.517 1333.96 381.45 1332.16 382.55C1330.36 383.65 1328.6 384.917 1326.86 386.35C1325.13 387.783 1323.35 389.417 1321.51 391.25L1318.56 389.25V372.45H1313.96V368.9H1345.11ZM1375.29 368.9V372.45H1370.04V400H1366.19V387.85L1366.99 390.65C1365.89 389.117 1364.69 387.733 1363.39 386.5C1362.09 385.267 1360.76 384.283 1359.39 383.55C1358.03 382.817 1356.69 382.45 1355.39 382.45C1354.16 382.45 1353.11 382.783 1352.24 383.45C1351.41 384.083 1350.99 385.033 1350.99 386.3C1350.99 387.3 1351.34 388.167 1352.04 388.9C1352.74 389.6 1353.83 390.233 1355.29 390.8L1353.39 394.35C1351.36 393.517 1349.76 392.4 1348.59 391C1347.46 389.567 1346.89 387.95 1346.89 386.15C1346.89 384.517 1347.28 383.167 1348.04 382.1C1348.84 381 1349.84 380.183 1351.04 379.65C1352.28 379.117 1353.53 378.85 1354.79 378.85C1356.53 378.85 1358.11 379.15 1359.54 379.75C1360.98 380.35 1362.31 381.167 1363.54 382.2C1364.81 383.233 1366.01 384.433 1367.14 385.8L1366.44 386C1366.34 385.233 1366.28 384.483 1366.24 383.75C1366.21 382.983 1366.19 382.217 1366.19 381.45V372.45H1344.09V368.9H1375.29Z" fill="#EC1C24"/>
<path d="M572.4 31.8C577.2 31.8 581.8 32.2 586.2 33C590.733 33.8 594.933 34.8 598.8 36C602.667 37.2 606.133 38.6 609.2 40.2C612.4 41.6667 615.133 43.2 617.4 44.8L605.8 66.8C604.2 66 602.267 65 600 63.8C597.733 62.4667 595.267 61.2 592.6 60C590.067 58.8 587.4 57.8 584.6 57C581.933 56.2 579.333 55.8 576.8 55.8C572.133 55.8 568.667 56.8 566.4 58.8C564.133 60.6667 563 63.0667 563 66C563.133 68.2667 563.667 70.2667 564.6 72C565.533 73.7333 566.933 75.4667 568.8 77.2C570.667 78.8 573.067 80.4 576 82C578.933 83.6 582.533 85.2667 586.8 87C592.133 89.2667 596.8 91.6 600.8 94C604.8 96.4 608.067 99.1333 610.6 102.2C613.267 105.267 615.267 108.733 616.6 112.6C617.933 116.467 618.6 120.933 618.6 126C618.6 132.133 617.467 137.933 615.2 143.4C613.067 148.733 609.933 153.4 605.8 157.4C601.667 161.4 596.667 164.533 590.8 166.8C584.933 169.067 578.333 170.2 571 170.2C565.8 170.2 560.8 169.733 556 168.8C551.333 167.867 547 166.667 543 165.2C539 163.733 535.333 162.2 532 160.6C528.667 158.867 525.8 157.267 523.4 155.8L534.2 132.2C535.133 132.867 536.867 134 539.4 135.6C541.933 137.067 544.8 138.6 548 140.2C551.2 141.667 554.467 143 557.8 144.2C561.133 145.4 564.133 146 566.8 146C572.4 146 576.467 144.733 579 142.2C581.667 139.533 583 135.8 583 131C583 126.2 581.333 122.6 578 120.2C574.8 117.667 570.2 115.2 564.2 112.8C558.333 110.4 553.133 107.867 548.6 105.2C544.067 102.533 540.2 99.5333 537 96.2C533.933 92.8667 531.533 89.1333 529.8 85C528.2 80.8667 527.4 76.0667 527.4 70.6C527.4 64.6 528.6 59.2667 531 54.6C533.533 49.8 536.867 45.7333 541 42.4C545.133 38.9333 549.867 36.3333 555.2 34.6C560.667 32.7333 566.4 31.8 572.4 31.8ZM694.873 31.8C705.407 31.8 714.473 33.4 722.073 36.6C729.673 39.8 735.94 44.3333 740.873 50.2C745.807 56.0667 749.407 63.2667 751.673 71.8C754.073 80.2 755.273 89.6667 755.273 100.2C755.273 110.6 753.94 120.133 751.273 128.8C748.74 137.333 744.873 144.667 739.673 150.8C734.473 156.933 727.94 161.733 720.073 165.2C712.207 168.533 702.94 170.2 692.273 170.2C681.74 170.2 672.607 168.733 664.873 165.8C657.273 162.733 651.007 158.333 646.073 152.6C641.14 146.733 637.473 139.667 635.073 131.4C632.807 123.133 631.673 113.667 631.673 103C631.673 92.6 632.94 83.0667 635.473 74.4C638.14 65.6 642.073 58.0667 647.273 51.8C652.473 45.4 659.007 40.4667 666.873 37C674.873 33.5333 684.207 31.8 694.873 31.8ZM692.073 55.2C683.407 55.2 677.073 59.2667 673.073 67.4C669.207 75.4 667.273 86.5333 667.273 100.8C667.273 107.6 667.673 113.8 668.473 119.4C669.407 125 670.873 129.867 672.873 134C675.007 138 677.873 141.133 681.473 143.4C685.073 145.667 689.607 146.8 695.073 146.8C703.74 146.8 710.007 142.933 713.873 135.2C717.74 127.467 719.673 116.467 719.673 102.2C719.673 95.4 719.207 89.1333 718.273 83.4C717.473 77.6667 716.007 72.7333 713.873 68.6C711.873 64.3333 709.073 61.0667 705.473 58.8C701.873 56.4 697.407 55.2 692.073 55.2ZM852.345 66.6C848.612 62.0667 845.012 59.0667 841.545 57.6C838.079 56 834.612 55.2 831.145 55.2C822.479 55.2 816.145 59.2667 812.145 67.4C808.279 75.4 806.345 86.5333 806.345 100.8C806.345 107.6 806.745 113.867 807.545 119.6C808.479 125.2 810.012 130 812.145 134C814.279 138 817.079 141.133 820.545 143.4C824.145 145.667 828.612 146.8 833.945 146.8C838.612 146.8 843.145 146.267 847.545 145.2C852.079 144 856.212 142.667 859.945 141.2L867.145 163.6C863.012 165.333 857.812 166.867 851.545 168.2C845.279 169.533 838.079 170.2 829.945 170.2C809.412 170.2 794.412 164.4 784.945 152.8C775.479 141.067 770.745 124.467 770.745 103C770.745 92.6 771.945 83.0667 774.345 74.4C776.879 65.7333 780.612 58.2667 785.545 52C790.612 45.6 796.879 40.6667 804.345 37.2C811.945 33.6 820.879 31.8 831.145 31.8C836.479 31.8 841.145 32.2667 845.145 33.2C849.279 34.1333 852.879 35.4 855.945 37C859.012 38.4667 861.679 40.2 863.945 42.2C866.345 44.2 868.479 46.2667 870.345 48.4L852.345 66.6Z" fill="#EC1C24"/>
<path d="M936.088 33.6C937.021 33.6 939.221 33.6 942.688 33.6C946.288 33.4667 950.221 33.4 954.488 33.4C958.754 33.4 963.021 33.4 967.288 33.4C971.554 33.2667 975.021 33.2 977.688 33.2C994.754 33.2 1007.55 36.8667 1016.09 44.2C1024.62 51.4 1028.89 61.4667 1028.89 74.4C1028.89 88.6667 1024.09 99.4 1014.49 106.6C1004.89 113.667 991.754 117.2 975.087 117.2H969.088V169H936.088V33.6ZM969.088 95.4H977.488C982.021 95.4 985.954 93.8667 989.288 90.8C992.621 87.6 994.288 82.6667 994.288 76C994.288 70.4 992.888 65.5333 990.088 61.4C987.421 57.2667 982.888 55.1333 976.487 55C974.754 55 973.288 55.0667 972.088 55.2C970.888 55.2 969.888 55.2667 969.088 55.4V95.4ZM1099.17 31.8C1109.7 31.8 1118.77 33.4 1126.37 36.6C1133.97 39.8 1140.24 44.3333 1145.17 50.2C1150.1 56.0667 1153.7 63.2667 1155.97 71.8C1158.37 80.2 1159.57 89.6667 1159.57 100.2C1159.57 110.6 1158.24 120.133 1155.57 128.8C1153.04 137.333 1149.17 144.667 1143.97 150.8C1138.77 156.933 1132.24 161.733 1124.37 165.2C1116.5 168.533 1107.24 170.2 1096.57 170.2C1086.04 170.2 1076.9 168.733 1069.17 165.8C1061.57 162.733 1055.3 158.333 1050.37 152.6C1045.44 146.733 1041.77 139.667 1039.37 131.4C1037.1 123.133 1035.97 113.667 1035.97 103C1035.97 92.6 1037.24 83.0667 1039.77 74.4C1042.44 65.6 1046.37 58.0667 1051.57 51.8C1056.77 45.4 1063.3 40.4667 1071.17 37C1079.17 33.5333 1088.5 31.8 1099.17 31.8ZM1096.37 55.2C1087.7 55.2 1081.37 59.2667 1077.37 67.4C1073.5 75.4 1071.57 86.5333 1071.57 100.8C1071.57 107.6 1071.97 113.8 1072.77 119.4C1073.7 125 1075.17 129.867 1077.17 134C1079.3 138 1082.17 141.133 1085.77 143.4C1089.37 145.667 1093.9 146.8 1099.37 146.8C1108.04 146.8 1114.3 142.933 1118.17 135.2C1122.04 127.467 1123.97 116.467 1123.97 102.2C1123.97 95.4 1123.5 89.1333 1122.57 83.4C1121.77 77.6667 1120.3 72.7333 1118.17 68.6C1116.17 64.3333 1113.37 61.0667 1109.77 58.8C1106.17 56.4 1101.7 55.2 1096.37 55.2ZM1179.64 33.6C1180.84 33.6 1183.24 33.6 1186.84 33.6C1190.44 33.4667 1194.44 33.4 1198.84 33.4C1203.24 33.4 1207.51 33.4 1211.64 33.4C1215.78 33.2667 1218.98 33.2 1221.24 33.2C1238.31 33.2 1251.11 36.4667 1259.64 43C1268.18 49.5333 1272.44 59.2 1272.44 72C1272.44 80.5333 1270.38 87.6 1266.24 93.2C1262.11 98.6667 1256.51 102.933 1249.44 106C1253.44 108.267 1256.98 111.267 1260.04 115C1263.11 118.733 1266.04 123.267 1268.84 128.6C1271.64 133.8 1274.44 139.8 1277.24 146.6C1280.18 153.4 1283.38 160.867 1286.84 169H1251.44C1247.18 159.667 1243.58 151.467 1240.64 144.4C1237.71 137.2 1234.98 131.2 1232.44 126.4C1229.91 121.467 1227.38 117.8 1224.84 115.4C1222.44 112.867 1219.51 111.6 1216.04 111.6H1212.64V169H1179.64V33.6ZM1212.64 91H1221.04C1225.71 91 1229.64 89.6 1232.84 86.8C1236.18 83.8667 1237.84 79.3333 1237.84 73.2C1237.84 70.6667 1237.51 68.3333 1236.84 66.2C1236.31 63.9333 1235.38 62 1234.04 60.4C1232.71 58.6667 1230.84 57.3333 1228.44 56.4C1226.18 55.3333 1223.38 54.8 1220.04 54.8H1212.64V91ZM1379.96 33.6L1375.76 57.8H1344.56V169H1311.56V57.8H1279.36V33.6H1379.96ZM1419.61 33.6H1449.01L1498.61 169H1465.21L1455.21 136.4H1411.41L1401.01 169H1368.21L1419.61 33.6ZM1447.81 112C1446.48 108.133 1445.08 104.133 1443.61 100C1442.28 95.7333 1440.95 91.6 1439.61 87.6C1438.41 83.6 1437.28 79.8667 1436.21 76.4C1435.15 72.8 1434.21 69.8 1433.41 67.4C1432.61 69.9333 1431.68 73 1430.61 76.6C1429.55 80.0667 1428.35 83.8 1427.01 87.8C1425.81 91.8 1424.48 95.8667 1423.01 100C1421.68 104.133 1420.35 108.133 1419.01 112H1447.81ZM1510.7 33.6H1543.7V144.8H1591.3V169H1510.7V33.6Z" fill="#F6921E"/>
<path d="M570.632 274.168C570.632 277.761 569.7 280.99 567.835 283.854C565.998 286.718 563.296 288.96 559.73 290.582C556.164 292.203 551.935 293.013 547.045 293.013C541.182 293.013 536.346 291.905 532.536 289.69C529.834 288.096 527.632 285.975 525.93 283.327C524.255 280.652 523.417 278.059 523.417 275.546C523.417 274.087 523.917 272.844 524.917 271.817C525.944 270.764 527.241 270.237 528.808 270.237C530.077 270.237 531.145 270.642 532.009 271.453C532.901 272.263 533.657 273.465 534.279 275.06C535.035 276.951 535.846 278.531 536.71 279.801C537.602 281.071 538.845 282.125 540.439 282.962C542.033 283.773 544.127 284.178 546.721 284.178C550.287 284.178 553.178 283.354 555.394 281.706C557.636 280.031 558.757 277.951 558.757 275.465C558.757 273.493 558.149 271.898 556.934 270.683C555.745 269.44 554.191 268.494 552.273 267.846C550.382 267.197 547.842 266.508 544.654 265.779C540.385 264.779 536.805 263.617 533.914 262.293C531.05 260.943 528.767 259.119 527.065 256.822C525.39 254.499 524.552 251.621 524.552 248.19C524.552 244.921 525.444 242.016 527.227 239.477C529.01 236.937 531.59 234.992 534.968 233.641C538.345 232.263 542.317 231.574 546.883 231.574C550.53 231.574 553.678 232.033 556.326 232.952C559 233.843 561.216 235.046 562.972 236.559C564.728 238.045 566.012 239.612 566.822 241.26C567.633 242.908 568.038 244.515 568.038 246.083C568.038 247.514 567.525 248.811 566.498 249.973C565.498 251.108 564.242 251.675 562.729 251.675C561.351 251.675 560.297 251.338 559.568 250.662C558.865 249.96 558.095 248.825 557.258 247.258C556.177 245.015 554.88 243.273 553.367 242.03C551.854 240.76 549.423 240.125 546.072 240.125C542.965 240.125 540.452 240.814 538.534 242.192C536.643 243.543 535.697 245.177 535.697 247.096C535.697 248.285 536.021 249.311 536.67 250.176C537.318 251.04 538.21 251.783 539.345 252.405C540.479 253.026 541.628 253.513 542.79 253.864C543.951 254.215 545.87 254.728 548.544 255.404C551.895 256.187 554.921 257.052 557.623 257.998C560.351 258.943 562.661 260.091 564.553 261.442C566.471 262.793 567.957 264.509 569.011 266.589C570.091 268.643 570.632 271.169 570.632 274.168ZM610.957 273.236H589.315C589.342 275.749 589.842 277.964 590.814 279.882C591.814 281.801 593.125 283.246 594.746 284.219C596.394 285.191 598.204 285.678 600.176 285.678C601.5 285.678 602.702 285.529 603.783 285.232C604.891 284.908 605.958 284.421 606.985 283.773C608.012 283.097 608.957 282.382 609.822 281.625C610.686 280.868 611.808 279.842 613.186 278.545C613.753 278.059 614.563 277.815 615.617 277.815C616.752 277.815 617.671 278.126 618.373 278.748C619.076 279.369 619.427 280.247 619.427 281.382C619.427 282.382 619.035 283.557 618.251 284.908C617.468 286.232 616.279 287.515 614.685 288.758C613.118 289.974 611.132 290.987 608.728 291.797C606.35 292.608 603.608 293.013 600.5 293.013C593.395 293.013 587.869 290.987 583.925 286.934C579.98 282.881 578.008 277.383 578.008 270.439C578.008 267.17 578.494 264.144 579.467 261.361C580.439 258.551 581.858 256.147 583.722 254.147C585.586 252.148 587.883 250.622 590.612 249.568C593.341 248.487 596.367 247.947 599.69 247.947C604.013 247.947 607.714 248.865 610.794 250.703C613.902 252.513 616.225 254.863 617.765 257.754C619.305 260.645 620.075 263.59 620.075 266.589C620.075 269.372 619.278 271.182 617.684 272.02C616.09 272.831 613.847 273.236 610.957 273.236ZM589.315 266.954H609.376C609.106 263.172 608.079 260.348 606.296 258.484C604.54 256.593 602.216 255.647 599.325 255.647C596.569 255.647 594.3 256.606 592.517 258.524C590.76 260.416 589.693 263.226 589.315 266.954ZM640.42 277.045V286.286C640.42 288.528 639.893 290.217 638.839 291.352C637.786 292.459 636.448 293.013 634.827 293.013C633.233 293.013 631.923 292.446 630.896 291.311C629.869 290.176 629.356 288.501 629.356 286.286V255.485C629.356 250.514 631.153 248.028 634.746 248.028C636.583 248.028 637.907 248.609 638.718 249.771C639.528 250.932 639.974 252.648 640.055 254.917C641.379 252.648 642.73 250.932 644.108 249.771C645.513 248.609 647.377 248.028 649.701 248.028C652.024 248.028 654.28 248.609 656.469 249.771C658.657 250.932 659.751 252.472 659.751 254.391C659.751 255.742 659.279 256.863 658.333 257.754C657.414 258.619 656.415 259.051 655.334 259.051C654.929 259.051 653.943 258.808 652.375 258.322C650.835 257.808 649.471 257.552 648.282 257.552C646.661 257.552 645.337 257.984 644.311 258.849C643.284 259.686 642.487 260.943 641.919 262.618C641.352 264.293 640.96 266.292 640.744 268.616C640.528 270.912 640.42 273.722 640.42 277.045ZM672.518 254.917L681.474 280.044L691.12 253.823C691.876 251.716 692.619 250.23 693.349 249.365C694.078 248.474 695.186 248.028 696.672 248.028C698.077 248.028 699.266 248.501 700.238 249.446C701.238 250.392 701.738 251.486 701.738 252.729C701.738 253.215 701.643 253.783 701.454 254.431C701.292 255.08 701.089 255.688 700.846 256.255C700.63 256.822 700.373 257.471 700.076 258.2L689.458 284.543C689.161 285.299 688.769 286.259 688.283 287.42C687.823 288.582 687.297 289.582 686.702 290.419C686.135 291.23 685.419 291.865 684.554 292.324C683.717 292.784 682.69 293.013 681.474 293.013C679.907 293.013 678.651 292.662 677.705 291.959C676.786 291.23 676.097 290.446 675.638 289.609C675.206 288.744 674.463 287.056 673.409 284.543L662.872 258.484C662.629 257.835 662.372 257.187 662.102 256.539C661.859 255.89 661.643 255.228 661.454 254.553C661.292 253.877 661.21 253.296 661.21 252.81C661.21 252.054 661.44 251.311 661.899 250.581C662.359 249.825 662.994 249.217 663.804 248.757C664.615 248.271 665.493 248.028 666.438 248.028C668.276 248.028 669.532 248.555 670.208 249.608C670.91 250.662 671.68 252.432 672.518 254.917ZM720.745 254.31V286.286C720.745 288.501 720.218 290.176 719.165 291.311C718.111 292.446 716.773 293.013 715.152 293.013C713.531 293.013 712.207 292.432 711.181 291.271C710.181 290.109 709.681 288.447 709.681 286.286V254.634C709.681 252.445 710.181 250.797 711.181 249.689C712.207 248.582 713.531 248.028 715.152 248.028C716.773 248.028 718.111 248.582 719.165 249.689C720.218 250.797 720.745 252.337 720.745 254.31ZM715.274 242.881C713.734 242.881 712.41 242.408 711.302 241.462C710.222 240.517 709.681 239.179 709.681 237.45C709.681 235.883 710.235 234.6 711.343 233.6C712.478 232.573 713.788 232.06 715.274 232.06C716.706 232.06 717.976 232.519 719.083 233.438C720.191 234.357 720.745 235.694 720.745 237.45C720.745 239.152 720.205 240.49 719.124 241.462C718.043 242.408 716.76 242.881 715.274 242.881ZM771.891 279.315C771.891 280.693 771.472 282.165 770.634 283.732C769.824 285.299 768.567 286.799 766.865 288.231C765.19 289.636 763.069 290.771 760.502 291.635C757.936 292.5 755.045 292.932 751.83 292.932C744.994 292.932 739.658 290.946 735.821 286.975C731.985 282.976 730.066 277.626 730.066 270.926C730.066 266.387 730.944 262.375 732.701 258.889C734.457 255.404 736.997 252.715 740.32 250.824C743.643 248.906 747.615 247.947 752.235 247.947C755.099 247.947 757.72 248.366 760.097 249.203C762.502 250.041 764.528 251.121 766.176 252.445C767.851 253.769 769.121 255.188 769.986 256.701C770.877 258.187 771.323 259.578 771.323 260.875C771.323 262.199 770.823 263.32 769.824 264.239C768.851 265.157 767.662 265.617 766.257 265.617C765.339 265.617 764.569 265.387 763.947 264.928C763.353 264.441 762.677 263.671 761.921 262.618C760.57 260.564 759.152 259.024 757.666 257.998C756.207 256.971 754.342 256.458 752.073 256.458C748.804 256.458 746.169 257.741 744.17 260.308C742.171 262.847 741.171 266.333 741.171 270.764C741.171 272.844 741.428 274.762 741.941 276.519C742.454 278.248 743.197 279.734 744.17 280.977C745.143 282.192 746.318 283.125 747.696 283.773C749.074 284.394 750.587 284.705 752.235 284.705C754.45 284.705 756.342 284.192 757.909 283.165C759.503 282.138 760.908 280.571 762.124 278.464C762.799 277.221 763.528 276.248 764.312 275.546C765.096 274.843 766.055 274.492 767.189 274.492C768.54 274.492 769.662 275.006 770.553 276.032C771.445 277.059 771.891 278.153 771.891 279.315ZM812.458 273.236H790.817C790.844 275.749 791.344 277.964 792.316 279.882C793.316 281.801 794.626 283.246 796.248 284.219C797.896 285.191 799.706 285.678 801.678 285.678C803.002 285.678 804.204 285.529 805.285 285.232C806.393 284.908 807.46 284.421 808.487 283.773C809.514 283.097 810.459 282.382 811.324 281.625C812.188 280.868 813.31 279.842 814.688 278.545C815.255 278.059 816.065 277.815 817.119 277.815C818.254 277.815 819.173 278.126 819.875 278.748C820.577 279.369 820.929 280.247 820.929 281.382C820.929 282.382 820.537 283.557 819.753 284.908C818.97 286.232 817.781 287.515 816.187 288.758C814.62 289.974 812.634 290.987 810.229 291.797C807.852 292.608 805.11 293.013 802.002 293.013C794.897 293.013 789.371 290.987 785.427 286.934C781.482 282.881 779.51 277.383 779.51 270.439C779.51 267.17 779.996 264.144 780.969 261.361C781.941 258.551 783.36 256.147 785.224 254.147C787.088 252.148 789.385 250.622 792.114 249.568C794.843 248.487 797.869 247.947 801.192 247.947C805.515 247.947 809.216 248.865 812.296 250.703C815.403 252.513 817.727 254.863 819.267 257.754C820.807 260.645 821.577 263.59 821.577 266.589C821.577 269.372 820.78 271.182 819.186 272.02C817.592 272.831 815.349 273.236 812.458 273.236ZM790.817 266.954H810.878C810.608 263.172 809.581 260.348 807.798 258.484C806.042 256.593 803.718 255.647 800.827 255.647C798.071 255.647 795.802 256.606 794.019 258.524C792.262 260.416 791.195 263.226 790.817 266.954ZM878.599 231.574C884.759 231.574 890.041 232.83 894.445 235.343C898.876 237.828 902.227 241.381 904.496 246.001C906.766 250.595 907.9 255.998 907.9 262.212C907.9 266.806 907.279 270.98 906.036 274.735C904.793 278.491 902.929 281.747 900.443 284.502C897.958 287.258 894.905 289.366 891.284 290.825C887.664 292.284 883.516 293.013 878.842 293.013C874.195 293.013 870.034 292.27 866.36 290.784C862.685 289.271 859.619 287.15 857.16 284.421C854.701 281.693 852.837 278.41 851.567 274.573C850.325 270.737 849.703 266.589 849.703 262.131C849.703 257.565 850.352 253.377 851.648 249.568C852.972 245.758 854.877 242.516 857.363 239.841C859.848 237.167 862.875 235.127 866.441 233.722C870.007 232.29 874.06 231.574 878.599 231.574ZM895.702 262.131C895.702 257.781 894.999 254.012 893.594 250.824C892.189 247.636 890.176 245.231 887.556 243.61C884.962 241.962 881.976 241.138 878.599 241.138C876.194 241.138 873.965 241.597 871.912 242.516C869.886 243.408 868.13 244.718 866.644 246.447C865.185 248.176 864.023 250.392 863.158 253.094C862.321 255.769 861.902 258.781 861.902 262.131C861.902 265.509 862.321 268.562 863.158 271.291C864.023 274.019 865.225 276.289 866.765 278.099C868.332 279.882 870.115 281.22 872.115 282.111C874.141 283.003 876.357 283.449 878.761 283.449C881.841 283.449 884.665 282.679 887.231 281.139C889.825 279.599 891.879 277.221 893.392 274.006C894.932 270.791 895.702 266.833 895.702 262.131ZM927.637 254.229V255.566C929.718 252.999 931.879 251.121 934.122 249.933C936.364 248.717 938.904 248.109 941.741 248.109C945.145 248.109 948.279 248.987 951.143 250.743C954.007 252.499 956.263 255.066 957.911 258.443C959.586 261.821 960.424 265.819 960.424 270.439C960.424 273.844 959.938 276.978 958.965 279.842C958.019 282.679 956.709 285.07 955.034 287.015C953.359 288.933 951.373 290.419 949.076 291.473C946.807 292.5 944.361 293.013 941.741 293.013C938.58 293.013 935.918 292.378 933.757 291.108C931.622 289.839 929.583 287.974 927.637 285.516V302.132C927.637 306.995 925.868 309.427 922.328 309.427C920.248 309.427 918.87 308.792 918.194 307.522C917.519 306.279 917.181 304.455 917.181 302.051V254.31C917.181 252.202 917.64 250.635 918.559 249.608C919.478 248.555 920.734 248.028 922.328 248.028C923.895 248.028 925.165 248.568 926.138 249.649C927.137 250.703 927.637 252.229 927.637 254.229ZM949.319 270.318C949.319 267.4 948.874 264.901 947.982 262.82C947.09 260.713 945.847 259.105 944.253 257.998C942.686 256.863 940.944 256.295 939.025 256.295C935.972 256.295 933.392 257.498 931.285 259.902C929.204 262.307 928.164 265.846 928.164 270.521C928.164 274.924 929.204 278.356 931.285 280.814C933.365 283.246 935.945 284.462 939.025 284.462C940.863 284.462 942.565 283.935 944.132 282.881C945.699 281.801 946.955 280.193 947.901 278.059C948.847 275.924 949.319 273.344 949.319 270.318ZM1000.18 273.236H978.54C978.567 275.749 979.066 277.964 980.039 279.882C981.039 281.801 982.349 283.246 983.97 284.219C985.618 285.191 987.429 285.678 989.401 285.678C990.725 285.678 991.927 285.529 993.008 285.232C994.116 284.908 995.183 284.421 996.209 283.773C997.236 283.097 998.182 282.382 999.046 281.625C999.911 280.868 1001.03 279.842 1002.41 278.545C1002.98 278.059 1003.79 277.815 1004.84 277.815C1005.98 277.815 1006.9 278.126 1007.6 278.748C1008.3 279.369 1008.65 280.247 1008.65 281.382C1008.65 282.382 1008.26 283.557 1007.48 284.908C1006.69 286.232 1005.5 287.515 1003.91 288.758C1002.34 289.974 1000.36 290.987 997.952 291.797C995.575 292.608 992.832 293.013 989.725 293.013C982.619 293.013 977.094 290.987 973.149 286.934C969.205 282.881 967.232 277.383 967.232 270.439C967.232 267.17 967.719 264.144 968.691 261.361C969.664 258.551 971.083 256.147 972.947 254.147C974.811 252.148 977.108 250.622 979.836 249.568C982.565 248.487 985.591 247.947 988.915 247.947C993.237 247.947 996.939 248.865 1000.02 250.703C1003.13 252.513 1005.45 254.863 1006.99 257.754C1008.53 260.645 1009.3 263.59 1009.3 266.589C1009.3 269.372 1008.5 271.182 1006.91 272.02C1005.31 272.831 1003.07 273.236 1000.18 273.236ZM978.54 266.954H998.601C998.33 263.172 997.304 260.348 995.521 258.484C993.764 256.593 991.441 255.647 988.55 255.647C985.794 255.647 983.524 256.606 981.741 258.524C979.985 260.416 978.918 263.226 978.54 266.954ZM1029.64 277.045V286.286C1029.64 288.528 1029.12 290.217 1028.06 291.352C1027.01 292.459 1025.67 293.013 1024.05 293.013C1022.46 293.013 1021.15 292.446 1020.12 291.311C1019.09 290.176 1018.58 288.501 1018.58 286.286V255.485C1018.58 250.514 1020.38 248.028 1023.97 248.028C1025.81 248.028 1027.13 248.609 1027.94 249.771C1028.75 250.932 1029.2 252.648 1029.28 254.917C1030.6 252.648 1031.95 250.932 1033.33 249.771C1034.74 248.609 1036.6 248.028 1038.93 248.028C1041.25 248.028 1043.5 248.609 1045.69 249.771C1047.88 250.932 1048.98 252.472 1048.98 254.391C1048.98 255.742 1048.5 256.863 1047.56 257.754C1046.64 258.619 1045.64 259.051 1044.56 259.051C1044.15 259.051 1043.17 258.808 1041.6 258.322C1040.06 257.808 1038.7 257.552 1037.51 257.552C1035.89 257.552 1034.56 257.984 1033.54 258.849C1032.51 259.686 1031.71 260.943 1031.14 262.618C1030.58 264.293 1030.18 266.292 1029.97 268.616C1029.75 270.912 1029.64 273.722 1029.64 277.045ZM1080.91 286.772C1078.24 288.852 1075.64 290.419 1073.13 291.473C1070.64 292.5 1067.85 293.013 1064.74 293.013C1061.9 293.013 1059.41 292.459 1057.24 291.352C1055.11 290.217 1053.46 288.69 1052.3 286.772C1051.14 284.854 1050.56 282.773 1050.56 280.531C1050.56 277.505 1051.52 274.924 1053.43 272.79C1055.35 270.656 1057.99 269.224 1061.34 268.494C1062.04 268.332 1063.78 267.967 1066.56 267.4C1069.35 266.833 1071.73 266.319 1073.7 265.86C1075.7 265.374 1077.86 264.793 1080.18 264.117C1080.05 261.199 1079.45 259.065 1078.4 257.714C1077.37 256.336 1075.22 255.647 1071.96 255.647C1069.15 255.647 1067.02 256.039 1065.59 256.822C1064.19 257.606 1062.97 258.781 1061.94 260.348C1060.95 261.915 1060.23 262.955 1059.8 263.469C1059.39 263.955 1058.5 264.198 1057.12 264.198C1055.88 264.198 1054.8 263.806 1053.88 263.023C1052.99 262.212 1052.54 261.186 1052.54 259.943C1052.54 257.998 1053.23 256.106 1054.61 254.269C1055.99 252.432 1058.14 250.919 1061.05 249.73C1063.97 248.541 1067.61 247.947 1071.96 247.947C1076.82 247.947 1080.64 248.528 1083.42 249.689C1086.21 250.824 1088.17 252.634 1089.3 255.12C1090.46 257.606 1091.04 260.902 1091.04 265.009C1091.04 267.603 1091.03 269.805 1091 271.615C1091 273.425 1090.99 275.438 1090.96 277.653C1090.96 279.734 1091.3 281.909 1091.98 284.178C1092.68 286.421 1093.03 287.866 1093.03 288.515C1093.03 289.649 1092.49 290.69 1091.41 291.635C1090.35 292.554 1089.15 293.013 1087.8 293.013C1086.67 293.013 1085.55 292.486 1084.44 291.433C1083.33 290.352 1082.15 288.798 1080.91 286.772ZM1080.18 270.764C1078.56 271.358 1076.2 271.993 1073.09 272.668C1070.01 273.317 1067.88 273.803 1066.69 274.127C1065.5 274.425 1064.36 275.033 1063.28 275.951C1062.2 276.843 1061.66 278.099 1061.66 279.72C1061.66 281.395 1062.3 282.827 1063.57 284.016C1064.84 285.178 1066.5 285.759 1068.55 285.759C1070.74 285.759 1072.75 285.286 1074.59 284.34C1076.45 283.368 1077.82 282.125 1078.68 280.612C1079.68 278.937 1080.18 276.181 1080.18 272.344V270.764ZM1100.81 249H1102.03V242.354C1102.03 240.571 1102.07 239.179 1102.15 238.18C1102.26 237.153 1102.53 236.275 1102.96 235.545C1103.39 234.789 1104.01 234.181 1104.82 233.722C1105.63 233.235 1106.54 232.992 1107.54 232.992C1108.94 232.992 1110.21 233.519 1111.35 234.573C1112.1 235.275 1112.58 236.14 1112.77 237.167C1112.98 238.166 1113.09 239.598 1113.09 241.462V249H1117.14C1118.71 249 1119.9 249.379 1120.71 250.135C1121.55 250.865 1121.97 251.81 1121.97 252.972C1121.97 254.458 1121.37 255.498 1120.18 256.093C1119.02 256.687 1117.35 256.984 1115.16 256.984H1113.09V277.329C1113.09 279.058 1113.14 280.396 1113.25 281.341C1113.39 282.26 1113.71 283.016 1114.23 283.611C1114.77 284.178 1115.63 284.462 1116.82 284.462C1117.47 284.462 1118.35 284.354 1119.45 284.138C1120.56 283.895 1121.43 283.773 1122.05 283.773C1122.94 283.773 1123.74 284.138 1124.44 284.867C1125.17 285.57 1125.53 286.448 1125.53 287.501C1125.53 289.285 1124.56 290.649 1122.61 291.595C1120.67 292.54 1117.87 293.013 1114.23 293.013C1110.77 293.013 1108.15 292.432 1106.36 291.271C1104.58 290.109 1103.4 288.501 1102.84 286.448C1102.3 284.394 1102.03 281.652 1102.03 278.221V256.984H1100.57C1098.97 256.984 1097.76 256.606 1096.92 255.85C1096.08 255.093 1095.66 254.134 1095.66 252.972C1095.66 251.81 1096.1 250.865 1096.96 250.135C1097.85 249.379 1099.14 249 1100.81 249ZM1140.69 254.31V286.286C1140.69 288.501 1140.16 290.176 1139.11 291.311C1138.06 292.446 1136.72 293.013 1135.1 293.013C1133.48 293.013 1132.15 292.432 1131.12 291.271C1130.13 290.109 1129.63 288.447 1129.63 286.286V254.634C1129.63 252.445 1130.13 250.797 1131.12 249.689C1132.15 248.582 1133.48 248.028 1135.1 248.028C1136.72 248.028 1138.06 248.582 1139.11 249.689C1140.16 250.797 1140.69 252.337 1140.69 254.31ZM1135.22 242.881C1133.68 242.881 1132.35 242.408 1131.25 241.462C1130.17 240.517 1129.63 239.179 1129.63 237.45C1129.63 235.883 1130.18 234.6 1131.29 233.6C1132.42 232.573 1133.73 232.06 1135.22 232.06C1136.65 232.06 1137.92 232.519 1139.03 233.438C1140.14 234.357 1140.69 235.694 1140.69 237.45C1140.69 239.152 1140.15 240.49 1139.07 241.462C1137.99 242.408 1136.7 242.881 1135.22 242.881ZM1193.58 270.521C1193.58 273.817 1193.06 276.856 1192.04 279.639C1191.01 282.422 1189.52 284.813 1187.58 286.812C1185.63 288.812 1183.31 290.352 1180.61 291.433C1177.91 292.486 1174.87 293.013 1171.49 293.013C1168.14 293.013 1165.13 292.473 1162.45 291.392C1159.78 290.311 1157.45 288.771 1155.48 286.772C1153.54 284.746 1152.05 282.368 1151.02 279.639C1150.02 276.883 1149.52 273.844 1149.52 270.521C1149.52 267.17 1150.04 264.104 1151.06 261.321C1152.09 258.538 1153.56 256.16 1155.48 254.188C1157.4 252.216 1159.72 250.703 1162.45 249.649C1165.18 248.568 1168.19 248.028 1171.49 248.028C1174.84 248.028 1177.88 248.568 1180.61 249.649C1183.34 250.73 1185.67 252.27 1187.62 254.269C1189.57 256.268 1191.04 258.646 1192.04 261.402C1193.06 264.158 1193.58 267.197 1193.58 270.521ZM1182.47 270.521C1182.47 266.008 1181.47 262.496 1179.47 259.983C1177.5 257.471 1174.84 256.214 1171.49 256.214C1169.33 256.214 1167.42 256.782 1165.78 257.917C1164.13 259.024 1162.86 260.672 1161.97 262.861C1161.07 265.049 1160.63 267.603 1160.63 270.521C1160.63 273.411 1161.06 275.938 1161.93 278.099C1162.82 280.261 1164.07 281.922 1165.69 283.084C1167.34 284.219 1169.27 284.786 1171.49 284.786C1174.84 284.786 1177.5 283.53 1179.47 281.017C1181.47 278.477 1182.47 274.979 1182.47 270.521ZM1212.38 254.147V255.485C1214.33 252.918 1216.45 251.04 1218.75 249.852C1221.07 248.636 1223.73 248.028 1226.73 248.028C1229.65 248.028 1232.25 248.663 1234.55 249.933C1236.85 251.202 1238.56 252.999 1239.7 255.323C1240.43 256.674 1240.9 258.133 1241.12 259.7C1241.33 261.267 1241.44 263.266 1241.44 265.698V286.286C1241.44 288.501 1240.93 290.176 1239.9 291.311C1238.9 292.446 1237.59 293.013 1235.97 293.013C1234.32 293.013 1232.98 292.432 1231.96 291.271C1230.93 290.109 1230.42 288.447 1230.42 286.286V267.846C1230.42 264.198 1229.9 261.415 1228.88 259.497C1227.88 257.552 1225.86 256.579 1222.84 256.579C1220.87 256.579 1219.07 257.174 1217.45 258.362C1215.83 259.524 1214.64 261.132 1213.88 263.185C1213.34 264.833 1213.07 267.913 1213.07 272.425V286.286C1213.07 288.528 1212.54 290.217 1211.49 291.352C1210.46 292.459 1209.13 293.013 1207.48 293.013C1205.88 293.013 1204.57 292.432 1203.55 291.271C1202.52 290.109 1202.01 288.447 1202.01 286.286V254.31C1202.01 252.202 1202.47 250.635 1203.39 249.608C1204.3 248.555 1205.56 248.028 1207.15 248.028C1208.13 248.028 1209.01 248.257 1209.79 248.717C1210.57 249.176 1211.19 249.865 1211.65 250.784C1212.14 251.702 1212.38 252.824 1212.38 254.147ZM1288.13 278.545C1288.13 281.598 1287.38 284.219 1285.9 286.407C1284.41 288.569 1282.21 290.217 1279.29 291.352C1276.4 292.459 1272.88 293.013 1268.72 293.013C1264.74 293.013 1261.34 292.405 1258.5 291.189C1255.67 289.974 1253.57 288.461 1252.22 286.65C1250.87 284.813 1250.19 282.976 1250.19 281.139C1250.19 279.923 1250.63 278.883 1251.49 278.018C1252.36 277.153 1253.45 276.721 1254.77 276.721C1255.94 276.721 1256.83 277.005 1257.45 277.572C1258.07 278.14 1258.66 278.937 1259.23 279.963C1260.37 281.936 1261.72 283.408 1263.28 284.381C1264.88 285.354 1267.04 285.84 1269.77 285.84C1271.98 285.84 1273.79 285.354 1275.2 284.381C1276.63 283.381 1277.35 282.246 1277.35 280.977C1277.35 279.031 1276.6 277.613 1275.12 276.721C1273.66 275.83 1271.24 274.979 1267.86 274.168C1264.05 273.222 1260.95 272.236 1258.54 271.209C1256.17 270.156 1254.26 268.778 1252.83 267.076C1251.4 265.374 1250.68 263.28 1250.68 260.794C1250.68 258.578 1251.34 256.485 1252.67 254.512C1253.99 252.54 1255.94 250.973 1258.5 249.811C1261.1 248.622 1264.22 248.028 1267.86 248.028C1270.73 248.028 1273.29 248.325 1275.56 248.919C1277.86 249.514 1279.77 250.311 1281.28 251.311C1282.82 252.31 1283.98 253.418 1284.76 254.634C1285.57 255.85 1285.98 257.038 1285.98 258.2C1285.98 259.47 1285.55 260.51 1284.68 261.321C1283.85 262.131 1282.64 262.537 1281.08 262.537C1279.94 262.537 1278.97 262.212 1278.16 261.564C1277.37 260.916 1276.47 259.943 1275.44 258.646C1274.61 257.565 1273.62 256.701 1272.48 256.052C1271.35 255.404 1269.81 255.08 1267.86 255.08C1265.86 255.08 1264.2 255.512 1262.88 256.376C1261.56 257.214 1260.89 258.268 1260.89 259.538C1260.89 260.699 1261.38 261.659 1262.35 262.415C1263.33 263.145 1264.64 263.752 1266.28 264.239C1267.93 264.725 1270.2 265.319 1273.09 266.022C1276.52 266.86 1279.32 267.859 1281.48 269.021C1283.67 270.183 1285.32 271.561 1286.43 273.155C1287.56 274.722 1288.13 276.519 1288.13 278.545ZM1369.63 273.236C1369.63 275.127 1369.16 277.181 1368.21 279.396C1367.29 281.584 1365.83 283.746 1363.83 285.88C1361.83 287.988 1359.28 289.703 1356.17 291.027C1353.07 292.351 1349.45 293.013 1345.31 293.013C1342.18 293.013 1339.33 292.716 1336.76 292.122C1334.19 291.527 1331.86 290.609 1329.75 289.366C1327.67 288.096 1325.75 286.434 1323.99 284.381C1322.43 282.517 1321.09 280.436 1319.98 278.14C1318.87 275.816 1318.04 273.344 1317.47 270.723C1316.93 268.102 1316.66 265.319 1316.66 262.375C1316.66 257.592 1317.35 253.31 1318.73 249.527C1320.13 245.745 1322.13 242.516 1324.72 239.841C1327.32 237.139 1330.36 235.086 1333.84 233.681C1337.33 232.276 1341.04 231.574 1344.99 231.574C1349.8 231.574 1354.08 232.533 1357.83 234.451C1361.59 236.369 1364.47 238.747 1366.47 241.584C1368.47 244.394 1369.47 247.055 1369.47 249.568C1369.47 250.946 1368.98 252.162 1368.01 253.215C1367.03 254.269 1365.86 254.796 1364.48 254.796C1362.94 254.796 1361.78 254.431 1361 253.702C1360.24 252.972 1359.39 251.716 1358.44 249.933C1356.88 246.988 1355.03 244.786 1352.89 243.327C1350.78 241.868 1348.18 241.138 1345.07 241.138C1340.12 241.138 1336.18 243.016 1333.23 246.771C1330.32 250.527 1328.86 255.863 1328.86 262.78C1328.86 267.4 1329.51 271.25 1330.8 274.33C1332.1 277.383 1333.94 279.666 1336.31 281.179C1338.69 282.692 1341.48 283.449 1344.66 283.449C1348.12 283.449 1351.04 282.598 1353.42 280.896C1355.82 279.166 1357.63 276.64 1358.85 273.317C1359.36 271.75 1360 270.48 1360.75 269.507C1361.51 268.508 1362.73 268.008 1364.4 268.008C1365.83 268.008 1367.06 268.508 1368.09 269.507C1369.12 270.507 1369.63 271.75 1369.63 273.236ZM1410.56 273.236H1388.92C1388.95 275.749 1389.45 277.964 1390.42 279.882C1391.42 281.801 1392.73 283.246 1394.35 284.219C1396 285.191 1397.81 285.678 1399.78 285.678C1401.1 285.678 1402.31 285.529 1403.39 285.232C1404.5 284.908 1405.56 284.421 1406.59 283.773C1407.62 283.097 1408.56 282.382 1409.43 281.625C1410.29 280.868 1411.41 279.842 1412.79 278.545C1413.36 278.059 1414.17 277.815 1415.22 277.815C1416.36 277.815 1417.28 278.126 1417.98 278.748C1418.68 279.369 1419.03 280.247 1419.03 281.382C1419.03 282.382 1418.64 283.557 1417.86 284.908C1417.07 286.232 1415.88 287.515 1414.29 288.758C1412.72 289.974 1410.74 290.987 1408.33 291.797C1405.95 292.608 1403.21 293.013 1400.1 293.013C1393 293.013 1387.47 290.987 1383.53 286.934C1379.58 282.881 1377.61 277.383 1377.61 270.439C1377.61 267.17 1378.1 264.144 1379.07 261.361C1380.04 258.551 1381.46 256.147 1383.33 254.147C1385.19 252.148 1387.49 250.622 1390.22 249.568C1392.95 248.487 1395.97 247.947 1399.29 247.947C1403.62 247.947 1407.32 248.865 1410.4 250.703C1413.51 252.513 1415.83 254.863 1417.37 257.754C1418.91 260.645 1419.68 263.59 1419.68 266.589C1419.68 269.372 1418.88 271.182 1417.29 272.02C1415.69 272.831 1413.45 273.236 1410.56 273.236ZM1388.92 266.954H1408.98C1408.71 263.172 1407.68 260.348 1405.9 258.484C1404.14 256.593 1401.82 255.647 1398.93 255.647C1396.17 255.647 1393.9 256.606 1392.12 258.524C1390.36 260.416 1389.3 263.226 1388.92 266.954ZM1439.09 254.147V255.485C1441.04 252.918 1443.16 251.04 1445.46 249.852C1447.78 248.636 1450.44 248.028 1453.44 248.028C1456.36 248.028 1458.96 248.663 1461.26 249.933C1463.56 251.202 1465.27 252.999 1466.41 255.323C1467.14 256.674 1467.61 258.133 1467.83 259.7C1468.04 261.267 1468.15 263.266 1468.15 265.698V286.286C1468.15 288.501 1467.64 290.176 1466.61 291.311C1465.61 292.446 1464.3 293.013 1462.68 293.013C1461.03 293.013 1459.69 292.432 1458.67 291.271C1457.64 290.109 1457.13 288.447 1457.13 286.286V267.846C1457.13 264.198 1456.61 261.415 1455.59 259.497C1454.59 257.552 1452.57 256.579 1449.55 256.579C1447.58 256.579 1445.78 257.174 1444.16 258.362C1442.54 259.524 1441.35 261.132 1440.59 263.185C1440.05 264.833 1439.78 267.913 1439.78 272.425V286.286C1439.78 288.528 1439.25 290.217 1438.2 291.352C1437.17 292.459 1435.84 293.013 1434.19 293.013C1432.59 293.013 1431.28 292.432 1430.26 291.271C1429.23 290.109 1428.72 288.447 1428.72 286.286V254.31C1428.72 252.202 1429.18 250.635 1430.1 249.608C1431.01 248.555 1432.27 248.028 1433.86 248.028C1434.84 248.028 1435.72 248.257 1436.5 248.717C1437.28 249.176 1437.9 249.865 1438.36 250.784C1438.85 251.702 1439.09 252.824 1439.09 254.147ZM1479.82 249H1481.04V242.354C1481.04 240.571 1481.08 239.179 1481.16 238.18C1481.27 237.153 1481.54 236.275 1481.97 235.545C1482.4 234.789 1483.02 234.181 1483.83 233.722C1484.65 233.235 1485.55 232.992 1486.55 232.992C1487.95 232.992 1489.22 233.519 1490.36 234.573C1491.12 235.275 1491.59 236.14 1491.78 237.167C1491.99 238.166 1492.1 239.598 1492.1 241.462V249H1496.15C1497.72 249 1498.91 249.379 1499.72 250.135C1500.56 250.865 1500.98 251.81 1500.98 252.972C1500.98 254.458 1500.38 255.498 1499.19 256.093C1498.03 256.687 1496.36 256.984 1494.17 256.984H1492.1V277.329C1492.1 279.058 1492.16 280.396 1492.26 281.341C1492.4 282.26 1492.72 283.016 1493.24 283.611C1493.78 284.178 1494.64 284.462 1495.83 284.462C1496.48 284.462 1497.36 284.354 1498.46 284.138C1499.57 283.895 1500.44 283.773 1501.06 283.773C1501.95 283.773 1502.75 284.138 1503.45 284.867C1504.18 285.57 1504.54 286.448 1504.54 287.501C1504.54 289.285 1503.57 290.649 1501.63 291.595C1499.68 292.54 1496.88 293.013 1493.24 293.013C1489.78 293.013 1487.16 292.432 1485.37 291.271C1483.59 290.109 1482.42 288.501 1481.85 286.448C1481.31 284.394 1481.04 281.652 1481.04 278.221V256.984H1479.58C1477.99 256.984 1476.77 256.606 1475.93 255.85C1475.09 255.093 1474.68 254.134 1474.68 252.972C1474.68 251.81 1475.11 250.865 1475.97 250.135C1476.86 249.379 1478.15 249 1479.82 249ZM1539.52 273.236H1517.88C1517.9 275.749 1518.4 277.964 1519.38 279.882C1520.38 281.801 1521.69 283.246 1523.31 284.219C1524.96 285.191 1526.77 285.678 1528.74 285.678C1530.06 285.678 1531.26 285.529 1532.35 285.232C1533.45 284.908 1534.52 284.421 1535.55 283.773C1536.57 283.097 1537.52 282.382 1538.38 281.625C1539.25 280.868 1540.37 279.842 1541.75 278.545C1542.32 278.059 1543.13 277.815 1544.18 277.815C1545.31 277.815 1546.23 278.126 1546.94 278.748C1547.64 279.369 1547.99 280.247 1547.99 281.382C1547.99 282.382 1547.6 283.557 1546.81 284.908C1546.03 286.232 1544.84 287.515 1543.25 288.758C1541.68 289.974 1539.69 290.987 1537.29 291.797C1534.91 292.608 1532.17 293.013 1529.06 293.013C1521.96 293.013 1516.43 290.987 1512.49 286.934C1508.54 282.881 1506.57 277.383 1506.57 270.439C1506.57 267.17 1507.06 264.144 1508.03 261.361C1509 258.551 1510.42 256.147 1512.28 254.147C1514.15 252.148 1516.45 250.622 1519.17 249.568C1521.9 248.487 1524.93 247.947 1528.25 247.947C1532.58 247.947 1536.28 248.865 1539.36 250.703C1542.46 252.513 1544.79 254.863 1546.33 257.754C1547.87 260.645 1548.64 263.59 1548.64 266.589C1548.64 269.372 1547.84 271.182 1546.25 272.02C1544.65 272.831 1542.41 273.236 1539.52 273.236ZM1517.88 266.954H1537.94C1537.67 263.172 1536.64 260.348 1534.86 258.484C1533.1 256.593 1530.78 255.647 1527.89 255.647C1525.13 255.647 1522.86 256.606 1521.08 258.524C1519.32 260.416 1518.26 263.226 1517.88 266.954ZM1568.98 277.045V286.286C1568.98 288.528 1568.46 290.217 1567.4 291.352C1566.35 292.459 1565.01 293.013 1563.39 293.013C1561.8 293.013 1560.49 292.446 1559.46 291.311C1558.43 290.176 1557.92 288.501 1557.92 286.286V255.485C1557.92 250.514 1559.72 248.028 1563.31 248.028C1565.15 248.028 1566.47 248.609 1567.28 249.771C1568.09 250.932 1568.54 252.648 1568.62 254.917C1569.94 252.648 1571.29 250.932 1572.67 249.771C1574.08 248.609 1575.94 248.028 1578.26 248.028C1580.59 248.028 1582.84 248.609 1585.03 249.771C1587.22 250.932 1588.31 252.472 1588.31 254.391C1588.31 255.742 1587.84 256.863 1586.9 257.754C1585.98 258.619 1584.98 259.051 1583.9 259.051C1583.49 259.051 1582.51 258.808 1580.94 258.322C1579.4 257.808 1578.03 257.552 1576.84 257.552C1575.22 257.552 1573.9 257.984 1572.87 258.849C1571.85 259.686 1571.05 260.943 1570.48 262.618C1569.91 264.293 1569.52 266.292 1569.31 268.616C1569.09 270.912 1568.98 273.722 1568.98 277.045Z" fill="#EC1C24"/>
<line x1="521.5" y1="330.5" x2="1587.5" y2="330.5" stroke="#F6921E" stroke-width="5" stroke-linecap="round"/>
<line x1="687" y1="361" x2="687" y2="403" stroke="#F6921E" stroke-width="6" stroke-linecap="round"/>
</svg>
