<svg width="452" height="440" viewBox="0 0 452 440" fill="none" xmlns="http://www.w3.org/2000/svg">
<path d="M410.498 234.329C410.498 240.23 410.498 245.287 409.655 251.188C407.969 275.632 401.226 298.391 391.954 319.464C387.739 327.893 383.525 336.322 378.467 343.908C342.222 401.226 278.161 440 204.828 440C173.64 440 144.138 433.257 117.165 420.613C48.046 387.739 0 316.935 0 234.329C0 154.253 46.3601 84.2912 113.793 50.5747C108.736 57.318 103.678 64.9042 99.4636 72.4904C99.4636 73.3333 98.6207 73.3333 98.6207 74.1762C96.0919 76.705 93.5632 78.3908 91.0345 80.9195C87.6628 83.4483 85.1341 86.8199 81.7624 90.1916C80.9195 91.0345 80.0766 91.8774 80.0766 92.7203C79.2337 93.5632 78.3908 94.4061 78.3908 95.249L75.0191 98.6207C72.4904 101.149 70.8046 103.678 69.1188 106.207C60.6896 117.165 53.9463 129.808 48.046 142.452C47.2031 144.138 47.2031 144.981 46.3601 146.667C45.5172 148.352 45.5172 150.038 44.6743 150.881C42.1456 152.567 42.1456 153.41 42.1456 154.253L39.6168 161.839C38.7739 163.525 38.7739 165.211 37.931 166.897C37.931 167.739 37.0881 168.582 37.0881 169.425C37.0881 171.111 36.2452 172.797 36.2452 174.483C35.4023 178.697 33.7165 183.755 33.7165 188.812C33.7165 190.498 33.7165 191.341 32.8736 193.027V214.1C32.8736 269.732 58.1609 319.464 98.6207 352.337C129.808 377.624 169.425 392.797 212.414 392.797C251.188 392.797 287.433 380.153 316.935 359.08C338.85 343.908 356.552 323.678 369.195 300.077C370.881 296.705 372.567 294.176 374.253 290.805C384.368 268.889 390.268 245.287 391.111 220V214.1C391.111 208.199 391.111 202.299 390.268 196.398L391.111 197.241C393.64 199.77 396.169 202.299 399.54 203.985C402.069 199.77 404.598 195.556 407.969 192.184C409.655 199.77 410.498 208.199 411.341 215.785C409.655 222.529 410.498 228.429 410.498 234.329Z" fill="#EC1C24"/>
<path d="M390.268 214.099V220C390.268 256.245 375.096 286.59 373.41 290.804C371.724 294.176 370.038 296.705 368.352 300.076C355.709 323.678 337.165 343.908 316.092 359.08C286.59 380.153 250.345 392.797 211.571 392.797C168.582 392.797 128.965 377.624 97.7777 352.337C57.318 319.463 32.0306 269.732 32.0306 214.099V193.027C32.0306 191.341 32.0306 190.498 32.8736 188.812C33.7165 183.755 35.4023 178.697 36.2452 173.64C36.2452 171.954 37.0881 170.268 37.0881 168.582C37.0881 167.739 37.931 166.896 37.931 166.054C38.7739 164.368 38.7739 162.682 39.6168 160.996C40.4598 158.467 41.3027 156.781 42.1456 154.253C42.1456 153.41 42.9885 152.567 42.9885 151.724C43.8314 150.038 43.8314 148.352 44.6743 147.509C45.5172 145.824 45.5172 144.981 46.3601 143.295C52.2605 129.808 59.0038 118.008 67.4329 107.05C69.1187 104.521 71.6475 101.992 73.3333 99.4635C74.1762 98.6206 75.0191 96.9347 76.705 96.0918C77.5479 95.2489 77.5479 94.406 78.3908 93.5631C79.2337 92.7202 80.0766 91.8773 80.0766 91.0344C82.6053 87.6627 85.977 85.134 89.3486 81.7623C91.8774 79.2336 94.4061 76.7049 96.9348 75.019C96.9348 75.862 96.0919 76.7049 96.0919 76.7049C96.0919 77.5478 95.249 78.3907 95.249 79.2336C85.1341 100.306 78.3908 124.751 75.862 151.724C75.0191 158.467 75.0191 166.054 75.0191 173.64C75.0191 267.203 129.808 343.065 198.084 343.065H205.67C215.785 343.065 225.057 341.379 234.329 338.85C280.69 326.207 314.406 284.061 314.406 234.329V230.958C313.563 201.456 300.919 174.483 280.69 155.939C295.019 155.939 308.506 158.467 321.149 161.839C346.437 168.582 369.195 180.383 388.582 195.555L389.425 196.398C389.425 202.299 390.268 208.199 390.268 214.099Z" fill="#F6921E"/>
<path d="M390.268 214.1V220C390.268 258.774 373.41 290.805 373.41 291.648C371.724 295.019 370.038 297.548 368.352 300.92C355.709 324.521 337.165 344.751 316.092 360.766C285.747 382.682 248.659 394.483 210.728 394.483C169.425 394.483 128.965 380.153 96.9347 354.023C54.7892 319.464 31.1876 268.889 31.1876 214.943C31.1876 160.996 55.6321 109.579 97.7777 75.0193L99.4635 73.3335C99.4635 74.1764 98.6206 74.1764 98.6206 75.0193C98.6206 75.8622 97.7777 76.7051 97.7777 76.7051C56.475 110.422 33.7164 160.996 33.7164 214.1C33.7164 268.046 57.3179 317.778 99.4635 352.337C129.808 378.468 169.425 392.797 210.728 392.797C248.659 392.797 284.061 380.996 315.249 359.081C336.322 343.908 354.866 322.835 367.509 300.077C369.195 296.705 370.881 294.176 372.567 290.805C372.567 290.805 390.268 257.931 389.425 220V214.1C389.425 208.199 389.425 202.299 388.582 197.242V196.399L389.425 197.242L390.268 198.084V214.1Z" fill="#F6921E"/>
<path d="M341.379 102.835C341.379 102.835 194.712 75.019 126.437 202.299C126.437 202.299 138.237 114.636 242.758 74.1761L221.686 35.4022C221.686 35.4022 263.831 -2.52886 337.165 7.58608L341.379 102.835Z" fill="#EC1C24"/>
<path d="M160.153 170.268C160.153 170.268 218.314 93.5631 352.337 113.793L350.651 69.1187C350.651 69.1187 406.283 67.4329 451.801 106.207L396.168 190.498C396.168 190.498 358.237 145.824 279.004 144.981C246.13 144.138 206.513 148.352 160.153 170.268Z" fill="#F6921E"/>
<path d="M191.341 199.77C191.341 199.77 178.697 202.299 179.54 196.398C179.54 193.869 181.226 193.027 182.069 193.869C182.069 193.027 179.54 189.655 185.44 187.969C187.126 185.44 188.812 182.912 189.655 181.226C190.498 179.54 191.341 177.011 196.398 178.697C201.456 179.54 206.513 184.597 207.356 186.283C209.885 186.283 213.257 187.126 212.414 187.126L210.728 188.812C210.728 188.812 212.414 189.655 207.356 189.655C207.356 190.498 208.199 191.341 209.042 191.341C209.885 192.184 209.042 192.184 209.042 193.027C209.042 193.027 209.885 195.555 207.356 194.712C204.827 193.869 204.827 193.027 203.985 193.027C203.142 193.027 201.456 193.027 201.456 193.869C201.456 194.712 203.985 196.398 201.456 196.398C200.613 197.241 202.299 198.084 201.456 198.084C200.613 198.927 194.713 203.142 192.184 203.984C189.655 203.984 188.812 203.141 188.812 202.299C188.812 201.456 190.498 200.613 192.184 200.613C191.341 200.613 192.184 199.77 191.341 199.77Z" fill="#EC1C24"/>
<path d="M190.498 213.257C189.655 213.257 185.441 210.728 187.969 209.885C189.655 208.199 198.084 203.142 199.77 202.299C201.456 201.456 203.985 203.985 201.456 205.67C198.927 208.199 190.498 213.257 190.498 213.257Z" fill="#EC1C24"/>
<path d="M203.142 207.356C203.142 205.67 204.828 200.613 204.828 199.77C204.828 198.927 209.042 198.084 208.199 203.142C206.513 207.356 203.142 209.042 203.142 207.356Z" fill="#EC1C24"/>
<path d="M209.042 197.241C209.042 197.241 232.643 196.398 234.329 197.241C236.015 198.084 244.444 210.728 241.915 221.686C240.23 232.644 236.858 235.172 221.686 236.858C221.686 233.487 220.843 224.215 219.157 221.686C217.471 219.157 212.414 213.257 210.728 213.257C210.728 215.785 209.885 223.372 209.885 223.372C209.885 223.372 202.299 224.215 201.456 222.529V210.728C201.456 210.728 208.199 204.828 209.042 203.142C209.885 203.985 210.728 207.356 218.314 206.513C218.314 207.356 209.042 208.199 209.042 197.241Z" fill="#EC1C24"/>
<path d="M199.77 208.199C199.77 208.199 192.184 214.1 190.498 215.785C189.655 217.471 188.812 224.215 198.084 224.215C199.77 220 199.77 208.199 199.77 208.199Z" fill="#EC1C24"/>
<path d="M182.069 217.471C179.54 217.471 177.854 216.628 177.854 214.942C177.854 213.257 181.226 210.728 183.755 211.571C185.44 212.414 189.655 213.257 189.655 220.843C191.341 222.529 195.555 225.9 201.456 225.9C207.356 225.9 210.728 225.9 210.728 227.586V238.544C210.728 238.544 203.985 238.544 187.126 226.743C185.44 225.057 184.598 223.372 184.598 220.843C184.598 218.314 182.912 217.471 182.069 217.471Z" fill="#EC1C24"/>
<path d="M177.011 218.314C174.483 218.314 166.053 225.057 171.954 227.586L175.325 224.214C175.325 224.214 173.64 228.429 177.011 229.272C180.383 230.115 178.697 227.586 180.383 227.586C181.226 229.272 181.226 230.115 182.912 230.115C184.597 230.115 184.597 225.057 182.912 222.529C182.069 220 180.383 218.314 177.011 218.314Z" fill="#EC1C24"/>
<path d="M212.414 219.157V241.073C212.414 241.073 219.157 238.544 220 236.858C220 233.487 218.314 219.157 212.414 219.157Z" fill="#EC1C24"/>
<path d="M194.713 233.486C194.713 233.486 203.142 239.387 208.199 241.073C207.356 241.915 203.985 246.973 202.299 246.13C201.456 246.13 195.556 237.701 194.713 233.486Z" fill="#EC1C24"/>
<path d="M153.41 241.916H165.211V246.13H154.253L153.41 241.916Z" fill="#EC1C24"/>
<path d="M279.004 239.387H230.958L238.544 245.287H279.004V239.387Z" fill="#EC1C24"/>
<path d="M221.686 239.387C222.529 238.544 228.429 242.759 226.743 243.602C225.057 244.445 209.885 250.345 209.042 250.345C207.356 249.502 208.199 246.131 209.885 245.288C210.728 244.445 219.157 241.916 221.686 239.387Z" fill="#EC1C24"/>
<path d="M204.828 249.502C203.142 248.659 193.87 257.931 198.084 258.774C202.299 259.617 212.414 261.302 214.942 262.988C217.471 262.145 219.157 259.617 219.157 258.774C220.843 258.774 223.372 261.302 225.9 260.459C228.429 259.617 240.23 251.187 240.23 249.502C237.701 247.816 232.644 244.444 230.115 244.444C228.429 243.601 213.257 252.873 204.828 249.502Z" fill="#EC1C24"/>
<path d="M199.77 261.303C200.613 261.303 213.257 265.517 215.785 265.517C219.157 264.675 219.157 262.146 220.843 262.146C222.529 262.146 223.372 263.832 225.9 262.146C228.429 260.46 234.329 255.402 235.172 254.56C235.172 256.245 235.172 261.303 224.215 266.36C213.257 271.418 187.126 279.004 186.283 282.376C187.126 282.376 190.498 281.533 193.027 280.69C194.713 281.533 197.241 284.904 196.398 290.805C195.556 296.705 191.341 305.977 191.341 308.506V324.521C191.341 325.364 193.87 332.95 190.498 332.107C187.126 331.265 185.441 331.265 183.755 332.107C182.069 332.107 179.54 334.636 177.854 333.793C175.326 333.793 171.954 332.107 171.954 331.265C171.954 330.422 174.483 330.422 177.011 329.579C179.54 328.736 180.383 326.207 184.598 324.521C184.598 321.993 182.912 300.92 182.912 296.705C182.912 292.491 181.226 283.219 183.755 279.847C185.441 274.789 195.556 260.46 199.77 261.303Z" fill="#EC1C24"/>
<path d="M215.785 273.103C215.785 274.789 223.372 293.333 226.743 293.333C230.115 293.333 261.303 286.59 267.203 289.119C268.889 291.648 272.26 295.862 272.26 298.391C272.26 298.391 273.103 304.291 272.26 305.134C273.103 305.134 275.632 304.291 276.475 302.605C277.318 300.92 276.475 292.49 276.475 290.805C276.475 289.119 280.69 281.533 275.632 282.375C270.575 282.375 256.245 282.375 251.188 281.533C246.973 280.69 236.015 278.161 233.487 279.847C230.958 281.533 227.586 285.747 227.586 286.59C226.743 286.59 225.9 285.747 227.586 282.375C228.429 279.004 232.644 269.732 231.801 264.674C229.272 265.517 215.785 273.103 215.785 273.103Z" fill="#EC1C24"/>
<path d="M198.084 243.602C198.084 244.445 198.927 246.13 199.77 246.973L175.325 245.288C175.325 245.288 172.797 243.602 173.64 242.759L198.084 243.602Z" fill="#EC1C24"/>
<path d="M171.111 241.916H195.555C195.555 241.916 193.87 239.387 193.027 237.701H170.268C170.268 237.701 167.739 237.701 167.739 242.759C167.739 243.602 169.425 245.287 171.111 241.916Z" fill="#EC1C24"/>
<path d="M147.509 246.13H152.567C152.567 246.13 154.253 245.288 152.567 243.602C150.881 241.916 147.509 240.23 150.038 236.858C147.509 236.858 144.138 236.016 144.981 243.602H142.452C142.452 243.602 141.609 239.387 135.709 239.387C129.808 239.387 115.479 245.288 115.479 245.288C115.479 245.288 131.494 249.502 135.709 249.502C139.923 249.502 142.452 245.288 142.452 245.288H144.138C144.138 245.288 144.981 248.659 145.824 249.502V254.56C145.824 254.56 143.295 255.402 144.138 257.931C144.138 260.46 145.824 260.46 146.666 260.46C147.509 260.46 147.509 259.617 150.038 259.617C150.881 258.774 150.038 255.402 148.352 254.56V251.188C148.352 251.188 150.038 249.502 150.038 248.659C149.195 246.973 147.509 247.816 147.509 246.13Z" fill="#EC1C24"/>
<path d="M177.011 269.732C178.697 268.889 179.54 266.36 179.54 266.36V252.031C179.54 248.659 173.64 246.13 172.797 246.13C171.954 246.973 170.268 247.816 169.425 247.816C167.739 247.816 166.896 247.816 165.211 246.13C160.153 246.13 157.624 252.031 157.624 252.874C157.624 253.717 156.781 264.674 157.624 266.36C157.624 268.046 159.31 269.732 160.153 270.575C159.31 273.946 154.253 293.333 160.996 295.862V299.234H177.854V295.862C182.912 291.648 178.697 274.789 177.011 269.732ZM157.624 252.031C157.624 251.188 160.153 246.973 163.525 246.973C165.211 248.659 166.896 248.659 168.582 248.659C170.268 248.659 171.954 246.973 172.797 246.973C174.483 247.816 177.854 249.502 177.854 252.031V266.36C177.854 267.203 177.011 268.046 176.168 268.889H172.797V262.146H161.839V268.046H159.31C158.467 267.203 157.624 266.36 157.624 264.674V252.031ZM169.425 291.648H166.054C165.211 291.648 164.368 290.805 164.368 289.962C164.368 289.119 165.211 288.276 166.054 288.276H169.425C170.268 288.276 171.111 289.119 171.111 289.962C171.111 290.805 170.268 291.648 169.425 291.648ZM176.168 293.333L167.739 284.061L160.153 293.333C155.096 291.648 158.467 276.475 160.153 269.732H176.168C177.854 276.475 180.383 290.805 176.168 293.333Z" fill="#EC1C24"/>
<path d="M173.64 276.475C175.326 273.947 172.797 272.261 172.797 272.261H162.682C159.31 272.261 160.153 276.475 160.153 276.475L166.054 281.533C167.74 281.533 171.954 279.004 173.64 276.475Z" fill="#EC1C24"/>
<path d="M169.425 282.375L175.326 289.118C175.326 289.118 174.483 280.689 174.483 278.161C173.64 279.004 169.425 282.375 169.425 282.375Z" fill="#EC1C24"/>
<path d="M160.996 278.161C160.996 280.689 160.153 289.118 160.153 289.118L166.053 282.375C166.053 282.375 162.682 279.004 160.996 278.161Z" fill="#EC1C24"/>
<path d="M172.797 260.46H173.64V259.617C173.64 258.774 172.797 258.774 172.797 258.774H163.525C162.682 258.774 162.682 259.617 162.682 259.617V260.46H163.525H172.797Z" fill="#EC1C24"/>
<path d="M159.31 299.234H158.467V300.077C158.467 300.92 159.31 300.92 159.31 300.92H176.168C177.011 300.92 177.011 300.077 177.011 300.077V299.234H176.168H159.31Z" fill="#EC1C24"/>
<path d="M102.835 239.387C102.835 239.387 36.2453 93.5632 191.341 0L228.429 68.2759C228.429 68.2759 203.142 76.705 176.169 100.306C146.667 125.594 115.479 167.739 102.835 239.387Z" fill="#F6921E"/>
</svg>
