<svg width="1354" height="457" viewBox="0 0 1354 457" fill="none" xmlns="http://www.w3.org/2000/svg">
<path d="M565.828 401.436V405.838H543.136V416.936C543.136 418.135 543.322 419.023 543.694 419.602C544.066 420.139 544.645 420.408 545.43 420.408C546.215 420.408 547.021 420.16 547.848 419.664C548.716 419.168 549.646 418.383 550.638 417.308C551.63 416.233 552.705 414.849 553.862 413.154L557.582 412.596C558.905 414.539 559.917 416.543 560.62 418.61C561.364 420.677 561.736 422.743 561.736 424.81C561.736 427.414 561.157 429.749 560 431.816C558.884 433.883 557.21 435.515 554.978 436.714C552.787 437.913 550.101 438.512 546.918 438.512C544.19 438.512 541.648 438.037 539.292 437.086C536.936 436.135 534.766 434.606 532.782 432.498C530.798 430.349 528.979 427.538 527.326 424.066C525.673 420.553 524.185 416.254 522.862 411.17L527.574 409.93C529.062 415.675 530.695 420.305 532.472 423.818C534.291 427.29 536.357 429.832 538.672 431.444C540.987 433.015 543.653 433.8 546.67 433.8C549.977 433.8 552.519 432.973 554.296 431.32C556.115 429.667 557.024 427.538 557.024 424.934C557.024 423.074 556.755 421.483 556.218 420.16C555.722 418.837 555.061 417.742 554.234 416.874L557.086 415.696C555.846 417.804 554.565 419.54 553.242 420.904C551.961 422.268 550.659 423.301 549.336 424.004C548.055 424.665 546.773 424.996 545.492 424.996C544.541 424.996 543.653 424.872 542.826 424.624C541.999 424.335 541.297 423.921 540.718 423.384C540.057 422.805 539.499 421.999 539.044 420.966C538.589 419.891 538.362 418.114 538.362 415.634V405.838H520.444V401.436H565.828ZM582.315 401.436V405.838H575.805V440H571.031V410.922C570.535 409.517 569.791 408.318 568.799 407.326C567.848 406.334 566.608 405.838 565.079 405.838H564.583V401.436H565.513C566.505 401.436 567.538 401.767 568.613 402.428C569.687 403.048 570.555 404.019 571.217 405.342C571.175 405.135 571.134 404.66 571.093 403.916C571.051 403.172 571.031 402.531 571.031 401.994V397.344H574.379L575.743 401.436H582.315ZM632.325 401.436V405.838H612.175V409.682V410.674V440H607.401C606.203 437.561 604.529 435.267 602.379 433.118C600.23 430.969 597.771 429.171 595.001 427.724C592.273 426.236 589.401 425.306 586.383 424.934L583.965 418.982C587.975 416.667 591.984 414.601 595.993 412.782C600.003 410.963 604.26 409.351 608.765 407.946L607.401 410.55V405.838H581.051V401.436H632.325ZM607.401 411.046L608.703 412.844C606.595 413.423 604.405 414.187 602.131 415.138C599.899 416.089 597.709 417.081 595.559 418.114C593.451 419.147 591.509 420.16 589.731 421.152C592.046 421.607 594.423 422.475 596.861 423.756C599.341 425.037 601.594 426.608 603.619 428.468C605.686 430.287 607.215 432.271 608.207 434.42L607.711 434.544C607.629 433.593 607.546 432.643 607.463 431.692C607.422 430.741 607.401 429.605 607.401 428.282V411.046ZM628.853 422.144C628.853 423.508 628.585 424.81 628.047 426.05C627.51 427.249 626.621 428.241 625.381 429.026C624.141 429.811 622.488 430.204 620.421 430.204C619.76 430.204 619.119 430.183 618.499 430.142C617.921 430.101 617.342 430.018 616.763 429.894L617.135 425.43C617.383 425.471 617.673 425.513 618.003 425.554C618.375 425.554 618.789 425.554 619.243 425.554C621.227 425.554 622.509 425.182 623.087 424.438C623.707 423.653 624.017 422.723 624.017 421.648C624.017 419.457 622.943 417.597 620.793 416.068C618.685 414.497 615.544 413.423 611.369 412.844L611.555 408.194C614.738 408.525 617.631 409.331 620.235 410.612C622.839 411.852 624.927 413.464 626.497 415.448C628.068 417.391 628.853 419.623 628.853 422.144ZM670.471 401.436V405.838H663.961V440H659.187V405.838H652.739V401.436H658.443C657.781 400.651 657.099 399.824 656.397 398.956C655.735 398.088 655.136 397.22 654.599 396.352C656.004 393.913 657.513 391.702 659.125 389.718C660.737 387.693 662.638 386.101 664.829 384.944C667.019 383.745 669.665 383.146 672.765 383.146C674.955 383.146 677.043 383.415 679.027 383.952C681.052 384.489 683.036 385.275 684.979 386.308C686.921 387.3 688.885 388.519 690.869 389.966C692.853 391.371 694.919 392.942 697.069 394.678L694.465 398.026C691.613 395.711 689.029 393.789 686.715 392.26C684.441 390.731 682.251 389.594 680.143 388.85C678.076 388.065 675.865 387.672 673.509 387.672C671.235 387.672 669.251 388.065 667.557 388.85C665.903 389.635 664.457 390.731 663.217 392.136C662.018 393.541 660.923 395.174 659.931 397.034C660.261 397.654 660.716 398.336 661.295 399.08C661.873 399.824 662.535 400.609 663.279 401.436H670.471ZM707.4 401.436V405.838H700.89V440H696.116C694.876 437.52 693.16 435.247 690.97 433.18C688.82 431.072 686.34 429.295 683.53 427.848C680.719 426.401 677.722 425.43 674.54 424.934L672.122 418.982C676.09 416.585 680.182 414.415 684.398 412.472C688.655 410.529 693.036 408.876 697.542 407.512L696.116 410.116V405.838H669.208V401.436H707.4ZM696.116 410.612L697.418 412.348C694.276 413.381 690.97 414.663 687.498 416.192C684.026 417.68 680.822 419.333 677.888 421.152C680.12 421.648 682.496 422.495 685.018 423.694C687.539 424.893 689.874 426.401 692.024 428.22C694.173 430.039 695.826 432.147 696.984 434.544H696.426C696.343 433.593 696.26 432.643 696.178 431.692C696.136 430.741 696.116 429.605 696.116 428.282V410.612ZM732.925 437.334C730.238 437.334 727.717 436.9 725.361 436.032C723.005 435.164 720.794 433.717 718.727 431.692C716.702 429.667 714.842 426.98 713.147 423.632C711.452 420.284 709.923 416.13 708.559 411.17L713.271 409.93C714.759 415.386 716.433 419.788 718.293 423.136C720.194 426.443 722.323 428.861 724.679 430.39C727.076 431.878 729.784 432.622 732.801 432.622C734.992 432.622 736.852 432.229 738.381 431.444C739.952 430.659 741.15 429.584 741.977 428.22C742.804 426.815 743.217 425.223 743.217 423.446C743.217 422.206 743.093 421.09 742.845 420.098C742.597 419.106 742.246 418.217 741.791 417.432C741.378 416.605 740.902 415.903 740.365 415.324L743.341 410.488C744.912 412.761 746.069 414.973 746.813 417.122C747.557 419.271 747.929 421.4 747.929 423.508C747.929 426.112 747.35 428.468 746.193 430.576C745.036 432.643 743.341 434.296 741.109 435.536C738.918 436.735 736.19 437.334 732.925 437.334ZM730.569 422.392C727.965 422.392 725.919 421.751 724.431 420.47C722.943 419.147 722.199 417.349 722.199 415.076C722.199 414.125 722.344 413.195 722.633 412.286C722.922 411.335 723.232 410.529 723.563 409.868L728.523 411.356C728.234 411.769 727.965 412.286 727.717 412.906C727.469 413.526 727.345 414.167 727.345 414.828C727.345 415.944 727.655 416.75 728.275 417.246C728.895 417.742 729.701 417.99 730.693 417.99C731.561 417.99 732.429 417.825 733.297 417.494C734.165 417.163 735.095 416.523 736.087 415.572C737.12 414.58 738.236 413.092 739.435 411.108L743.341 410.488L742.845 413.836C741.729 415.696 740.551 417.267 739.311 418.548C738.112 419.788 736.79 420.739 735.343 421.4C733.938 422.061 732.346 422.392 730.569 422.392ZM752.083 401.436V405.838H706.141V401.436H752.083ZM768.557 401.436V405.838H762.047V440H757.273V410.922C756.777 409.517 756.033 408.318 755.041 407.326C754.09 406.334 752.85 405.838 751.321 405.838H750.825V401.436H751.755C752.747 401.436 753.78 401.767 754.855 402.428C755.929 403.048 756.797 404.019 757.459 405.342C757.417 405.135 757.376 404.66 757.335 403.916C757.293 403.172 757.273 402.531 757.273 401.994V397.344H760.621L761.985 401.436H768.557ZM789.985 401.436V405.838H788.745C787.464 406.127 786.079 406.768 784.591 407.76C783.103 408.711 781.698 409.971 780.375 411.542C779.053 413.071 777.957 414.869 777.089 416.936C776.263 419.003 775.849 421.276 775.849 423.756C775.849 426.732 776.283 429.109 777.151 430.886C778.061 432.622 779.177 433.862 780.499 434.606C781.822 435.35 783.145 435.722 784.467 435.722C785.501 435.722 786.369 435.619 787.071 435.412C787.774 435.205 788.58 434.833 789.489 434.296L791.659 438.078C790.585 438.905 789.407 439.483 788.125 439.814C786.844 440.145 785.563 440.31 784.281 440.31C781.677 440.31 779.363 439.628 777.337 438.264C775.353 436.9 773.783 434.999 772.625 432.56C771.509 430.08 770.951 427.187 770.951 423.88C770.951 420.491 771.592 417.432 772.873 414.704C774.155 411.935 775.87 409.599 778.019 407.698C780.21 405.797 782.628 404.412 785.273 403.544L781.305 405.59C780.561 405.673 779.755 405.735 778.887 405.776C778.019 405.817 777.048 405.838 775.973 405.838H767.293V401.436H789.985ZM819.355 440V413.65L820.657 417.556C819.21 415.489 817.846 413.712 816.565 412.224C815.325 410.695 814.126 409.434 812.969 408.442C811.812 407.45 810.634 406.727 809.435 406.272C808.236 405.776 806.976 405.528 805.653 405.528C803.462 405.528 801.685 406.107 800.321 407.264C798.998 408.38 797.82 409.682 796.787 411.17L795.919 411.666C796.498 411.129 797.386 410.695 798.585 410.364C799.784 409.992 801.168 409.806 802.739 409.806C804.64 409.806 806.17 410.178 807.327 410.922C808.526 411.666 809.394 412.617 809.931 413.774C810.51 414.89 810.799 416.006 810.799 417.122C810.799 419.561 809.972 421.751 808.319 423.694C806.666 425.595 804.103 427.476 800.631 429.336L797.469 424.81C799.742 423.859 801.706 422.805 803.359 421.648C805.012 420.449 805.839 419.023 805.839 417.37C805.839 416.461 805.488 415.696 804.785 415.076C804.082 414.456 803.07 414.146 801.747 414.146C800.672 414.146 799.66 414.27 798.709 414.518C797.8 414.766 796.808 415.159 795.733 415.696L790.711 411.604C791.992 409.455 793.356 407.595 794.803 406.024C796.25 404.412 797.82 403.172 799.515 402.304C801.251 401.436 803.132 401.002 805.157 401.002C807.224 401.002 809.104 401.374 810.799 402.118C812.535 402.821 814.209 403.895 815.821 405.342C817.474 406.789 819.128 408.587 820.781 410.736L819.665 410.054C819.582 409.475 819.5 408.587 819.417 407.388C819.376 406.189 819.355 404.97 819.355 403.73V397.344H822.641L824.067 401.436H830.639V405.838H824.129V440H819.355ZM867.607 401.436V405.838H861.097V440H856.323C855.083 437.52 853.367 435.247 851.177 433.18C849.027 431.072 846.547 429.295 843.737 427.848C840.926 426.401 837.929 425.43 834.747 424.934L832.329 418.982C836.297 416.585 840.389 414.415 844.605 412.472C848.862 410.529 853.243 408.876 857.749 407.512L856.323 410.116V405.838H829.415V401.436H867.607ZM856.323 410.612L857.625 412.348C854.483 413.381 851.177 414.663 847.705 416.192C844.233 417.68 841.029 419.333 838.095 421.152C840.327 421.648 842.703 422.495 845.225 423.694C847.746 424.893 850.081 426.401 852.231 428.22C854.38 430.039 856.033 432.147 857.191 434.544H856.633C856.55 433.593 856.467 432.643 856.385 431.692C856.343 430.741 856.323 429.605 856.323 428.282V410.612ZM841.505 440.372C840.471 440.372 839.583 440.041 838.839 439.38C838.136 438.719 837.785 437.851 837.785 436.776C837.785 435.701 838.136 434.813 838.839 434.11C839.583 433.407 840.471 433.056 841.505 433.056C842.538 433.056 843.406 433.407 844.109 434.11C844.853 434.813 845.225 435.701 845.225 436.776C845.225 437.851 844.853 438.719 844.109 439.38C843.406 440.041 842.538 440.372 841.505 440.372ZM905.756 401.436V405.838H899.246V440H894.472V405.838H888.024V401.436H893.728C893.067 400.651 892.385 399.824 891.682 398.956C891.021 398.088 890.421 397.22 889.884 396.352C891.289 393.913 892.798 391.702 894.41 389.718C896.022 387.693 897.923 386.101 900.114 384.944C902.305 383.745 904.95 383.146 908.05 383.146C910.241 383.146 912.328 383.415 914.312 383.952C916.337 384.489 918.321 385.275 920.264 386.308C922.207 387.3 924.17 388.519 926.154 389.966C928.138 391.371 930.205 392.942 932.354 394.678L929.75 398.026C926.898 395.711 924.315 393.789 922 392.26C919.727 390.731 917.536 389.594 915.428 388.85C913.361 388.065 911.15 387.672 908.794 387.672C906.521 387.672 904.537 388.065 902.842 388.85C901.189 389.635 899.742 390.731 898.502 392.136C897.303 393.541 896.208 395.174 895.216 397.034C895.547 397.654 896.001 398.336 896.58 399.08C897.159 399.824 897.82 400.609 898.564 401.436H905.756ZM949.877 401.436V405.838H927.185V416.936C927.185 418.135 927.371 419.023 927.743 419.602C928.115 420.139 928.693 420.408 929.479 420.408C930.264 420.408 931.07 420.16 931.897 419.664C932.765 419.168 933.695 418.383 934.687 417.308C935.679 416.233 936.753 414.849 937.911 413.154L941.631 412.596C942.953 414.539 943.966 416.543 944.669 418.61C945.413 420.677 945.785 422.743 945.785 424.81C945.785 427.414 945.206 429.749 944.049 431.816C942.933 433.883 941.259 435.515 939.027 436.714C936.836 437.913 934.149 438.512 930.967 438.512C928.239 438.512 925.697 438.037 923.341 437.086C920.985 436.135 918.815 434.606 916.831 432.498C914.847 430.349 913.028 427.538 911.375 424.066C909.721 420.553 908.233 416.254 906.911 411.17L911.623 409.93C913.111 415.675 914.743 420.305 916.521 423.818C918.339 427.29 920.406 429.832 922.721 431.444C925.035 433.015 927.701 433.8 930.719 433.8C934.025 433.8 936.567 432.973 938.345 431.32C940.163 429.667 941.073 427.538 941.073 424.934C941.073 423.074 940.804 421.483 940.267 420.16C939.771 418.837 939.109 417.742 938.283 416.874L941.135 415.696C939.895 417.804 938.613 419.54 937.291 420.904C936.009 422.268 934.707 423.301 933.385 424.004C932.103 424.665 930.822 424.996 929.541 424.996C928.59 424.996 927.701 424.872 926.875 424.624C926.048 424.335 925.345 423.921 924.767 423.384C924.105 422.805 923.547 421.999 923.093 420.966C922.638 419.891 922.411 418.114 922.411 415.634V405.838H904.493V401.436H949.877ZM966.363 401.436V405.838H959.853V440H955.079V405.838H948.631V401.436H954.335C953.674 400.651 952.992 399.803 952.289 398.894C951.628 397.985 951.029 397.096 950.491 396.228C952.145 393.789 953.922 391.578 955.823 389.594C957.766 387.61 960.019 386.039 962.581 384.882C965.185 383.725 968.285 383.146 971.881 383.146C974.568 383.146 977.089 383.415 979.445 383.952C981.843 384.448 984.178 385.192 986.451 386.184C988.725 387.176 991.019 388.354 993.333 389.718C995.648 391.082 998.066 392.632 1000.59 394.368L998.107 397.84C995.462 396.104 993.065 394.595 990.915 393.314C988.807 392.033 986.782 390.979 984.839 390.152C982.897 389.325 980.933 388.705 978.949 388.292C977.007 387.879 974.878 387.672 972.563 387.672C969.711 387.672 967.273 388.085 965.247 388.912C963.222 389.739 961.465 390.855 959.977 392.26C958.489 393.665 957.125 395.257 955.885 397.034C956.175 397.654 956.609 398.336 957.187 399.08C957.766 399.824 958.427 400.609 959.171 401.436H966.363ZM990.582 436.094C988.143 436.094 985.808 435.66 983.576 434.792C981.344 433.924 979.236 432.539 977.252 430.638C975.309 428.695 973.511 426.133 971.858 422.95C970.246 419.726 968.799 415.799 967.518 411.17L972.23 409.93C973.635 415.014 975.206 419.147 976.942 422.33C978.678 425.471 980.683 427.765 982.956 429.212C985.229 430.659 987.833 431.382 990.768 431.382C993.827 431.382 996.141 430.721 997.712 429.398C999.283 428.075 1000.07 426.071 1000.07 423.384C1000.07 422.103 999.903 421.007 999.572 420.098C999.241 419.189 998.911 418.424 998.58 417.804H1002.3C1001.14 419.003 999.923 420.077 998.642 421.028C997.402 421.979 996.059 422.723 994.612 423.26C993.207 423.797 991.657 424.066 989.962 424.066C988.35 424.066 986.924 423.756 985.684 423.136C984.444 422.516 983.473 421.627 982.77 420.47C982.067 419.271 981.716 417.845 981.716 416.192C981.716 414.373 982.357 412.534 983.638 410.674C984.919 408.773 987.089 407.119 990.148 405.714C989.321 405.755 988.371 405.797 987.296 405.838C986.263 405.838 985.229 405.838 984.196 405.838H965.1V401.436H1023.19V405.838H1003.79C1002.8 405.838 1001.91 405.817 1001.12 405.776C1000.34 405.735 999.593 405.693 998.89 405.652C995.418 407.223 992.793 408.649 991.016 409.93C989.239 411.211 988.04 412.389 987.42 413.464C986.8 414.497 986.49 415.489 986.49 416.44C986.49 417.597 986.821 418.424 987.482 418.92C988.143 419.416 988.887 419.664 989.714 419.664C991.285 419.664 992.69 419.313 993.93 418.61C995.17 417.866 996.575 416.812 998.146 415.448L1003.48 417.37C1003.85 418.197 1004.16 419.23 1004.41 420.47C1004.66 421.669 1004.78 422.929 1004.78 424.252C1004.78 426.319 1004.3 428.261 1003.35 430.08C1002.44 431.857 1000.94 433.304 998.828 434.42C996.761 435.536 994.013 436.094 990.582 436.094ZM1015.38 427.29C1015.38 429.315 1015.55 431.258 1015.88 433.118C1016.21 434.978 1016.77 437.065 1017.55 439.38L1012.9 440.434C1012.16 438.037 1011.58 435.701 1011.17 433.428C1010.75 431.113 1010.55 428.716 1010.55 426.236C1010.55 424.045 1010.73 422.082 1011.1 420.346C1011.52 418.61 1011.99 417.143 1012.53 415.944C1009.39 415.903 1006.7 415.51 1004.47 414.766C1002.28 413.981 1000.44 412.885 998.952 411.48C997.464 410.033 996.203 408.318 995.17 406.334L999.882 405.342C1000.54 406.541 1001.37 407.615 1002.36 408.566C1003.4 409.475 1004.72 410.199 1006.33 410.736C1007.94 411.273 1009.93 411.542 1012.28 411.542C1012.86 411.542 1013.42 411.521 1013.96 411.48C1014.49 411.439 1015.07 411.397 1015.69 411.356L1018.11 415.696C1017.12 417.556 1016.42 419.375 1016 421.152C1015.59 422.929 1015.38 424.975 1015.38 427.29ZM1058.35 401.436V405.838H1033.24V427.29C1033.24 429.109 1033.34 430.39 1033.55 431.134C1033.75 431.878 1034 432.415 1034.29 432.746C1035.04 433.614 1036.17 434.048 1037.7 434.048C1039.31 434.048 1040.84 433.655 1042.29 432.87C1043.74 432.085 1045 431.113 1046.07 429.956C1047.27 428.675 1048.18 427.311 1048.8 425.864C1049.46 424.417 1049.79 422.95 1049.79 421.462C1049.79 420.139 1049.46 419.147 1048.8 418.486C1048.14 417.783 1047.04 417.432 1045.51 417.432C1045.02 417.432 1044.48 417.473 1043.9 417.556C1043.32 417.639 1042.76 417.742 1042.23 417.866L1041.55 413.464C1042.33 413.257 1043.14 413.092 1043.96 412.968C1044.83 412.844 1045.74 412.782 1046.69 412.782C1048.22 412.782 1049.58 413.071 1050.78 413.65C1051.98 414.229 1052.91 415.138 1053.57 416.378C1054.28 417.618 1054.63 419.23 1054.63 421.214C1054.63 423.653 1054.03 426.029 1052.83 428.344C1051.63 430.617 1050.12 432.539 1048.3 434.11C1046.77 435.433 1045.1 436.507 1043.28 437.334C1041.5 438.119 1039.54 438.512 1037.39 438.512C1035.86 438.512 1034.54 438.285 1033.42 437.83C1032.35 437.375 1031.46 436.797 1030.76 436.094C1030.1 435.309 1029.54 434.358 1029.08 433.242C1028.67 432.126 1028.46 430.431 1028.46 428.158V405.838H1021.95V401.436H1058.35ZM1047.06 401.436C1047.02 399.741 1046.61 398.522 1045.82 397.778C1045.08 397.034 1043.84 396.662 1042.1 396.662H1036.28C1033.59 396.662 1031.5 396.476 1030.01 396.104C1028.57 395.732 1027.33 395.153 1026.29 394.368C1025.18 393.541 1024.33 392.487 1023.75 391.206C1023.21 389.883 1022.95 388.395 1022.95 386.742C1022.95 386.205 1022.97 385.688 1023.01 385.192C1023.09 384.655 1023.17 384.076 1023.26 383.456L1027.84 383.766C1027.76 384.221 1027.7 384.634 1027.66 385.006C1027.62 385.337 1027.6 385.709 1027.6 386.122C1027.6 387.031 1027.68 387.837 1027.84 388.54C1028.05 389.243 1028.36 389.821 1028.77 390.276C1029.35 390.937 1030.18 391.433 1031.25 391.764C1032.37 392.053 1033.94 392.198 1035.97 392.198H1040.8C1042.99 392.198 1044.73 392.363 1046.01 392.694C1047.29 393.025 1048.39 393.624 1049.3 394.492C1050 395.153 1050.54 396.063 1050.91 397.22C1051.28 398.336 1051.49 399.741 1051.53 401.436H1047.06ZM1074.86 401.436V405.838H1068.35V440H1063.58V410.922C1063.08 409.517 1062.34 408.318 1061.35 407.326C1060.4 406.334 1059.16 405.838 1057.63 405.838H1057.13V401.436H1058.06C1059.05 401.436 1060.09 401.767 1061.16 402.428C1062.24 403.048 1063.1 404.019 1063.77 405.342C1063.72 405.135 1063.68 404.66 1063.64 403.916C1063.6 403.172 1063.58 402.531 1063.58 401.994V397.344H1066.93L1068.29 401.436H1074.86ZM1120.16 401.436V405.838H1113.65V440H1108.88V419.23L1109.25 420.842C1108.34 419.519 1107.37 418.465 1106.34 417.68C1105.34 416.895 1104.25 416.502 1103.05 416.502C1102.43 416.502 1101.79 416.626 1101.13 416.874C1100.51 417.081 1099.97 417.494 1099.52 418.114C1099.1 418.734 1098.9 419.685 1098.9 420.966C1098.9 421.421 1098.9 421.834 1098.9 422.206C1098.94 422.537 1098.98 422.867 1099.02 423.198L1094.99 423.508C1094.82 421.813 1094.37 420.387 1093.63 419.23C1092.88 418.031 1091.97 417.122 1090.9 416.502C1089.82 415.882 1088.67 415.572 1087.43 415.572C1086.31 415.572 1085.36 415.799 1084.57 416.254C1083.79 416.667 1083.19 417.246 1082.78 417.99C1082.36 418.693 1082.16 419.499 1082.16 420.408C1082.16 422.061 1082.76 423.467 1083.95 424.624C1085.19 425.781 1086.93 426.753 1089.16 427.538L1087.49 432.126C1085.5 431.506 1083.73 430.659 1082.16 429.584C1080.59 428.509 1079.35 427.187 1078.44 425.616C1077.53 424.045 1077.07 422.227 1077.07 420.16C1077.07 418.3 1077.53 416.709 1078.44 415.386C1079.35 414.022 1080.56 412.968 1082.09 412.224C1083.62 411.48 1085.3 411.108 1087.12 411.108C1089.31 411.108 1091.19 411.521 1092.76 412.348C1094.33 413.133 1095.78 414.415 1097.1 416.192L1096.17 416.254C1096.58 414.89 1097.37 413.857 1098.52 413.154C1099.72 412.41 1100.96 412.038 1102.24 412.038C1103.73 412.038 1105.01 412.327 1106.09 412.906C1107.16 413.485 1108.34 414.311 1109.62 415.386L1109.06 416.316C1109.02 415.448 1108.98 414.58 1108.94 413.712C1108.9 412.844 1108.88 411.955 1108.88 411.046V405.838H1073.6V401.436H1120.16ZM1163.32 401.436V405.838H1162.08C1160.8 406.127 1159.41 406.768 1157.92 407.76C1156.44 408.711 1155.03 409.971 1153.71 411.542C1152.38 413.071 1151.29 414.869 1150.42 416.936C1149.59 419.003 1149.18 421.276 1149.18 423.756C1149.18 426.732 1149.62 429.109 1150.48 430.886C1151.39 432.622 1152.51 433.862 1153.83 434.606C1155.15 435.35 1156.48 435.722 1157.8 435.722C1158.83 435.722 1159.7 435.619 1160.4 435.412C1161.11 435.205 1161.91 434.833 1162.82 434.296L1164.99 438.078C1163.92 438.905 1162.74 439.483 1161.46 439.814C1160.18 440.145 1158.87 440.31 1157.55 440.31C1154.95 440.31 1152.65 439.628 1150.67 438.264C1148.69 436.9 1147.11 434.999 1145.96 432.56C1144.84 430.08 1144.28 427.187 1144.28 423.88C1144.28 420.697 1144.78 417.866 1145.77 415.386C1146.8 412.865 1148.13 410.674 1149.74 408.814C1151.39 406.954 1153.17 405.425 1155.07 404.226C1156.97 402.986 1158.81 402.056 1160.59 401.436H1163.32ZM1208.62 401.436V405.838H1202.11V440H1197.34V419.23L1197.71 420.842C1196.8 419.519 1195.83 418.465 1194.8 417.68C1193.8 416.895 1192.71 416.502 1191.51 416.502C1190.89 416.502 1190.25 416.626 1189.59 416.874C1188.97 417.081 1188.43 417.494 1187.98 418.114C1187.56 418.734 1187.36 419.685 1187.36 420.966C1187.36 421.421 1187.36 421.834 1187.36 422.206C1187.4 422.537 1187.44 422.867 1187.48 423.198L1183.45 423.508C1183.28 421.813 1182.83 420.387 1182.09 419.23C1181.34 418.031 1180.43 417.122 1179.36 416.502C1178.28 415.882 1177.13 415.572 1175.89 415.572C1174.77 415.572 1173.82 415.799 1173.03 416.254C1172.25 416.667 1171.65 417.246 1171.24 417.99C1170.82 418.693 1170.62 419.499 1170.62 420.408C1170.62 422.061 1171.21 423.467 1172.41 424.624C1173.65 425.781 1175.39 426.753 1177.62 427.538L1175.95 432.126C1173.96 431.506 1172.19 430.659 1170.62 429.584C1169.04 428.509 1167.8 427.187 1166.9 425.616C1165.99 424.045 1165.53 422.227 1165.53 420.16C1165.53 418.3 1165.99 416.709 1166.9 415.386C1167.8 414.022 1169.02 412.968 1170.55 412.224C1172.08 411.48 1173.76 411.108 1175.58 411.108C1177.77 411.108 1179.65 411.521 1181.22 412.348C1182.79 413.133 1184.23 414.415 1185.56 416.192L1184.63 416.254C1185.04 414.89 1185.83 413.857 1186.98 413.154C1188.18 412.41 1189.42 412.038 1190.7 412.038C1192.19 412.038 1193.47 412.327 1194.55 412.906C1195.62 413.485 1196.8 414.311 1198.08 415.386L1197.52 416.316C1197.48 415.448 1197.44 414.58 1197.4 413.712C1197.36 412.844 1197.34 411.955 1197.34 411.046V405.838H1162.06V401.436H1208.62ZM1246.1 401.436V405.838H1239.59V440H1234.81V424.934L1235.8 428.406C1234.44 426.505 1232.95 424.789 1231.34 423.26C1229.73 421.731 1228.08 420.511 1226.38 419.602C1224.69 418.693 1223.03 418.238 1221.42 418.238C1219.89 418.238 1218.59 418.651 1217.51 419.478C1216.48 420.263 1215.96 421.441 1215.96 423.012C1215.96 424.252 1216.4 425.327 1217.27 426.236C1218.13 427.104 1219.48 427.889 1221.3 428.592L1218.94 432.994C1216.42 431.961 1214.44 430.576 1212.99 428.84C1211.58 427.063 1210.88 425.058 1210.88 422.826C1210.88 420.801 1211.36 419.127 1212.31 417.804C1213.3 416.44 1214.54 415.427 1216.03 414.766C1217.56 414.105 1219.11 413.774 1220.68 413.774C1222.83 413.774 1224.79 414.146 1226.57 414.89C1228.34 415.634 1230 416.647 1231.53 417.928C1233.1 419.209 1234.59 420.697 1235.99 422.392L1235.12 422.64C1235 421.689 1234.92 420.759 1234.87 419.85C1234.83 418.899 1234.81 417.949 1234.81 416.998V405.838H1207.41V401.436H1246.1ZM1267.52 401.436V405.838H1266.28C1265 406.127 1263.61 406.768 1262.12 407.76C1260.64 408.711 1259.23 409.971 1257.91 411.542C1256.59 413.071 1255.49 414.869 1254.62 416.936C1253.8 419.003 1253.38 421.276 1253.38 423.756C1253.38 426.732 1253.82 429.109 1254.68 430.886C1255.59 432.622 1256.71 433.862 1258.03 434.606C1259.36 435.35 1260.68 435.722 1262 435.722C1263.03 435.722 1263.9 435.619 1264.6 435.412C1265.31 435.205 1266.11 434.833 1267.02 434.296L1269.19 438.078C1268.12 438.905 1266.94 439.483 1265.66 439.814C1264.38 440.145 1263.1 440.31 1261.81 440.31C1259.21 440.31 1256.9 439.628 1254.87 438.264C1252.89 436.9 1251.32 434.999 1250.16 432.56C1249.04 430.08 1248.48 427.187 1248.48 423.88C1248.48 420.491 1249.13 417.432 1250.41 414.704C1251.69 411.935 1253.4 409.599 1255.55 407.698C1257.74 405.797 1260.16 404.412 1262.81 403.544L1258.84 405.59C1258.09 405.673 1257.29 405.735 1256.42 405.776C1255.55 405.817 1254.58 405.838 1253.51 405.838H1244.83V401.436H1267.52ZM1304.89 401.436V405.838H1276.74V424.314L1275.87 423.074C1277.52 421.214 1279.4 419.478 1281.51 417.866C1283.62 416.254 1285.91 414.787 1288.39 413.464C1290.87 412.1 1293.52 410.901 1296.33 409.868L1300.36 413.836C1299.57 415.283 1298.93 416.688 1298.44 418.052C1297.98 419.416 1297.63 420.842 1297.38 422.33C1297.18 423.818 1297.07 425.471 1297.07 427.29C1297.07 429.315 1297.24 431.258 1297.57 433.118C1297.9 434.978 1298.46 437.065 1299.24 439.38L1294.59 440.434C1293.85 438.037 1293.27 435.701 1292.86 433.428C1292.44 431.113 1292.24 428.716 1292.24 426.236C1292.24 424.541 1292.36 422.95 1292.61 421.462C1292.86 419.974 1293.19 418.651 1293.6 417.494C1294.06 416.295 1294.51 415.324 1294.97 414.58L1295.71 414.89C1293.35 415.841 1291.06 416.998 1288.83 418.362C1286.6 419.726 1284.41 421.297 1282.26 423.074C1280.11 424.851 1277.9 426.877 1275.62 429.15L1271.96 426.67V405.838H1266.26V401.436H1304.89ZM1342.31 401.436V405.838H1335.8V440H1331.02V424.934L1332.01 428.406C1330.65 426.505 1329.16 424.789 1327.55 423.26C1325.94 421.731 1324.28 420.511 1322.59 419.602C1320.9 418.693 1319.24 418.238 1317.63 418.238C1316.1 418.238 1314.8 418.651 1313.72 419.478C1312.69 420.263 1312.17 421.441 1312.17 423.012C1312.17 424.252 1312.61 425.327 1313.48 426.236C1314.34 427.104 1315.69 427.889 1317.51 428.592L1315.15 432.994C1312.63 431.961 1310.64 430.576 1309.2 428.84C1307.79 427.063 1307.09 425.058 1307.09 422.826C1307.09 420.801 1307.57 419.127 1308.52 417.804C1309.51 416.44 1310.75 415.427 1312.24 414.766C1313.77 414.105 1315.32 413.774 1316.89 413.774C1319.04 413.774 1321 414.146 1322.78 414.89C1324.55 415.634 1326.21 416.647 1327.74 417.928C1329.31 419.209 1330.79 420.697 1332.2 422.392L1331.33 422.64C1331.21 421.689 1331.13 420.759 1331.08 419.85C1331.04 418.899 1331.02 417.949 1331.02 416.998V405.838H1303.62V401.436H1342.31Z" fill="#232323"/>
<path d="M801.332 11H530.189C524.975 11 521.064 14.907 521.064 20.1163V40.9535C521.064 46.1628 524.975 50.0698 530.189 50.0698H732.242V162.07C727.028 154.256 720.51 146.442 712.689 138.628C689.225 113.884 663.153 102.163 637.082 102.163C616.225 102.163 597.975 112.581 583.635 132.116C571.903 147.744 565.385 167.279 565.385 184.209C565.385 202.442 567.992 224.581 582.332 245.419C599.278 270.163 625.35 277.977 648.814 277.977C680.1 277.977 706.171 255.837 706.171 228.488C706.171 211.558 698.35 198.535 682.707 190.721L668.367 182.907V205.046C667.064 211.558 655.332 220.674 643.6 220.674C633.171 220.674 622.742 216.767 617.528 210.256C613.617 205.047 611.01 198.535 612.314 192.023C612.314 184.209 614.921 177.698 621.439 169.884C627.957 162.07 634.475 158.163 644.903 158.163C672.278 158.163 694.439 171.186 712.689 197.233C727.028 219.372 734.85 241.512 734.85 264.953V320.953L775.26 345.698C776.564 347 777.867 347 779.171 347C784.385 347 788.296 343.093 788.296 337.884V50.0698H803.939C809.153 50.0698 813.064 46.1628 813.064 40.9535V20.1163C809.153 14.907 805.243 11 801.332 11Z" fill="#EC1C24"/>
<path d="M1342.63 11.2154H999.726C994.511 11.2154 990.6 15.1269 990.6 20.3423V58.1538C958.004 22.95 928.016 6 900.636 6C874.559 6 853.698 12.5192 835.444 25.5577C817.191 39.9 808.064 56.85 808.064 76.4077C808.064 136.385 875.863 136.385 891.509 127.258C894.116 125.954 898.028 123.346 903.243 123.346C916.281 123.346 921.497 133.777 921.497 142.904C921.497 157.246 901.939 168.981 878.47 168.981C865.432 168.981 856.305 165.069 851.09 157.246L840.66 141.6L832.836 159.854C831.533 163.765 828.925 168.981 828.925 175.5C828.925 189.842 835.444 202.881 848.482 213.312C861.521 223.742 875.863 228.958 891.509 228.958C917.585 228.958 938.447 219.831 952.789 201.577C964.523 187.235 969.738 168.981 969.738 149.423C969.738 137.688 965.827 127.258 956.7 114.219C946.27 98.5731 933.231 90.75 917.585 90.75C912.37 90.75 905.851 92.0538 898.028 94.6615C895.42 93.3577 891.509 94.6615 890.205 94.6615C887.597 94.6615 883.686 93.3577 881.078 89.4461C878.471 86.8385 875.863 82.9269 875.863 76.4077C875.863 62.0654 890.205 46.4192 913.674 46.4192H914.978C930.624 46.4192 946.27 54.2423 961.915 69.8885C973.65 81.6231 984.081 93.3577 990.6 106.396V320.227L1031.02 343.696C1032.32 345 1033.63 345 1034.93 345C1040.15 345 1044.06 341.088 1044.06 335.873V49.0269H1105.34V234.173L1153.58 253.731H1156.19C1160.1 253.731 1164.01 249.819 1165.31 245.908V244.604C1173.14 189.842 1197.91 152.031 1238.33 128.562V138.992C1238.33 146.815 1238.33 166.373 1239.63 178.108C1239.63 184.627 1239.63 188.538 1240.93 192.45C1240.93 213.312 1243.54 247.212 1251.37 270.681C1264.4 316.315 1287.87 326.746 1304.82 328.05H1306.13C1316.56 328.05 1323.08 325.442 1328.29 320.227C1330.9 317.619 1334.81 311.1 1334.81 303.277C1334.81 294.15 1333.51 287.631 1330.9 283.719L1326.99 277.2L1319.16 278.504C1310.04 281.112 1307.43 281.112 1307.43 279.808H1306.13C1303.52 279.808 1303.52 279.808 1302.21 278.504C1299.61 277.2 1294.39 271.985 1290.48 257.642C1287.87 247.212 1286.57 231.565 1286.57 223.742C1286.57 163.765 1299.61 118.131 1317.86 107.7H1319.16C1321.77 106.396 1324.38 103.788 1324.38 99.8769C1324.38 98.5731 1324.38 97.2692 1323.08 95.9654V94.6615C1313.95 76.4077 1294.39 63.3692 1267.01 55.5461H1261.8C1240.93 59.4577 1214.86 73.8 1182.26 101.181C1174.44 107.7 1166.62 115.523 1158.79 122.042V47.7231H1343.94C1349.15 47.7231 1353.06 43.8115 1353.06 38.5962V17.7346C1351.76 15.1269 1347.85 11.2154 1342.63 11.2154Z" fill="#EC1C24"/>
<path d="M410.498 234.33C410.498 240.23 410.498 245.287 409.655 251.188C407.969 275.632 401.226 298.391 391.954 319.464C387.739 327.893 383.525 336.322 378.467 343.908C342.222 401.226 278.161 440 204.828 440C173.64 440 144.138 433.257 117.165 420.613C48.046 387.739 0 316.935 0 234.33C0 154.253 46.3601 84.2913 113.793 50.5748C108.736 57.3181 103.678 64.9043 99.4636 72.4905C99.4636 73.3334 98.6207 73.3334 98.6207 74.1764C96.0919 76.7051 93.5632 78.3909 91.0345 80.9197C87.6628 83.4484 85.1341 86.82 81.7624 90.1917C80.9195 91.0346 80.0766 91.8775 80.0766 92.7204C79.2337 93.5633 78.3908 94.4062 78.3908 95.2491L75.0191 98.6208C72.4904 101.15 70.8046 103.678 69.1188 106.207C60.6896 117.165 53.9463 129.809 48.046 142.452C47.2031 144.138 47.2031 144.981 46.3601 146.667C45.5172 148.353 45.5172 150.038 44.6743 150.881C42.1456 152.567 42.1456 153.41 42.1456 154.253L39.6168 161.839C38.7739 163.525 38.7739 165.211 37.931 166.897C37.931 167.74 37.0881 168.582 37.0881 169.425C37.0881 171.111 36.2452 172.797 36.2452 174.483C35.4023 178.697 33.7165 183.755 33.7165 188.812C33.7165 190.498 33.7165 191.341 32.8736 193.027V214.1C32.8736 269.732 58.1609 319.464 98.6207 352.337C129.808 377.625 169.425 392.797 212.414 392.797C251.188 392.797 287.433 380.153 316.935 359.081C338.85 343.908 356.552 323.678 369.195 300.077C370.881 296.705 372.567 294.176 374.253 290.805C384.368 268.889 390.268 245.287 391.111 220V214.1C391.111 208.199 391.111 202.299 390.268 196.399L391.111 197.241C393.64 199.77 396.169 202.299 399.54 203.985C402.069 199.77 404.598 195.556 407.969 192.184C409.655 199.77 410.498 208.199 411.341 215.786C409.655 222.529 410.498 228.429 410.498 234.33Z" fill="#EC1C24"/>
<path d="M390.268 214.1V220C390.268 256.245 375.096 286.59 373.41 290.805C371.724 294.176 370.038 296.705 368.352 300.077C355.709 323.678 337.165 343.908 316.092 359.08C286.59 380.153 250.345 392.797 211.571 392.797C168.582 392.797 128.965 377.624 97.7777 352.337C57.318 319.464 32.0306 269.732 32.0306 214.1V193.027C32.0306 191.341 32.0306 190.498 32.8736 188.812C33.7165 183.755 35.4023 178.697 36.2452 173.64C36.2452 171.954 37.0881 170.268 37.0881 168.582C37.0881 167.739 37.931 166.897 37.931 166.054C38.7739 164.368 38.7739 162.682 39.6168 160.996C40.4598 158.467 41.3027 156.782 42.1456 154.253C42.1456 153.41 42.9885 152.567 42.9885 151.724C43.8314 150.038 43.8314 148.352 44.6743 147.51C45.5172 145.824 45.5172 144.981 46.3601 143.295C52.2605 129.808 59.0038 118.008 67.4329 107.05C69.1187 104.521 71.6475 101.992 73.3333 99.4636C74.1762 98.6207 75.0191 96.9349 76.705 96.092C77.5479 95.249 77.5479 94.4061 78.3908 93.5632C79.2337 92.7203 80.0766 91.8774 80.0766 91.0345C82.6053 87.6628 85.977 85.1341 89.3486 81.7625C91.8774 79.2337 94.4061 76.705 96.9348 75.0192C96.9348 75.8621 96.0919 76.705 96.0919 76.705C96.0919 77.5479 95.249 78.3908 95.249 79.2337C85.1341 100.307 78.3908 124.751 75.862 151.724C75.0191 158.467 75.0191 166.054 75.0191 173.64C75.0191 267.203 129.808 343.065 198.084 343.065H205.67C215.785 343.065 225.057 341.379 234.329 338.851C280.69 326.207 314.406 284.061 314.406 234.329V230.958C313.563 201.456 300.919 174.483 280.69 155.939C295.019 155.939 308.506 158.467 321.149 161.839C346.437 168.582 369.195 180.383 388.582 195.556L389.425 196.398C389.425 202.299 390.268 208.199 390.268 214.1Z" fill="#F6921E"/>
<path d="M390.268 214.1V220C390.268 258.774 373.41 290.805 373.41 291.648C371.724 295.019 370.038 297.548 368.352 300.92C355.709 324.521 337.165 344.751 316.092 360.766C285.747 382.682 248.659 394.483 210.728 394.483C169.425 394.483 128.965 380.153 96.9347 354.023C54.7892 319.464 31.1876 268.889 31.1876 214.943C31.1876 160.996 55.6321 109.579 97.7777 75.0192L99.4635 73.3334C99.4635 74.1763 98.6206 74.1763 98.6206 75.0192C98.6206 75.8621 97.7777 76.705 97.7777 76.705C56.475 110.421 33.7164 160.996 33.7164 214.1C33.7164 268.046 57.3179 317.778 99.4635 352.337C129.808 378.467 169.425 392.797 210.728 392.797C248.659 392.797 284.061 380.996 315.249 359.08C336.322 343.908 354.866 322.835 367.509 300.077C369.195 296.705 370.881 294.176 372.567 290.805C372.567 290.805 390.268 257.931 389.425 220V214.1C389.425 208.199 389.425 202.299 388.582 197.241V196.398L389.425 197.241L390.268 198.084V214.1Z" fill="#F6921E"/>
<path d="M341.379 102.835C341.379 102.835 194.712 75.0191 126.437 202.299C126.437 202.299 138.237 114.636 242.758 74.1762L221.686 35.4023C221.686 35.4023 263.831 -2.52874 337.165 7.58621L341.379 102.835Z" fill="#EC1C24"/>
<path d="M160.153 170.268C160.153 170.268 218.314 93.5631 352.337 113.793L350.651 69.1187C350.651 69.1187 406.283 67.4329 451.801 106.207L396.168 190.498C396.168 190.498 358.237 145.824 279.004 144.981C246.13 144.138 206.513 148.352 160.153 170.268Z" fill="#F6921E"/>
<path d="M191.341 199.77C191.341 199.77 178.697 202.299 179.54 196.398C179.54 193.87 181.226 193.027 182.069 193.87C182.069 193.027 179.54 189.655 185.44 187.969C187.126 185.44 188.812 182.912 189.655 181.226C190.498 179.54 191.341 177.011 196.398 178.697C201.456 179.54 206.513 184.598 207.356 186.283C209.885 186.283 213.257 187.126 212.414 187.126L210.728 188.812C210.728 188.812 212.414 189.655 207.356 189.655C207.356 190.498 208.199 191.341 209.042 191.341C209.885 192.184 209.042 192.184 209.042 193.027C209.042 193.027 209.885 195.555 207.356 194.713C204.827 193.87 204.827 193.027 203.985 193.027C203.142 193.027 201.456 193.027 201.456 193.87C201.456 194.713 203.985 196.398 201.456 196.398C200.613 197.241 202.299 198.084 201.456 198.084C200.613 198.927 194.713 203.142 192.184 203.985C189.655 203.985 188.812 203.142 188.812 202.299C188.812 201.456 190.498 200.613 192.184 200.613C191.341 200.613 192.184 199.77 191.341 199.77Z" fill="#EC1C24"/>
<path d="M190.498 213.257C189.655 213.257 185.441 210.728 187.969 209.885C189.655 208.199 198.084 203.142 199.77 202.299C201.456 201.456 203.985 203.985 201.456 205.671C198.927 208.199 190.498 213.257 190.498 213.257Z" fill="#EC1C24"/>
<path d="M203.142 207.356C203.142 205.67 204.828 200.613 204.828 199.77C204.828 198.927 209.042 198.084 208.199 203.142C206.513 207.356 203.142 209.042 203.142 207.356Z" fill="#EC1C24"/>
<path d="M209.042 197.241C209.042 197.241 232.643 196.398 234.329 197.241C236.015 198.084 244.444 210.728 241.915 221.686C240.23 232.644 236.858 235.172 221.686 236.858C221.686 233.487 220.843 224.215 219.157 221.686C217.471 219.157 212.414 213.257 210.728 213.257C210.728 215.785 209.885 223.372 209.885 223.372C209.885 223.372 202.299 224.215 201.456 222.529V210.728C201.456 210.728 208.199 204.828 209.042 203.142C209.885 203.985 210.728 207.356 218.314 206.513C218.314 207.356 209.042 208.199 209.042 197.241Z" fill="#EC1C24"/>
<path d="M199.77 208.199C199.77 208.199 192.184 214.1 190.498 215.785C189.655 217.471 188.812 224.215 198.084 224.215C199.77 220 199.77 208.199 199.77 208.199Z" fill="#EC1C24"/>
<path d="M182.069 217.471C179.54 217.471 177.854 216.628 177.854 214.943C177.854 213.257 181.226 210.728 183.755 211.571C185.44 212.414 189.655 213.257 189.655 220.843C191.341 222.529 195.555 225.9 201.456 225.9C207.356 225.9 210.728 225.9 210.728 227.586V238.544C210.728 238.544 203.984 238.544 187.126 226.743C185.44 225.057 184.597 223.372 184.597 220.843C184.597 218.314 182.912 217.471 182.069 217.471Z" fill="#EC1C24"/>
<path d="M177.011 218.314C174.483 218.314 166.053 225.057 171.954 227.586L175.325 224.214C175.325 224.214 173.64 228.429 177.011 229.272C180.383 230.115 178.697 227.586 180.383 227.586C181.226 229.272 181.226 230.115 182.912 230.115C184.597 230.115 184.597 225.057 182.912 222.529C182.069 220 180.383 218.314 177.011 218.314Z" fill="#EC1C24"/>
<path d="M212.414 219.157V241.073C212.414 241.073 219.157 238.544 220 236.858C220 233.487 218.314 219.157 212.414 219.157Z" fill="#EC1C24"/>
<path d="M194.713 233.487C194.713 233.487 203.142 239.387 208.199 241.073C207.356 241.916 203.985 246.973 202.299 246.13C201.456 246.13 195.555 237.701 194.713 233.487Z" fill="#EC1C24"/>
<path d="M153.41 241.916H165.211V246.13H154.253L153.41 241.916Z" fill="#EC1C24"/>
<path d="M279.004 239.387H230.958L238.544 245.287H279.004V239.387Z" fill="#EC1C24"/>
<path d="M221.686 239.387C222.529 238.544 228.429 242.759 226.743 243.602C225.057 244.445 209.885 250.345 209.042 250.345C207.356 249.502 208.199 246.13 209.885 245.287C210.728 244.445 219.157 241.916 221.686 239.387Z" fill="#EC1C24"/>
<path d="M204.828 249.502C203.142 248.659 193.87 257.931 198.084 258.774C202.299 259.617 212.414 261.303 214.942 262.988C217.471 262.145 219.157 259.617 219.157 258.774C220.843 258.774 223.372 261.303 225.9 260.46C228.429 259.617 240.23 251.188 240.23 249.502C237.701 247.816 232.644 244.444 230.115 244.444C228.429 243.601 213.257 252.873 204.828 249.502Z" fill="#EC1C24"/>
<path d="M199.77 261.303C200.613 261.303 213.257 265.517 215.785 265.517C219.157 264.674 219.157 262.146 220.843 262.146C222.529 262.146 223.372 263.831 225.9 262.146C228.429 260.46 234.329 255.402 235.172 254.559C235.172 256.245 235.172 261.303 224.215 266.36C213.257 271.418 187.126 279.004 186.283 282.375C187.126 282.375 190.498 281.533 193.027 280.69C194.713 281.533 197.241 284.904 196.398 290.805C195.556 296.705 191.341 305.977 191.341 308.506V324.521C191.341 325.364 193.87 332.95 190.498 332.107C187.126 331.264 185.441 331.264 183.755 332.107C182.069 332.107 179.54 334.636 177.854 333.793C175.326 333.793 171.954 332.107 171.954 331.264C171.954 330.421 174.483 330.421 177.011 329.578C179.54 328.736 180.383 326.207 184.598 324.521C184.598 321.992 182.912 300.919 182.912 296.705C182.912 292.49 181.226 283.218 183.755 279.847C185.441 274.789 195.556 260.46 199.77 261.303Z" fill="#EC1C24"/>
<path d="M215.785 273.103C215.785 274.789 223.372 293.333 226.743 293.333C230.115 293.333 261.303 286.59 267.203 289.119C268.889 291.648 272.26 295.862 272.26 298.391C272.26 298.391 273.103 304.291 272.26 305.134C273.103 305.134 275.632 304.291 276.475 302.605C277.318 300.92 276.475 292.49 276.475 290.805C276.475 289.119 280.69 281.533 275.632 282.375C270.575 282.375 256.245 282.375 251.188 281.533C246.973 280.69 236.015 278.161 233.487 279.847C230.958 281.533 227.586 285.747 227.586 286.59C226.743 286.59 225.9 285.747 227.586 282.375C228.429 279.004 232.644 269.732 231.801 264.674C229.272 265.517 215.785 273.103 215.785 273.103Z" fill="#EC1C24"/>
<path d="M198.084 243.602C198.084 244.444 198.927 246.13 199.77 246.973L175.325 245.287C175.325 245.287 172.797 243.602 173.64 242.759L198.084 243.602Z" fill="#EC1C24"/>
<path d="M171.111 241.916H195.555C195.555 241.916 193.87 239.387 193.027 237.701H170.268C170.268 237.701 167.739 237.701 167.739 242.759C167.739 243.602 169.425 245.287 171.111 241.916Z" fill="#EC1C24"/>
<path d="M147.509 246.13H152.567C152.567 246.13 154.253 245.287 152.567 243.601C150.881 241.916 147.509 240.23 150.038 236.858C147.509 236.858 144.138 236.015 144.981 243.601H142.452C142.452 243.601 141.609 239.387 135.709 239.387C129.808 239.387 115.479 245.287 115.479 245.287C115.479 245.287 131.494 249.502 135.709 249.502C139.923 249.502 142.452 245.287 142.452 245.287H144.138C144.138 245.287 144.981 248.659 145.824 249.502V254.559C145.824 254.559 143.295 255.402 144.138 257.931C144.138 260.46 145.824 260.46 146.666 260.46C147.509 260.46 147.509 259.617 150.038 259.617C150.881 258.774 150.038 255.402 148.352 254.559V251.188C148.352 251.188 150.038 249.502 150.038 248.659C149.195 246.973 147.509 247.816 147.509 246.13Z" fill="#EC1C24"/>
<path d="M177.011 269.732C178.697 268.889 179.54 266.36 179.54 266.36V252.03C179.54 248.659 173.64 246.13 172.797 246.13C171.954 246.973 170.268 247.816 169.425 247.816C167.739 247.816 166.896 247.816 165.211 246.13C160.153 246.13 157.624 252.031 157.624 252.873C157.624 253.716 156.781 264.674 157.624 266.36C157.624 268.046 159.31 269.732 160.153 270.575C159.31 273.946 154.253 293.333 160.996 295.862V299.234H177.854V295.862C182.912 291.647 178.697 274.789 177.011 269.732ZM157.624 252.03C157.624 251.188 160.153 246.973 163.525 246.973C165.211 248.659 166.896 248.659 168.582 248.659C170.268 248.659 171.954 246.973 172.797 246.973C174.483 247.816 177.854 249.502 177.854 252.03V266.36C177.854 267.203 177.011 268.046 176.168 268.889H172.797V262.145H161.839V268.046H159.31C158.467 267.203 157.624 266.36 157.624 264.674V252.03ZM169.425 291.647H166.054C165.211 291.647 164.368 290.804 164.368 289.962C164.368 289.119 165.211 288.276 166.054 288.276H169.425C170.268 288.276 171.111 289.119 171.111 289.962C171.111 290.804 170.268 291.647 169.425 291.647ZM176.168 293.333L167.739 284.061L160.153 293.333C155.096 291.647 158.467 276.475 160.153 269.732H176.168C177.854 276.475 180.383 290.804 176.168 293.333Z" fill="#EC1C24"/>
<path d="M173.64 276.475C175.326 273.946 172.797 272.26 172.797 272.26H162.682C159.31 272.26 160.153 276.475 160.153 276.475L166.054 281.533C167.74 281.533 171.954 279.004 173.64 276.475Z" fill="#EC1C24"/>
<path d="M169.425 282.375L175.326 289.119C175.326 289.119 174.483 280.69 174.483 278.161C173.64 279.004 169.425 282.375 169.425 282.375Z" fill="#EC1C24"/>
<path d="M160.996 278.161C160.996 280.69 160.153 289.119 160.153 289.119L166.053 282.375C166.053 282.375 162.682 279.004 160.996 278.161Z" fill="#EC1C24"/>
<path d="M172.797 260.46H173.64V259.617C173.64 258.774 172.797 258.774 172.797 258.774H163.525C162.682 258.774 162.682 259.617 162.682 259.617V260.46H163.525H172.797Z" fill="#EC1C24"/>
<path d="M159.31 299.234H158.467V300.077C158.467 300.919 159.31 300.919 159.31 300.919H176.168C177.011 300.919 177.011 300.077 177.011 300.077V299.234H176.168H159.31Z" fill="#EC1C24"/>
<path d="M102.835 239.387C102.835 239.387 36.2453 93.5632 191.341 0L228.429 68.2759C228.429 68.2759 203.142 76.705 176.169 100.306C146.667 125.594 115.479 167.739 102.835 239.387Z" fill="#F6921E"/>
</svg>
